<svg xmlns="http://www.w3.org/2000/svg" style="animation-delay: 0s; animation-direction: normal; animation-duration: 0s; animation-fill-mode: none; animation-iteration-count: 1; animation-name: none; animation-play-state: running; animation-timing-function: ease; background-attachment: scroll; background-blend-mode: normal; background-clip: border-box; background-color: rgba(0, 0, 0, 0); background-image: none; background-origin: padding-box; background-position: 0% 0%; background-repeat: repeat; background-size: auto; border-bottom-color: rgb(0, 0, 0); border-bottom-left-radius: 0px; border-bottom-right-radius: 0px; border-bottom-style: none; border-bottom-width: 0px; border-collapse: separate; border-image-outset: 0px; border-image-repeat: stretch; border-image-slice: 100%; border-image-source: none; border-image-width: 1; border-left-color: rgb(0, 0, 0); border-left-style: none; border-left-width: 0px; border-right-color: rgb(0, 0, 0); border-right-style: none; border-right-width: 0px; border-top-color: rgb(0, 0, 0); border-top-left-radius: 0px; border-top-right-radius: 0px; border-top-style: none; border-top-width: 0px; bottom: auto; box-shadow: none; box-sizing: content-box; break-after: auto; break-before: auto; break-inside: auto; caption-side: top; clear: none; clip: auto; color: rgb(0, 0, 0); content: ; cursor: auto; direction: ltr; display: inline; empty-cells: show; float: none; font-family: Times; font-kerning: auto; font-size: 16px; font-stretch: normal; font-style: normal; font-variant: normal; font-variant-ligatures: normal; font-variant-caps: normal; font-variant-numeric: normal; font-weight: normal; height: 734px; image-rendering: auto; isolation: auto; left: auto; letter-spacing: normal; line-height: normal; list-style-image: none; list-style-position: outside; list-style-type: disc; margin-bottom: 0px; margin-left: 0px; margin-right: 0px; margin-top: 0px; max-height: none; max-width: none; min-height: 0px; min-width: 0px; mix-blend-mode: normal; object-fit: fill; object-position: 50% 50%; offset-distance: 0px; offset-path: none; offset-rotate: auto 0deg; offset-rotation: auto 0deg; opacity: 1; orphans: 2; outline-color: rgb(0, 0, 0); outline-offset: 0px; outline-style: none; outline-width: 0px; overflow-anchor: auto; overflow-wrap: normal; overflow-x: hidden; overflow-y: hidden; padding-bottom: 0px; padding-left: 0px; padding-right: 0px; padding-top: 0px; pointer-events: auto; position: static; resize: none; right: auto; speak: normal; table-layout: auto; tab-size: 8; text-align: start; text-align-last: auto; text-decoration: none; text-indent: 0px; text-rendering: auto; text-shadow: none; text-size-adjust: auto; text-overflow: clip; text-transform: none; top: auto; touch-action: auto; transition-delay: 0s; transition-duration: 0s; transition-property: all; transition-timing-function: ease; unicode-bidi: normal; vertical-align: baseline; visibility: visible; white-space: normal; widows: 2; width: 925px; will-change: auto; word-break: normal; word-spacing: 0px; word-wrap: normal; z-index: auto; zoom: 1; -webkit-appearance: none; backface-visibility: visible; -webkit-background-clip: border-box; -webkit-background-origin: padding-box; -webkit-border-horizontal-spacing: 0px; -webkit-border-image: none; -webkit-border-vertical-spacing: 0px; -webkit-box-align: stretch; -webkit-box-decoration-break: slice; -webkit-box-direction: normal; -webkit-box-flex: 0; -webkit-box-flex-group: 1; -webkit-box-lines: single; -webkit-box-ordinal-group: 1; -webkit-box-orient: horizontal; -webkit-box-pack: start; -webkit-box-reflect: none; column-count: auto; column-gap: normal; column-rule-color: rgb(0, 0, 0); column-rule-style: none; column-rule-width: 0px; column-span: none; column-width: auto; align-content: stretch; align-items: stretch; align-self: stretch; flex-basis: auto; flex-grow: 0; flex-shrink: 1; flex-direction: row; flex-wrap: nowrap; justify-content: flex-start; -webkit-font-smoothing: auto; -webkit-highlight: none; hyphens: manual; -webkit-hyphenate-character: auto; -webkit-line-break: auto; -webkit-line-clamp: none; -webkit-locale: auto; -webkit-margin-before-collapse: collapse; -webkit-margin-after-collapse: collapse; -webkit-mask-box-image: none; -webkit-mask-box-image-outset: 0px; -webkit-mask-box-image-repeat: stretch; -webkit-mask-box-image-slice: 0 fill; -webkit-mask-box-image-source: none; -webkit-mask-box-image-width: auto; -webkit-mask-clip: border-box; -webkit-mask-composite: source-over; -webkit-mask-image: none; -webkit-mask-origin: border-box; -webkit-mask-position: 0% 0%; -webkit-mask-repeat: repeat; -webkit-mask-size: auto; order: 0; perspective: none; perspective-origin: 462.5px 367px; -webkit-print-color-adjust: economy; -webkit-rtl-ordering: logical; shape-outside: none; shape-image-threshold: 0; shape-margin: 0px; -webkit-tap-highlight-color: rgba(0, 0, 0, 0.4); -webkit-text-combine: none; -webkit-text-decorations-in-effect: none; -webkit-text-emphasis-color: rgb(0, 0, 0); -webkit-text-emphasis-position: over; -webkit-text-emphasis-style: none; -webkit-text-fill-color: rgb(0, 0, 0); -webkit-text-orientation: vertical-right; -webkit-text-security: none; -webkit-text-stroke-color: rgb(0, 0, 0); -webkit-text-stroke-width: 0px; transform: none; transform-origin: 462.5px 367px; transform-style: flat; -webkit-user-drag: auto; -webkit-user-modify: read-only; user-select: text; -webkit-writing-mode: horizontal-tb; -webkit-app-region: no-drag; buffered-rendering: auto; clip-path: none; clip-rule: nonzero; mask: none; filter: none; flood-color: rgb(0, 0, 0); flood-opacity: 1; lighting-color: rgb(255, 255, 255); stop-color: rgb(0, 0, 0); stop-opacity: 1; color-interpolation: sRGB; color-interpolation-filters: linearRGB; color-rendering: auto; fill: rgb(0, 0, 0); fill-opacity: 1; fill-rule: nonzero; marker-end: none; marker-mid: none; marker-start: none; mask-type: luminance; shape-rendering: auto; stroke: none; stroke-dasharray: none; stroke-dashoffset: 0px; stroke-linecap: butt; stroke-linejoin: miter; stroke-miterlimit: 4; stroke-opacity: 1; stroke-width: 1px; alignment-baseline: auto; baseline-shift: 0px; dominant-baseline: auto; text-anchor: start; writing-mode: horizontal-tb; vector-effect: none; paint-order: fill stroke markers; d: none; cx: 0px; cy: 0px; x: 0px; y: 0px; r: 0px; rx: auto; ry: auto;" version="1.1" xmlns:xlink="http://www.w3.org/1999/xlink"><style type="text/css">text { font-family: "Coming Soon", sans-serif; font-size: 10px; pointer-events: none; display: block; max-width: 30px; }
.node circle { fill: white; }
.node.person circle { stroke-width: 0; }
.node.organization circle { stroke: rgb(153, 153, 153); stroke-width: 1px; }
.node.action circle { stroke-width: 0; }
.node.action tspan { fill: red; }
.link { fill: none; stroke: rgb(153, 153, 153); stroke-width: 1px; }
.link.financial-transaction { stroke-dasharray: 0, 2, 1; }
.link.action { stroke: red; }</style><svg xmlns="http://www.w3.org/2000/svg"><defs><marker id="assocation" viewBox="0 -5 10 10" refX="60" refY="-4" markerWidth="6" markerHeight="6" orient="auto"><path d="M0,-5L10,0L0,5"/></marker><marker id="influence-control" viewBox="0 -5 10 10" refX="60" refY="-4" markerWidth="6" markerHeight="6" orient="auto"><path d="M0,-5L10,0L0,5"/></marker><marker id="financial-transaction" viewBox="0 -5 10 10" refX="60" refY="-4" markerWidth="6" markerHeight="6" orient="auto"><path d="M0,-5L10,0L0,5"/></marker></defs><g><path class="link assocation" marker-end="url(#assocation)" d="M1273.584267926441,330.92818885741934A234.93086209869438,234.93086209869438 0 0,1 1039.2258876464812,347.31902651110454"/><path class="link assocation" marker-end="url(#assocation)" d="M1273.584267926441,330.92818885741934A316.61687845471323,316.61687845471323 0 0,1 997.6022378034784,175.7503335699629"/><path class="link assocation" marker-end="url(#assocation)" d="M1273.584267926441,330.92818885741934A183.34149770345869,183.34149770345869 0 0,1 1209.7813813014366,159.04655389177162"/><path class="link assocation" marker-end="url(#assocation)" d="M1273.584267926441,330.92818885741934A297.58388609574416,297.58388609574416 0 0,1 1038.9346914288183,513.9466182937226"/><path class="link assocation" marker-end="url(#assocation)" d="M997.6022378034784,175.7503335699629A98.40723653005155,98.40723653005155 0 0,1 1035.8200103662853,266.43322094028804"/><path class="link influence-control" marker-end="url(#influence-control)" d="M1035.8200103662853,266.43322094028804A310.2925205620742,310.2925205620742 0 0,1 754.5215921920842,135.46510173008664"/><path class="link influence-control" marker-end="url(#influence-control)" d="M1035.8200103662853,266.43322094028804A612.744697685316,612.744697685316 0 0,1 427.78547404131723,190.60402354541583"/><path class="link financial-transaction" marker-end="url(#financial-transaction)" d="M754.5215921920842,135.46510173008664A331.35598923693675,331.35598923693675 0 0,1 427.78547404131723,190.60402354541583"/><path class="link financial-transaction" marker-end="url(#financial-transaction)" d="M997.6022378034784,175.7503335699629A246.3962259760583,246.3962259760583 0 0,1 754.5215921920842,135.46510173008664"/><path class="link financial-transaction" marker-end="url(#financial-transaction)" d="M1035.8200103662853,266.43322094028804A657.207797438193,657.207797438193 0 0,1 378.7516288748609,252.89693423377292"/><path class="link financial-transaction" marker-end="url(#financial-transaction)" d="M997.6022378034784,175.7503335699629A623.6406610904247,623.6406610904247 0 0,1 378.7516288748609,252.89693423377292"/><path class="link financial-transaction" marker-end="url(#financial-transaction)" d="M529.6857435850198,130.27572274441678A271.42527823040007,271.42527823040007 0 0,1 795.9657617825405,77.67692455303091"/><path class="link influence-control" marker-end="url(#influence-control)" d="M997.6022378034784,175.7503335699629A224.22234950678907,224.22234950678907 0 0,1 795.9657617825405,77.67692455303091"/><path class="link financial-transaction" marker-end="url(#financial-transaction)" d="M1039.2258876464812,347.31902651110454A354.8783189986474,354.8783189986474 0 0,1 754.5215921920842,135.46510173008664"/><path class="link assocation" marker-end="url(#assocation)" d="M1039.2258876464812,347.31902651110454A166.6278462277899,166.6278462277899 0 0,1 1038.9346914288183,513.9466182937226"/><path class="link influence-control" marker-end="url(#influence-control)" d="M1038.9346914288183,513.9466182937226A633.0972939890522,633.0972939890522 0 0,1 407.87913145400967,564.7507901808926"/><path class="link influence-control" marker-end="url(#influence-control)" d="M1038.9346914288183,513.9466182937226A174.69150791115013,174.69150791115013 0 0,1 873.3834629769503,458.1800181252628"/><path class="link financial-transaction" marker-end="url(#financial-transaction)" d="M806.1179569954058,628.2294840166721A182.87008816344675,182.87008816344675 0 0,1 873.3834629769503,458.1800181252628"/><path class="link financial-transaction" marker-end="url(#financial-transaction)" d="M1039.2258876464812,347.31902651110454A793.5910630627069,793.5910630627069 0 0,1 248.44214132071818,414.01116937657724"/><path class="link influence-control" marker-end="url(#influence-control)" d="M1039.2258876464812,347.31902651110454A351.04659524091676,351.04659524091676 0 0,1 702.5527675944469,247.89608014222767"/><path class="link influence-control" marker-end="url(#influence-control)" d="M1039.2258876464812,347.31902651110454A119.86987993216891,119.86987993216891 0 0,1 979.206326596129,451.0804856675545"/><path class="link financial-transaction" marker-end="url(#financial-transaction)" d="M810.8415025203974,380.3383718600248A182.62300143193772,182.62300143193772 0 0,1 979.206326596129,451.0804856675545"/><path class="link financial-transaction" marker-end="url(#financial-transaction)" d="M806.1179569954058,628.2294840166721A247.93611146540593,247.93611146540593 0 0,1 810.8415025203974,380.3383718600248"/><path class="link influence-control" marker-end="url(#influence-control)" d="M1039.2258876464812,347.31902651110454A452.7623732911891,452.7623732911891 0 0,1 639.0160136255531,135.59792835500934"/><path class="link financial-transaction" marker-end="url(#financial-transaction)" d="M639.0160136255531,135.59792835500934A512.9474752201314,512.9474752201314 0 0,1 320.21298314250146,537.4433465067282"/><path class="link financial-transaction" marker-end="url(#financial-transaction)" d="M702.5527675944469,247.89608014222767A479.60539012183244,479.60539012183244 0 0,1 320.21298314250146,537.4433465067282"/><path class="link financial-transaction" marker-end="url(#financial-transaction)" d="M702.5527675944469,247.89608014222767A533.0551492832718,533.0551492832718 0 0,1 384.7439760470978,675.8509424730871"/><path class="link financial-transaction" marker-end="url(#financial-transaction)" d="M639.0160136255531,135.59792835500934A218.27508186035232,218.27508186035232 0 0,1 427.78547404131723,190.60402354541583"/><path class="link financial-transaction" marker-end="url(#financial-transaction)" d="M639.0160136255531,135.59792835500934A479.64766496182085,479.64766496182085 0 0,1 248.44214132071818,414.01116937657724"/><path class="link financial-transaction" marker-end="url(#financial-transaction)" d="M639.0160136255531,135.59792835500934A398.7321230550952,398.7321230550952 0 0,1 873.3834629769503,458.1800181252628"/><path class="link financial-transaction" marker-end="url(#financial-transaction)" d="M639.0160136255531,135.59792835500934A463.95979675773816,463.95979675773816 0 0,1 979.206326596129,451.0804856675545"/><path class="link financial-transaction" marker-end="url(#financial-transaction)" d="M639.0160136255531,135.59792835500934A423.09507063872695,423.09507063872695 0 0,1 360.3153961794558,453.9301520364228"/><path class="link financial-bidirectional" marker-end="url(#financial-bidirectional)" d="M360.3153961794558,453.9301520364228A118.78194445825976,118.78194445825976 0 0,1 248.44214132071818,414.01116937657724"/><path class="link financial-transaction" marker-end="url(#financial-transaction)" d="M639.0160136255531,135.59792835500934A597.0993119724451,597.0993119724451 0 0,1 384.7439760470978,675.8509424730871"/><path class="link financial-bidirectional" marker-end="url(#financial-bidirectional)" d="M384.7439760470978,675.8509424730871A422.99645543471695,422.99645543471695 0 0,1 378.7516288748609,252.89693423377292"/><path class="link financial-bidirectional" marker-end="url(#financial-bidirectional)" d="M384.7439760470978,675.8509424730871A160.14375078616217,160.14375078616217 0 0,1 268.3543570553794,565.8533174677124"/><path class="link financial-bidirectional" marker-end="url(#financial-bidirectional)" d="M268.3543570553794,565.8533174677124A484.7895751794126,484.7895751794126 0 0,1 752.558779488946,542.041356221071"/><path class="link financial-bidirectional" marker-end="url(#financial-bidirectional)" d="M198.033429313961,283.05920066813394A612.021340217427,612.021340217427 0 0,1 752.558779488946,542.041356221071"/><path class="link influence-control" marker-end="url(#influence-control)" d="M1209.7813813014366,159.04655389177162A596.4373615220985,596.4373615220985 0 0,1 752.558779488946,542.041356221071"/><path class="link financial-transaction" marker-end="url(#financial-transaction)" d="M754.5215921920842,135.46510173008664A654.7918312543219,654.7918312543219 0 0,1 384.7439760470978,675.8509424730871"/><path class="link financial-transaction" marker-end="url(#financial-transaction)" d="M754.5215921920842,135.46510173008664A501.1987160837915,501.1987160837915 0 0,1 288.91484576390025,320.96580438266926"/><path class="link financial-transaction" marker-end="url(#financial-transaction)" d="M248.44214132071818,414.01116937657724A101.46664354256883,101.46664354256883 0 0,1 288.91484576390025,320.96580438266926"/><path class="link financial-transaction" marker-end="url(#financial-transaction)" d="M754.5215921920842,135.46510173008664A443.13075341552747,443.13075341552747 0 0,1 367.1279961763711,350.61868963562796"/><path class="link financial-transaction" marker-end="url(#financial-transaction)" d="M997.6022378034784,175.7503335699629A654.2757150532062,654.2757150532062 0 0,1 367.1279961763711,350.61868963562796"/><path class="link financial-transaction" marker-end="url(#financial-transaction)" d="M248.44214132071818,414.01116937657724A134.5545934946993,134.5545934946993 0 0,1 367.1279961763711,350.61868963562796"/><path class="link financial-transaction" marker-end="url(#financial-transaction)" d="M714.2961895227407,613.431763650121A99.55580156408459,99.55580156408459 0 0,1 625.1468429038888,569.1175264063279"/><path class="link financial-bidirectional" marker-end="url(#financial-bidirectional)" d="M625.1468429038888,569.1175264063279A130.25713253505788,130.25713253505788 0 0,1 752.558779488946,542.041356221071"/><path class="link influence-control" marker-end="url(#influence-control)" d="M1029.980539838138,700.632165950906A327.5065177908268,327.5065177908268 0 0,1 714.2961895227407,613.431763650121"/><path class="link influence-control" marker-end="url(#influence-control)" d="M1138.264454121276,696.5836007443509A432.0455038521278,432.0455038521278 0 0,1 714.2961895227407,613.431763650121"/><path class="link assocation" marker-end="url(#assocation)" d="M1273.584267926441,330.92818885741934A389.89143649286024,389.89143649286024 0 0,1 1138.264454121276,696.5836007443509"/><path class="link assocation" marker-end="url(#assocation)" d="M1273.584267926441,330.92818885741934A442.745758892461,442.745758892461 0 0,1 1029.980539838138,700.632165950906"/><path class="link assocation" marker-end="url(#assocation)" d="M1273.584267926441,330.92818885741934A412.4065538584625,412.4065538584625 0 0,1 917.7641319182708,539.4256624069569"/><path class="link influence-control" marker-end="url(#influence-control)" d="M917.7641319182708,539.4256624069569A791.7209891363674,791.7209891363674 0 0,1 126.05240218508737,535.5966100491562"/><path class="link influence-control" marker-end="url(#influence-control)" d="M1029.980539838138,700.632165950906A319.4333902711302,319.4333902711302 0 0,1 710.6413952326278,692.873200637846"/><path class="link financial-bidirectional" marker-end="url(#financial-bidirectional)" d="M138.28108756390964,142.97269851766146A732.5250005002907,732.5250005002907 0 0,1 752.558779488946,542.041356221071"/><path class="link assocation" marker-end="url(#assocation)" d="M1273.584267926441,330.92818885741934A337.0182730125611,337.0182730125611 0 0,1 1054.4006369636206,586.9357126967068"/><path class="link influence-control" marker-end="url(#influence-control)" d="M1054.4006369636206,586.9357126967068A460.13001774747477,460.13001774747477 0 0,1 613.9169588271407,453.9178096623808"/><path class="link assocation" marker-end="url(#assocation)" d="M1273.584267926441,330.92818885741934A361.8870516834305,361.8870516834305 0 0,1 1237.2385161609864,690.9854405615474"/><path class="link influence-control" marker-end="url(#influence-control)" d="M1237.2385161609864,690.9854405615474A1031.5235576268751,1031.5235576268751 0 0,1 422.3477562887524,58.53473148292022"/><path class="link assocation" marker-end="url(#assocation)" d="M1273.584267926441,330.92818885741934A307.66576782321914,307.66576782321914 0 0,1 1193.3978379923162,627.9607815887065"/><path class="link influence-control" marker-end="url(#influence-control)" d="M1193.3978379923162,627.9607815887065A653.1824150923019,653.1824150923019 0 0,1 544.6750181553936,704.1577002182928"/><path class="link assocation" marker-end="url(#assocation)" d="M1273.584267926441,330.92818885741934A323.9886233085427,323.9886233085427 0 0,1 1122.84179973907,617.7126659794285"/><path class="link influence-control" marker-end="url(#influence-control)" d="M1122.84179973907,617.7126659794285A605.5798454315476,605.5798454315476 0 0,1 527.6605668709194,505.97077931894034"/><path class="link assocation" marker-end="url(#assocation)" d="M1273.584267926441,330.92818885741934A332.95580902033305,332.95580902033305 0 0,1 1033.4372273356344,100.30084950698168"/><path class="link assocation" marker-end="url(#assocation)" d="M997.6022378034784,175.7503335699629A83.5270681883411,83.5270681883411 0 0,1 1033.4372273356344,100.30084950698168"/><path class="link financial-transaction" marker-end="url(#financial-transaction)" d="M298.0609285075242,82.25581554299899A735.5976645754738,735.5976645754738 0 0,1 1033.4372273356344,100.30084950698168"/><path class="link financial-transaction" marker-end="url(#financial-transaction)" d="M138.28108756390964,142.97269851766146A896.1726403260735,896.1726403260735 0 0,1 1033.4372273356344,100.30084950698168"/><path class="link financial-transaction" marker-end="url(#financial-transaction)" d="M422.3477562887524,58.53473148292022A612.5151020498661,612.5151020498661 0 0,1 1033.4372273356344,100.30084950698168"/><path class="link financial-transaction" marker-end="url(#financial-transaction)" d="M282.62230270199194,145.96956590573373A752.202554309763,752.202554309763 0 0,1 1033.4372273356344,100.30084950698168"/><path class="link financial-transaction" marker-end="url(#financial-transaction)" d="M209.19308348443008,129.56464702232833A824.7634682246928,824.7634682246928 0 0,1 1033.4372273356344,100.30084950698168"/><path class="link financial-transaction" marker-end="url(#financial-transaction)" d="M196.06229973065814,194.24032781873348A842.627672799157,842.627672799157 0 0,1 1033.4372273356344,100.30084950698168"/><path class="link financial-transaction" marker-end="url(#financial-transaction)" d="M365.2520078283538,111.37703713578779A668.2770155409966,668.2770155409966 0 0,1 1033.4372273356344,100.30084950698168"/><path class="link financial-transaction" marker-end="url(#financial-transaction)" d="M806.1179569954058,628.2294840166721A553.9971226990629,553.9971226990629 0 0,1 1273.584267926441,330.92818885741934"/><path class="link assocation" marker-end="url(#assocation)" d="M1273.584267926441,330.92818885741934A483.98464224934145,483.98464224934145 0 0,1 933.4139041986621,675.2031626422322"/><path class="link influence-control" marker-end="url(#influence-control)" d="M933.4139041986621,675.2031626422322A114.10906970675867,114.10906970675867 0 0,1 824.5154784392835,709.291469383269"/><path class="link financial-transaction" marker-end="url(#financial-transaction)" d="M824.5154784392835,709.291469383269A639.3468834930771,639.3468834930771 0 0,1 189.93962583287316,631.330423205336"/><path class="link financial-transaction" marker-end="url(#financial-transaction)" d="M639.0160136255531,135.59792835500934A668.8948411547593,668.8948411547593 0 0,1 189.93962583287316,631.330423205336"/><path class="link financial-transaction" marker-end="url(#financial-transaction)" d="M527.6605668709194,505.97077931894034A360.2366920941667,360.2366920941667 0 0,1 189.93962583287316,631.330423205336"/><path class="link financial-transaction" marker-end="url(#financial-transaction)" d="M36.396594480802946,364.1706511317321A217.82422086065964,217.82422086065964 0 0,1 248.44214132071818,414.01116937657724"/><path class="link financial-transaction" marker-end="url(#financial-transaction)" d="M36.396594480802946,364.1706511317321A359.98445750788153,359.98445750788153 0 0,1 378.7516288748609,252.89693423377292"/><path class="link financial-transaction" marker-end="url(#financial-transaction)" d="M36.396594480802946,364.1706511317321A545.9313346468306,545.9313346468306 0 0,1 529.6857435850198,130.27572274441678"/><path class="link financial-transaction" marker-end="url(#financial-transaction)" d="M36.396594480802946,364.1706511317321A813.7555180371396,813.7555180371396 0 0,1 806.1179569954058,628.2294840166721"/><path class="link financial-transaction" marker-end="url(#financial-transaction)" d="M36.396594480802946,364.1706511317321A332.5284490618577,332.5284490618577 0 0,1 320.21298314250146,537.4433465067282"/><path class="link financial-transaction" marker-end="url(#financial-transaction)" d="M36.396594480802946,364.1706511317321A336.12521193232493,336.12521193232493 0 0,1 360.3153961794558,453.9301520364228"/><path class="link financial-transaction" marker-end="url(#financial-transaction)" d="M36.396594480802946,364.1706511317321A307.3764817272036,307.3764817272036 0 0,1 268.3543570553794,565.8533174677124"/><path class="link financial-transaction" marker-end="url(#financial-transaction)" d="M36.396594480802946,364.1706511317321A180.84671346527244,180.84671346527244 0 0,1 198.033429313961,283.05920066813394"/><path class="link financial-transaction" marker-end="url(#financial-transaction)" d="M36.396594480802946,364.1706511317321A422.1749251874517,422.1749251874517 0 0,1 407.87913145400967,564.7507901808926"/><path class="link financial-transaction" marker-end="url(#financial-transaction)" d="M36.396594480802946,364.1706511317321A428.14790581681206,428.14790581681206 0 0,1 427.78547404131723,190.60402354541583"/><path class="link financial-transaction" marker-end="url(#financial-transaction)" d="M36.396594480802946,364.1706511317321A256.18767732598593,256.18767732598593 0 0,1 288.91484576390025,320.96580438266926"/><path class="link financial-transaction" marker-end="url(#financial-transaction)" d="M36.396594480802946,364.1706511317321A193.45548130220038,193.45548130220038 0 0,1 126.05240218508737,535.5966100491562"/><path class="link financial-transaction" marker-end="url(#financial-transaction)" d="M36.396594480802946,364.1706511317321A750.10093813612,750.10093813612 0 0,1 710.6413952326278,692.873200637846"/><path class="link financial-transaction" marker-end="url(#financial-transaction)" d="M36.396594480802946,364.1706511317321A243.5343593242199,243.5343593242199 0 0,1 138.28108756390964,142.97269851766146"/><path class="link financial-transaction" marker-end="url(#financial-transaction)" d="M36.396594480802946,364.1706511317321A584.4521568948583,584.4521568948583 0 0,1 613.9169588271407,453.9178096623808"/><path class="link financial-transaction" marker-end="url(#financial-transaction)" d="M36.396594480802946,364.1706511317321A492.31251729006544,492.31251729006544 0 0,1 422.3477562887524,58.53473148292022"/><path class="link financial-transaction" marker-end="url(#financial-transaction)" d="M36.396594480802946,364.1706511317321A611.5048237910426,611.5048237910426 0 0,1 544.6750181553936,704.1577002182928"/><path class="link financial-transaction" marker-end="url(#financial-transaction)" d="M36.396594480802946,364.1706511317321A511.3194372624865,511.3194372624865 0 0,1 527.6605668709194,505.97077931894034"/><path class="link financial-transaction" marker-end="url(#financial-transaction)" d="M36.396594480802946,364.1706511317321A384.6351494945177,384.6351494945177 0 0,1 298.0609285075242,82.25581554299899"/><path class="link financial-transaction" marker-end="url(#financial-transaction)" d="M36.396594480802946,364.1706511317321A722.2734684120193,722.2734684120193 0 0,1 714.2961895227407,613.431763650121"/><path class="link financial-transaction" marker-end="url(#financial-transaction)" d="M36.396594480802946,364.1706511317321A308.1392644425615,308.1392644425615 0 0,1 189.93962583287316,631.330423205336"/><path class="link financial-transaction" marker-end="url(#financial-transaction)" d="M36.396594480802946,364.1706511317321A328.99667624890907,328.99667624890907 0 0,1 282.62230270199194,145.96956590573373"/><path class="link financial-transaction" marker-end="url(#financial-transaction)" d="M36.396594480802946,364.1706511317321A291.3736497629156,291.3736497629156 0 0,1 209.19308348443008,129.56464702232833"/><path class="link financial-transaction" marker-end="url(#financial-transaction)" d="M36.396594480802946,364.1706511317321A233.17258032237385,233.17258032237385 0 0,1 196.06229973065814,194.24032781873348"/><path class="link financial-transaction" marker-end="url(#financial-transaction)" d="M36.396594480802946,364.1706511317321A414.7896987210736,414.7896987210736 0 0,1 365.2520078283538,111.37703713578779"/><path class="link action" marker-end="url(#action)" d="M77.03327317437277,654.0994816855266A128.24120084838242,128.24120084838242 0 0,1 126.05240218508737,535.5966100491562"/><path class="link action" marker-end="url(#action)" d="M287.6551007943519,672.8958633939899A108.76867815348643,108.76867815348643 0 0,1 268.3543570553794,565.8533174677124"/><path class="link action" marker-end="url(#action)" d="M47.68466206868979,78.42294255675317A111.24020544355236,111.24020544355236 0 0,1 138.28108756390964,142.97269851766146"/><path class="link action" marker-end="url(#action)" d="M146.69775223416144,40.3011056685981A103.01599983660452,103.01599983660452 0 0,1 138.28108756390964,142.97269851766146"/><path class="link action" marker-end="url(#action)" d="M146.69775223416144,40.3011056685981A157.07007611956593,157.07007611956593 0 0,1 298.0609285075242,82.25581554299899"/><path class="link action" marker-end="url(#action)" d="M146.69775223416144,40.3011056685981A172.16650925417787,172.16650925417787 0 0,1 282.62230270199194,145.96956590573373"/><path class="link action" marker-end="url(#action)" d="M146.69775223416144,40.3011056685981A108.96626194877895,108.96626194877895 0 0,1 209.19308348443008,129.56464702232833"/><path class="link action" marker-end="url(#action)" d="M146.69775223416144,40.3011056685981A161.66057857660476,161.66057857660476 0 0,1 196.06229973065814,194.24032781873348"/><path class="link action" marker-end="url(#action)" d="M146.69775223416144,40.3011056685981A229.8211275584997,229.8211275584997 0 0,1 365.2520078283538,111.37703713578779"/><path class="link action" marker-end="url(#action)" d="M199.90791503424668,717.5153426546318A86.75947861809578,86.75947861809578 0 0,1 189.93962583287316,631.330423205336"/><path class="link action" marker-end="url(#action)" d="M339.91144801258525,18.116929453561053A96.64156278060216,96.64156278060216 0 0,1 365.2520078283538,111.37703713578779"/><path class="link action" marker-end="url(#action)" d="M1339.6928644609156,255.1447108170156A100.5658096952354,100.5658096952354 0 0,1 1273.584267926441,330.92818885741934"/></g><g><g class="node person" transform="translate(36.396594480802946,364.1706511317321)"><circle r="30"/><text text-anchor="middle" dy="0.3" transform="translate(0, 0)"><tspan x="0" dy="0.3em">You</tspan></text></g><g class="node person" transform="translate(1273.584267926441,330.92818885741934)"><circle r="30"/><text text-anchor="middle" dy="0.3" transform="translate(0, -7)"><tspan x="0" dy="0.3em">Donald</tspan><tspan x="0" dy="1.4000000000000001em">Trump</tspan></text></g><g class="node person" transform="translate(1039.2258876464812,347.31902651110454)"><circle r="30"/><text text-anchor="middle" dy="0.3" transform="translate(0, 0)"><tspan x="0" dy="0.3em">Peter Thiel</tspan></text></g><g class="node person" transform="translate(997.6022378034784,175.7503335699629)"><circle r="30"/><text text-anchor="middle" dy="0.3" transform="translate(0, -7)"><tspan x="0" dy="0.3em">Jared</tspan><tspan x="0" dy="1.4000000000000001em">Kushner</tspan></text></g><g class="node person" transform="translate(1035.8200103662853,266.43322094028804)"><circle r="30"/><text text-anchor="middle" dy="0.3" transform="translate(0, -7)"><tspan x="0" dy="0.3em">Joshua</tspan><tspan x="0" dy="1.4000000000000001em">Kushner</tspan></text></g><g class="node person" transform="translate(1209.7813813014366,159.04655389177162)"><circle r="30"/><text text-anchor="middle" dy="0.3" transform="translate(0, -7)"><tspan x="0" dy="0.3em">Stephen</tspan><tspan x="0" dy="1.4000000000000001em">Bannon</tspan></text></g><g class="node organization" transform="translate(754.5215921920842,135.46510173008664)"><circle r="30"/><text text-anchor="middle" dy="0.3" transform="translate(0, -7)"><tspan x="0" dy="0.3em">Thrive</tspan><tspan x="0" dy="1.4000000000000001em">Capital</tspan></text></g><g class="node organization" transform="translate(248.44214132071818,414.01116937657724)"><circle r="30"/><text text-anchor="middle" dy="0.3" transform="translate(0, 0)"><tspan x="0" dy="0.3em">Facebook</tspan></text></g><g class="node organization" transform="translate(702.5527675944469,247.89608014222767)"><circle r="30"/><text text-anchor="middle" dy="0.3" transform="translate(0, -7)"><tspan x="0" dy="0.3em">Y</tspan><tspan x="0" dy="1.4000000000000001em">Combinator</tspan></text></g><g class="node organization" transform="translate(378.7516288748609,252.89693423377292)"><circle r="30"/><text text-anchor="middle" dy="0.3" transform="translate(0, 0)"><tspan x="0" dy="0.3em">Kickstarter</tspan></text></g><g class="node organization" transform="translate(529.6857435850198,130.27572274441678)"><circle r="30"/><text text-anchor="middle" dy="0.3" transform="translate(0, 0)"><tspan x="0" dy="0.3em">Etsy</tspan></text></g><g class="node organization" transform="translate(795.9657617825405,77.67692455303091)"><circle r="30"/><text text-anchor="middle" dy="0.3" transform="translate(0, -7)"><tspan x="0" dy="0.3em">Kushner</tspan><tspan x="0" dy="1.4000000000000001em">Properties</tspan></text></g><g class="node person" transform="translate(1038.9346914288183,513.9466182937226)"><circle r="30"/><text text-anchor="middle" dy="0.3" transform="translate(0, 0)"><tspan x="0" dy="0.3em">Elon Musk</tspan></text></g><g class="node organization" transform="translate(873.3834629769503,458.1800181252628)"><circle r="30"/><text text-anchor="middle" dy="0.3" transform="translate(0, 0)"><tspan x="0" dy="0.3em">SpaceX</tspan></text></g><g class="node organization" transform="translate(806.1179569954058,628.2294840166721)"><circle r="30"/><text text-anchor="middle" dy="0.3" transform="translate(0, 0)"><tspan x="0" dy="0.3em">IRS</tspan></text></g><g class="node organization" transform="translate(979.206326596129,451.0804856675545)"><circle r="30"/><text text-anchor="middle" dy="0.3" transform="translate(0, 0)"><tspan x="0" dy="0.3em">Palantir</tspan></text></g><g class="node organization" transform="translate(810.8415025203974,380.3383718600248)"><circle r="30"/><text text-anchor="middle" dy="0.3" transform="translate(0, 0)"><tspan x="0" dy="0.3em">FBI</tspan></text></g><g class="node organization" transform="translate(639.0160136255531,135.59792835500934)"><circle r="30"/><text text-anchor="middle" dy="0.3" transform="translate(0, -7)"><tspan x="0" dy="0.3em">Founders</tspan><tspan x="0" dy="1.4000000000000001em">Fund</tspan></text></g><g class="node organization" transform="translate(320.21298314250146,537.4433465067282)"><circle r="30"/><text text-anchor="middle" dy="0.3" transform="translate(0, 0)"><tspan x="0" dy="0.3em">Airbnb</tspan></text></g><g class="node organization" transform="translate(360.3153961794558,453.9301520364228)"><circle r="30"/><text text-anchor="middle" dy="0.3" transform="translate(0, 0)"><tspan x="0" dy="0.3em">Spotify</tspan></text></g><g class="node organization" transform="translate(384.7439760470978,675.8509424730871)"><circle r="30"/><text text-anchor="middle" dy="0.3" transform="translate(0, 0)"><tspan x="0" dy="0.3em">Stripe</tspan></text></g><g class="node organization" transform="translate(268.3543570553794,565.8533174677124)"><circle r="30"/><text text-anchor="middle" dy="0.3" transform="translate(0, 0)"><tspan x="0" dy="0.3em">Shopify</tspan></text></g><g class="node organization" transform="translate(752.558779488946,542.041356221071)"><circle r="30"/><text text-anchor="middle" dy="0.3" transform="translate(0, 0)"><tspan x="0" dy="0.3em">Breitbart</tspan></text></g><g class="node organization" transform="translate(198.033429313961,283.05920066813394)"><circle r="30"/><text text-anchor="middle" dy="0.3" transform="translate(0, 0)"><tspan x="0" dy="0.3em">Google</tspan></text></g><g class="node organization" transform="translate(407.87913145400967,564.7507901808926)"><circle r="30"/><text text-anchor="middle" dy="0.3" transform="translate(0, 0)"><tspan x="0" dy="0.3em">Tesla</tspan></text></g><g class="node organization" transform="translate(427.78547404131723,190.60402354541583)"><circle r="30"/><text text-anchor="middle" dy="0.3" transform="translate(0, -7)"><tspan x="0" dy="0.3em">Oscar</tspan><tspan x="0" dy="1.4000000000000001em">Health</tspan></text></g><g class="node organization" transform="translate(288.91484576390025,320.96580438266926)"><circle r="30"/><text text-anchor="middle" dy="0.3" transform="translate(0, 0)"><tspan x="0" dy="0.3em">Instagram</tspan></text></g><g class="node organization" transform="translate(367.1279961763711,350.61868963562796)"><circle r="30"/><text text-anchor="middle" dy="0.3" transform="translate(0, 0)"><tspan x="0" dy="0.3em">Hot Potato</tspan></text></g><g class="node organization" transform="translate(714.2961895227407,613.431763650121)"><circle r="30"/><text text-anchor="middle" dy="0.3" transform="translate(0, 0)"><tspan x="0" dy="0.3em">News Corp</tspan></text></g><g class="node organization" transform="translate(625.1468429038888,569.1175264063279)"><circle r="30"/><text text-anchor="middle" dy="0.3" transform="translate(0, 0)"><tspan x="0" dy="0.3em">AppNexus</tspan></text></g><g class="node person" transform="translate(1029.980539838138,700.632165950906)"><circle r="30"/><text text-anchor="middle" dy="0.3" transform="translate(0, -7)"><tspan x="0" dy="0.3em">Rupert</tspan><tspan x="0" dy="1.4000000000000001em">Murdoch</tspan></text></g><g class="node person" transform="translate(1138.264454121276,696.5836007443509)"><circle r="30"/><text text-anchor="middle" dy="0.3" transform="translate(0, -7)"><tspan x="0" dy="0.3em">Elaine</tspan><tspan x="0" dy="1.4000000000000001em">Chao</tspan></text></g><g class="node person" transform="translate(917.7641319182708,539.4256624069569)"><circle r="30"/><text text-anchor="middle" dy="0.3" transform="translate(0, -7)"><tspan x="0" dy="0.3em">Travis</tspan><tspan x="0" dy="1.4000000000000001em">Kalanick</tspan></text></g><g class="node organization" transform="translate(126.05240218508737,535.5966100491562)"><circle r="30"/><text text-anchor="middle" dy="0.3" transform="translate(0, 0)"><tspan x="0" dy="0.3em">Uber</tspan></text></g><g class="node organization" transform="translate(710.6413952326278,692.873200637846)"><circle r="30"/><text text-anchor="middle" dy="0.3" transform="translate(0, -14)"><tspan x="0" dy="0.3em">21st</tspan><tspan x="0" dy="1.4000000000000001em">Century</tspan><tspan x="0" dy="1.4000000000000001em">Fox</tspan></text></g><g class="node organization" transform="translate(138.28108756390964,142.97269851766146)"><circle r="30"/><text text-anchor="middle" dy="0.3" transform="translate(0, 0)"><tspan x="0" dy="0.3em">Amazon</tspan></text></g><g class="node person" transform="translate(1054.4006369636206,586.9357126967068)"><circle r="30"/><text text-anchor="middle" dy="0.3" transform="translate(0, -7)"><tspan x="0" dy="0.3em">Indra</tspan><tspan x="0" dy="1.4000000000000001em">Nooyi</tspan></text></g><g class="node organization" transform="translate(613.9169588271407,453.9178096623808)"><circle r="30"/><text text-anchor="middle" dy="0.3" transform="translate(0, 0)"><tspan x="0" dy="0.3em">PepsiCo</tspan></text></g><g class="node person" transform="translate(1237.2385161609864,690.9854405615474)"><circle r="30"/><text text-anchor="middle" dy="0.3" transform="translate(0, -7)"><tspan x="0" dy="0.3em">Doug</tspan><tspan x="0" dy="1.4000000000000001em">McMillon</tspan></text></g><g class="node organization" transform="translate(422.3477562887524,58.53473148292022)"><circle r="30"/><text text-anchor="middle" dy="0.3" transform="translate(0, 0)"><tspan x="0" dy="0.3em">Walmart</tspan></text></g><g class="node person" transform="translate(1193.3978379923162,627.9607815887065)"><circle r="30"/><text text-anchor="middle" dy="0.3" transform="translate(0, -7)"><tspan x="0" dy="0.3em">Ginni</tspan><tspan x="0" dy="1.4000000000000001em">Rometty</tspan></text></g><g class="node organization" transform="translate(544.6750181553936,704.1577002182928)"><circle r="30"/><text text-anchor="middle" dy="0.3" transform="translate(0, 0)"><tspan x="0" dy="0.3em">IBM</tspan></text></g><g class="node person" transform="translate(1122.84179973907,617.7126659794285)"><circle r="30"/><text text-anchor="middle" dy="0.3" transform="translate(0, -7)"><tspan x="0" dy="0.3em">Mary</tspan><tspan x="0" dy="1.4000000000000001em">Barra</tspan></text></g><g class="node organization" transform="translate(527.6605668709194,505.97077931894034)"><circle r="30"/><text text-anchor="middle" dy="0.3" transform="translate(0, -7)"><tspan x="0" dy="0.3em">General</tspan><tspan x="0" dy="1.4000000000000001em">Motors</tspan></text></g><g class="node person" transform="translate(1033.4372273356344,100.30084950698168)"><circle r="30"/><text text-anchor="middle" dy="0.3" transform="translate(0, -7)"><tspan x="0" dy="0.3em">Ivanka</tspan><tspan x="0" dy="1.4000000000000001em">Trump</tspan></text></g><g class="node organization" transform="translate(298.0609285075242,82.25581554299899)"><circle r="30"/><text text-anchor="middle" dy="0.3" transform="translate(0, 0)"><tspan x="0" dy="0.3em">Nordstrom</tspan></text></g><g class="node action" transform="translate(77.03327317437277,654.0994816855266)"><circle r="30"/><text text-anchor="middle" dy="0.3" transform="translate(0, 0)"><tspan x="0" dy="0.3em">#DeleteUber</tspan></text></g><g class="node action" transform="translate(287.6551007943519,672.8958633939899)"><circle r="30"/><text text-anchor="middle" dy="0.3" transform="translate(0, 0)"><tspan x="0" dy="0.3em">#DeleteShopify</tspan></text></g><g class="node action" transform="translate(47.68466206868979,78.42294255675317)"><circle r="30"/><text text-anchor="middle" dy="0.3" transform="translate(0, 0)"><tspan x="0" dy="0.3em">#DeleteAmazon</tspan></text></g><g class="node action" transform="translate(146.69775223416144,40.3011056685981)"><circle r="30"/><text text-anchor="middle" dy="0.3" transform="translate(0, 0)"><tspan x="0" dy="0.3em">#GrabYourWallet</tspan></text></g><g class="node action" transform="translate(199.90791503424668,717.5153426546318)"><circle r="30"/><text text-anchor="middle" dy="0.3" transform="translate(0, 0)"><tspan x="0" dy="0.3em">#DeleteLyft</tspan></text></g><g class="node action" transform="translate(339.91144801258525,18.116929453561053)"><circle r="30"/><text text-anchor="middle" dy="0.3" transform="translate(0, 0)"><tspan x="0" dy="0.3em">#Baycott</tspan></text></g><g class="node action" transform="translate(1339.6928644609156,255.1447108170156)"><circle r="30"/><text text-anchor="middle" dy="0.3" transform="translate(0, 0)"><tspan x="0" dy="0.3em">#Resist</tspan></text></g><g class="node person" transform="translate(933.4139041986621,675.2031626422322)"><circle r="30"/><text text-anchor="middle" dy="0.3" transform="translate(0, 0)"><tspan x="0" dy="0.3em">Carl Icahn</tspan></text></g><g class="node organization" transform="translate(824.5154784392835,709.291469383269)"><circle r="30"/><text text-anchor="middle" dy="0.3" transform="translate(0, -7)"><tspan x="0" dy="0.3em">Icahn</tspan><tspan x="0" dy="1.4000000000000001em">Enterprises</tspan></text></g><g class="node organization" transform="translate(189.93962583287316,631.330423205336)"><circle r="30"/><text text-anchor="middle" dy="0.3" transform="translate(0, 0)"><tspan x="0" dy="0.3em">Lyft</tspan></text></g><g class="node organization" transform="translate(196.06229973065814,194.24032781873348)"><circle r="30"/><text text-anchor="middle" dy="0.3" transform="translate(0, 0)"><tspan x="0" dy="0.3em">Bloomingdale's</tspan></text></g><g class="node organization" transform="translate(365.2520078283538,111.37703713578779)"><circle r="30"/><text text-anchor="middle" dy="0.3" transform="translate(0, -7)"><tspan x="0" dy="0.3em">Hudson's</tspan><tspan x="0" dy="1.4000000000000001em">Bay</tspan></text></g><g class="node organization" transform="translate(209.19308348443008,129.56464702232833)"><circle r="30"/><text text-anchor="middle" dy="0.3" transform="translate(0, 0)"><tspan x="0" dy="0.3em">Zappos</tspan></text></g><g class="node organization" transform="translate(282.62230270199194,145.96956590573373)"><circle r="30"/><text text-anchor="middle" dy="0.3" transform="translate(0, 0)"><tspan x="0" dy="0.3em">Macy's</tspan></text></g></g></svg></svg>