<svg width="925" height="734"><defs><marker id="assocation" viewBox="0 -5 10 10" refX="60" refY="-4" markerWidth="6" markerHeight="6" orient="auto"><path d="M0,-5L10,0L0,5"></path></marker><marker id="influence-control" viewBox="0 -5 10 10" refX="60" refY="-4" markerWidth="6" markerHeight="6" orient="auto"><path d="M0,-5L10,0L0,5"></path></marker><marker id="financial-transaction" viewBox="0 -5 10 10" refX="60" refY="-4" markerWidth="6" markerHeight="6" orient="auto"><path d="M0,-5L10,0L0,5"></path></marker></defs><g><path class="link assocation" marker-end="url(#assocation)" d="M612.710506845155,450.3260467377478A322.58184467006595,322.58184467006595 0 0,1 300.35590050249345,530.9092112776409"></path><path class="link assocation" marker-end="url(#assocation)" d="M612.710506845155,450.3260467377478A359.4621134976644,359.4621134976644 0 0,1 457.03207820152545,126.3241364111911"></path><path class="link assocation" marker-end="url(#assocation)" d="M612.710506845155,450.3260467377478A355.3868539760514,355.3868539760514 0 0,1 423.314483804529,149.61195921375113"></path><path class="link assocation" marker-end="url(#assocation)" d="M612.710506845155,450.3260467377478A300.5255847124516,300.5255847124516 0 0,1 574.8983158964961,748.4633729524019"></path><path class="link assocation" marker-end="url(#assocation)" d="M457.03207820152545,126.3241364111911A277.35001645019827,277.35001645019827 0 0,1 322.6860915616741,368.9641732944106"></path><path class="link influence-control" marker-end="url(#influence-control)" d="M322.6860915616741,368.9641732944106A263.4902970862348,263.4902970862348 0 0,1 86.11301362162322,252.9455736969198"></path><path class="link influence-control" marker-end="url(#influence-control)" d="M322.6860915616741,368.9641732944106A325.09825543905134,325.09825543905134 0 0,1 277.23801729051746,47.058366831466984"></path><path class="link financial-transaction" marker-end="url(#financial-transaction)" d="M86.11301362162322,252.9455736969198A280.9240270576595,280.9240270576595 0 0,1 277.23801729051746,47.058366831466984"></path><path class="link financial-transaction" marker-end="url(#financial-transaction)" d="M457.03207820152545,126.3241364111911A391.9361438412301,391.9361438412301 0 0,1 86.11301362162322,252.9455736969198"></path><path class="link financial-transaction" marker-end="url(#financial-transaction)" d="M322.6860915616741,368.9641732944106A343.6944620644407,343.6944620644407 0 0,1 666.3592525189222,365.1377269771677"></path><path class="link financial-transaction" marker-end="url(#financial-transaction)" d="M457.03207820152545,126.3241364111911A317.5685704642695,317.5685704642695 0 0,1 666.3592525189222,365.1377269771677"></path><path class="link financial-transaction" marker-end="url(#financial-transaction)" d="M626.7112778511744,97.04254797978933A288.0687709194694,288.0687709194694 0 0,1 547.9579980738653,-180.05226919182545"></path><path class="link influence-control" marker-end="url(#influence-control)" d="M457.03207820152545,126.3241364111911A319.58414355980693,319.58414355980693 0 0,1 547.9579980738653,-180.05226919182545"></path><path class="link financial-transaction" marker-end="url(#financial-transaction)" d="M300.35590050249345,530.9092112776409A350.9470022612471,350.9470022612471 0 0,1 86.11301362162322,252.9455736969198"></path><path class="link assocation" marker-end="url(#assocation)" d="M300.35590050249345,530.9092112776409A350.29038113025763,350.29038113025763 0 0,1 574.8983158964961,748.4633729524019"></path><path class="link influence-control" marker-end="url(#influence-control)" d="M574.8983158964961,748.4633729524019A277.0222909503484,277.0222909503484 0 0,1 302.7248607350504,696.8594972369094"></path><path class="link influence-control" marker-end="url(#influence-control)" d="M574.8983158964961,748.4633729524019A279.9794426040006,279.9794426040006 0 0,1 377.9491393779621,549.4671163305292"></path><path class="link financial-transaction" marker-end="url(#financial-transaction)" d="M282.5307589200951,225.41534916803425A337.80795599029057,337.80795599029057 0 0,1 377.9491393779621,549.4671163305292"></path><path class="link financial-transaction" marker-end="url(#financial-transaction)" d="M300.35590050249345,530.9092112776409A293.1182411939183,293.1182411939183 0 0,1 120.16454989088301,299.71799067145145"></path><path class="link influence-control" marker-end="url(#influence-control)" d="M300.35590050249345,530.9092112776409A321.27097204588165,321.27097204588165 0 0,1 -14.52331779947263,467.14311244096723"></path><path class="link influence-control" marker-end="url(#influence-control)" d="M300.35590050249345,530.9092112776409A331.6376789446414,331.6376789446414 0 0,1 135.32041275817502,243.25171027899856"></path><path class="link financial-transaction" marker-end="url(#financial-transaction)" d="M195.81746471977343,-70.24391717796755A319.27950408800314,319.27950408800314 0 0,1 135.32041275817502,243.25171027899856"></path><path class="link financial-transaction" marker-end="url(#financial-transaction)" d="M282.5307589200951,225.41534916803425A308.11296169964606,308.11296169964606 0 0,1 195.81746471977343,-70.24391717796755"></path><path class="link influence-control" marker-end="url(#influence-control)" d="M300.35590050249345,530.9092112776409A305.60442762456313,305.60442762456313 0 0,1 439.93278618258654,259.0409358801921"></path><path class="link financial-transaction" marker-end="url(#financial-transaction)" d="M439.93278618258654,259.0409358801921A296.9784799707279,296.9784799707279 0 0,1 152.05192286016648,186.09694299207192"></path><path class="link financial-transaction" marker-end="url(#financial-transaction)" d="M-14.52331779947263,467.14311244096723A326.70209696712055,326.70209696712055 0 0,1 152.05192286016648,186.09694299207192"></path><path class="link financial-transaction" marker-end="url(#financial-transaction)" d="M-14.52331779947263,467.14311244096723A307.98506743042043,307.98506743042043 0 0,1 293.38868098638545,473.8515223731599"></path><path class="link financial-transaction" marker-end="url(#financial-transaction)" d="M439.93278618258654,259.0409358801921A267.2193806694067,267.2193806694067 0 0,1 277.23801729051746,47.058366831466984"></path><path class="link financial-transaction" marker-end="url(#financial-transaction)" d="M439.93278618258654,259.0409358801921A322.34507554420287,322.34507554420287 0 0,1 120.16454989088301,299.71799067145145"></path><path class="link financial-transaction" marker-end="url(#financial-transaction)" d="M439.93278618258654,259.0409358801921A296.9668984283807,296.9668984283807 0 0,1 377.9491393779621,549.4671163305292"></path><path class="link financial-transaction" marker-end="url(#financial-transaction)" d="M439.93278618258654,259.0409358801921A305.02130694156193,305.02130694156193 0 0,1 135.32041275817502,243.25171027899856"></path><path class="link financial-transaction" marker-end="url(#financial-transaction)" d="M439.93278618258654,259.0409358801921A364.11229287887033,364.11229287887033 0 0,1 222.2257706655771,550.8994927535256"></path><path class="link financial-bidirectional" marker-end="url(#financial-bidirectional)" d="M222.2257706655771,550.8994927535256A271.12476790995663,271.12476790995663 0 0,1 120.16454989088301,299.71799067145145"></path><path class="link financial-transaction" marker-end="url(#financial-transaction)" d="M439.93278618258654,259.0409358801921A260.03607987586656,260.03607987586656 0 0,1 293.38868098638545,473.8515223731599"></path><path class="link financial-bidirectional" marker-end="url(#financial-bidirectional)" d="M293.38868098638545,473.8515223731599A388.49161707649336,388.49161707649336 0 0,1 666.3592525189222,365.1377269771677"></path><path class="link financial-bidirectional" marker-end="url(#financial-bidirectional)" d="M293.38868098638545,473.8515223731599A325.6506476154721,325.6506476154721 0 0,1 251.48589718995805,150.90802731173858"></path><path class="link financial-bidirectional" marker-end="url(#financial-bidirectional)" d="M251.48589718995805,150.90802731173858A350.3552254527581,350.3552254527581 0 0,1 518.6334944370647,377.58168102374515"></path><path class="link financial-bidirectional" marker-end="url(#financial-bidirectional)" d="M172.0733512739914,454.47612692374463A354.98829366540775,354.98829366540775 0 0,1 518.6334944370647,377.58168102374515"></path><path class="link influence-control" marker-end="url(#influence-control)" d="M423.314483804529,149.61195921375113A247.09493691715235,247.09493691715235 0 0,1 518.6334944370647,377.58168102374515"></path><path class="link financial-transaction" marker-end="url(#financial-transaction)" d="M86.11301362162322,252.9455736969198A302.92348941945255,302.92348941945255 0 0,1 293.38868098638545,473.8515223731599"></path><path class="link financial-transaction" marker-end="url(#financial-transaction)" d="M86.11301362162322,252.9455736969198A306.4504461065438,306.4504461065438 0 0,1 329.23327518352625,66.38616134532721"></path><path class="link financial-transaction" marker-end="url(#financial-transaction)" d="M120.16454989088301,299.71799067145145A313.29454906232615,313.29454906232615 0 0,1 329.23327518352625,66.38616134532721"></path><path class="link financial-transaction" marker-end="url(#financial-transaction)" d="M86.11301362162322,252.9455736969198A327.9993310122361,327.9993310122361 0 0,1 361.8933402988713,430.50900619996867"></path><path class="link financial-transaction" marker-end="url(#financial-transaction)" d="M457.03207820152545,126.3241364111911A318.7158835987399,318.7158835987399 0 0,1 361.8933402988713,430.50900619996867"></path><path class="link financial-transaction" marker-end="url(#financial-transaction)" d="M120.16454989088301,299.71799067145145A274.84376990408566,274.84376990408566 0 0,1 361.8933402988713,430.50900619996867"></path><path class="link financial-transaction" marker-end="url(#financial-transaction)" d="M758.5314150700142,431.0615361460361A309.89069050275293,309.89069050275293 0 0,1 732.502246013189,122.26593640652517"></path><path class="link financial-bidirectional" marker-end="url(#financial-bidirectional)" d="M732.502246013189,122.26593640652517A333.05550941273367,333.05550941273367 0 0,1 518.6334944370647,377.58168102374515"></path><path class="link influence-control" marker-end="url(#influence-control)" d="M814.8609193165183,167.99091677700633A269.0337596359643,269.0337596359643 0 0,1 758.5314150700142,431.0615361460361"></path><path class="link influence-control" marker-end="url(#influence-control)" d="M828.5826203112345,704.7010005369101A282.463675236077,282.463675236077 0 0,1 758.5314150700142,431.0615361460361"></path><path class="link assocation" marker-end="url(#assocation)" d="M612.710506845155,450.3260467377478A333.6276165017486,333.6276165017486 0 0,1 828.5826203112345,704.7010005369101"></path><path class="link assocation" marker-end="url(#assocation)" d="M612.710506845155,450.3260467377478A347.24330788697876,347.24330788697876 0 0,1 814.8609193165183,167.99091677700633"></path><path class="link assocation" marker-end="url(#assocation)" d="M612.710506845155,450.3260467377478A321.01272914174285,321.01272914174285 0 0,1 905.2689961436214,582.4574306343418"></path><path class="link influence-control" marker-end="url(#influence-control)" d="M905.2689961436214,582.4574306343418A306.6405717443395,306.6405717443395 0 0,1 764.5037489069285,310.03572553342997"></path><path class="link influence-control" marker-end="url(#influence-control)" d="M814.8609193165183,167.99091677700633A313.7282321232904,313.7282321232904 0 0,1 531.3719263791263,33.60567013680223"></path><path class="link financial-bidirectional" marker-end="url(#financial-bidirectional)" d="M528.3545131004809,79.85181027989927A297.8885263601162,297.8885263601162 0 0,1 518.6334944370647,377.58168102374515"></path><path class="link assocation" marker-end="url(#assocation)" d="M612.710506845155,450.3260467377478A331.4222322118518,331.4222322118518 0 0,1 460.6106119828114,744.785412333666"></path><path class="link influence-control" marker-end="url(#influence-control)" d="M460.6106119828114,744.785412333666A320.36492502047514,320.36492502047514 0 0,1 176.59774372250726,596.5613392350975"></path><path class="link assocation" marker-end="url(#assocation)" d="M612.710506845155,450.3260467377478A345.50566776868203,345.50566776868203 0 0,1 553.8596599688034,790.7827169356146"></path><path class="link influence-control" marker-end="url(#influence-control)" d="M553.8596599688034,790.7827169356146A299.7753877199629,299.7753877199629 0 0,1 286.02984900757156,656.1258365205207"></path><path class="link assocation" marker-end="url(#assocation)" d="M612.710506845155,450.3260467377478A349.5427208997404,349.5427208997404 0 0,1 662.9509789591585,796.239343238122"></path><path class="link influence-control" marker-end="url(#influence-control)" d="M662.9509789591585,796.239343238122A263.821032307114,263.821032307114 0 0,1 706.884429845813,536.1020929628468"></path><path class="link assocation" marker-end="url(#assocation)" d="M612.710506845155,450.3260467377478A343.1087221468794,343.1087221468794 0 0,1 743.1186799046136,767.6859427746585"></path><path class="link influence-control" marker-end="url(#influence-control)" d="M743.1186799046136,767.6859427746585A269.2159707331732,269.2159707331732 0 0,1 747.1727557236463,498.5004985785462"></path><path class="link assocation" marker-end="url(#assocation)" d="M612.710506845155,450.3260467377478A265.5426865416598,265.5426865416598 0 0,1 362.4352559560648,361.58362639569754"></path><path class="link assocation" marker-end="url(#assocation)" d="M457.03207820152545,126.3241364111911A253.56574375634688,253.56574375634688 0 0,1 362.4352559560648,361.58362639569754"></path><path class="link financial-transaction" marker-end="url(#financial-transaction)" d="M576.508642947155,639.1689419849117A350.54389518090414,350.54389518090414 0 0,1 362.4352559560648,361.58362639569754"></path><path class="link financial-transaction" marker-end="url(#financial-transaction)" d="M528.3545131004809,79.85181027989927A326.9587376157133,326.9587376157133 0 0,1 362.4352559560648,361.58362639569754"></path><path class="link financial-transaction" marker-end="url(#financial-transaction)" d="M286.02984900757156,656.1258365205207A304.29081444595124,304.29081444595124 0 0,1 362.4352559560648,361.58362639569754"></path><path class="link financial-transaction" marker-end="url(#financial-transaction)" d="M226.8389088479528,636.1457404037747A306.2200577977346,306.2200577977346 0 0,1 362.4352559560648,361.58362639569754"></path><path class="link financial-transaction" marker-end="url(#financial-transaction)" d="M388.47602361725285,689.6025781730386A329.0509904338378,329.0509904338378 0 0,1 362.4352559560648,361.58362639569754"></path><path class="link financial-transaction" marker-end="url(#financial-transaction)" d="M636.8016900804677,175.6434389183706A331.4373145758392,331.4373145758392 0 0,1 362.4352559560648,361.58362639569754"></path><path class="link financial-transaction" marker-end="url(#financial-transaction)" d="M107.65498583986701,461.2987368006038A273.5984087737817,273.5984087737817 0 0,1 362.4352559560648,361.58362639569754"></path><path class="link financial-transaction" marker-end="url(#financial-transaction)" d="M282.5307589200951,225.41534916803425A399.5040523213141,399.5040523213141 0 0,1 612.710506845155,450.3260467377478"></path><path class="link assocation" marker-end="url(#assocation)" d="M612.710506845155,450.3260467377478A328.9235913385325,328.9235913385325 0 0,1 940.7467440042802,426.1815639410487"></path><path class="link influence-control" marker-end="url(#influence-control)" d="M940.7467440042802,426.1815639410487A321.6296995840596,321.6296995840596 0 0,1 1012.8401250362558,112.73586199905232"></path><path class="link financial-transaction" marker-end="url(#financial-transaction)" d="M1012.8401250362558,112.73586199905232A299.26620540472254,299.26620540472254 0 0,1 731.7470739453167,215.4342472138564"></path><path class="link financial-transaction" marker-end="url(#financial-transaction)" d="M439.93278618258654,259.0409358801921A295.0544387717498,295.0544387717498 0 0,1 731.7470739453167,215.4342472138564"></path><path class="link financial-transaction" marker-end="url(#financial-transaction)" d="M747.1727557236463,498.5004985785462A283.4862506718519,283.4862506718519 0 0,1 731.7470739453167,215.4342472138564"></path><path class="link financial-transaction" marker-end="url(#financial-transaction)" d="M442.00942557864846,365.34277098344296A328.4672522451369,328.4672522451369 0 0,1 120.16454989088301,299.71799067145145"></path><path class="link financial-transaction" marker-end="url(#financial-transaction)" d="M442.00942557864846,365.34277098344296A224.34992064000218,224.34992064000218 0 0,1 666.3592525189222,365.1377269771677"></path><path class="link financial-transaction" marker-end="url(#financial-transaction)" d="M442.00942557864846,365.34277098344296A325.72961777632725,325.72961777632725 0 0,1 626.7112778511744,97.04254797978933"></path><path class="link financial-transaction" marker-end="url(#financial-transaction)" d="M442.00942557864846,365.34277098344296A212.16297625904787,212.16297625904787 0 0,1 282.5307589200951,225.41534916803425"></path><path class="link financial-transaction" marker-end="url(#financial-transaction)" d="M442.00942557864846,365.34277098344296A340.88769446116805,340.88769446116805 0 0,1 152.05192286016648,186.09694299207192"></path><path class="link financial-transaction" marker-end="url(#financial-transaction)" d="M442.00942557864846,365.34277098344296A287.63892636603947,287.63892636603947 0 0,1 222.2257706655771,550.8994927535256"></path><path class="link financial-transaction" marker-end="url(#financial-transaction)" d="M442.00942557864846,365.34277098344296A286.84747543463874,286.84747543463874 0 0,1 251.48589718995805,150.90802731173858"></path><path class="link financial-transaction" marker-end="url(#financial-transaction)" d="M442.00942557864846,365.34277098344296A284.27141845811695,284.27141845811695 0 0,1 172.0733512739914,454.47612692374463"></path><path class="link financial-transaction" marker-end="url(#financial-transaction)" d="M442.00942557864846,365.34277098344296A359.58800006324776,359.58800006324776 0 0,1 302.7248607350504,696.8594972369094"></path><path class="link financial-transaction" marker-end="url(#financial-transaction)" d="M442.00942557864846,365.34277098344296A358.4056067022841,358.4056067022841 0 0,1 277.23801729051746,47.058366831466984"></path><path class="link financial-transaction" marker-end="url(#financial-transaction)" d="M442.00942557864846,365.34277098344296A319.5207576109257,319.5207576109257 0 0,1 329.23327518352625,66.38616134532721"></path><path class="link financial-transaction" marker-end="url(#financial-transaction)" d="M442.00942557864846,365.34277098344296A327.20247226354365,327.20247226354365 0 0,1 764.5037489069285,310.03572553342997"></path><path class="link financial-transaction" marker-end="url(#financial-transaction)" d="M442.00942557864846,365.34277098344296A343.5624552064001,343.5624552064001 0 0,1 531.3719263791263,33.60567013680223"></path><path class="link financial-transaction" marker-end="url(#financial-transaction)" d="M442.00942557864846,365.34277098344296A298.26257355321206,298.26257355321206 0 0,1 528.3545131004809,79.85181027989927"></path><path class="link financial-transaction" marker-end="url(#financial-transaction)" d="M442.00942557864846,365.34277098344296A352.00197040648874,352.00197040648874 0 0,1 176.59774372250726,596.5613392350975"></path><path class="link financial-transaction" marker-end="url(#financial-transaction)" d="M442.00942557864846,365.34277098344296A329.97639235319986,329.97639235319986 0 0,1 286.02984900757156,656.1258365205207"></path><path class="link financial-transaction" marker-end="url(#financial-transaction)" d="M442.00942557864846,365.34277098344296A315.14681329246554,315.14681329246554 0 0,1 706.884429845813,536.1020929628468"></path><path class="link financial-transaction" marker-end="url(#financial-transaction)" d="M442.00942557864846,365.34277098344296A332.94990386464553,332.94990386464553 0 0,1 747.1727557236463,498.5004985785462"></path><path class="link financial-transaction" marker-end="url(#financial-transaction)" d="M442.00942557864846,365.34277098344296A305.07509140876505,305.07509140876505 0 0,1 576.508642947155,639.1689419849117"></path><path class="link financial-transaction" marker-end="url(#financial-transaction)" d="M442.00942557864846,365.34277098344296A323.27252578291944,323.27252578291944 0 0,1 758.5314150700142,431.0615361460361"></path><path class="link financial-transaction" marker-end="url(#financial-transaction)" d="M442.00942557864846,365.34277098344296A326.2215050848485,326.2215050848485 0 0,1 731.7470739453167,215.4342472138564"></path><path class="link financial-transaction" marker-end="url(#financial-transaction)" d="M442.00942557864846,365.34277098344296A345.87945807321904,345.87945807321904 0 0,1 226.8389088479528,636.1457404037747"></path><path class="link financial-transaction" marker-end="url(#financial-transaction)" d="M442.00942557864846,365.34277098344296A328.649125488254,328.649125488254 0 0,1 388.47602361725285,689.6025781730386"></path><path class="link financial-transaction" marker-end="url(#financial-transaction)" d="M442.00942557864846,365.34277098344296A271.90046505234466,271.90046505234466 0 0,1 636.8016900804677,175.6434389183706"></path><path class="link financial-transaction" marker-end="url(#financial-transaction)" d="M442.00942557864846,365.34277098344296A347.8511732752077,347.8511732752077 0 0,1 107.65498583986701,461.2987368006038"></path><path class="link action" marker-end="url(#action)" d="M862.4379553333171,3.9878235744749038A321.33538099911226,321.33538099911226 0 0,1 764.5037489069285,310.03572553342997"></path><path class="link action" marker-end="url(#action)" d="M68.90526736281802,-94.99271426295161A306.27252748991003,306.27252748991003 0 0,1 251.48589718995805,150.90802731173858"></path><path class="link action" marker-end="url(#action)" d="M426.66229869155956,-210.03911913723783A307.2101193478522,307.2101193478522 0 0,1 528.3545131004809,79.85181027989927"></path><path class="link action" marker-end="url(#action)" d="M437.0687291633132,418.34010080588456A261.1682726759076,261.1682726759076 0 0,1 576.508642947155,639.1689419849117"></path><path class="link action" marker-end="url(#action)" d="M437.0687291633132,418.34010080588456A302.7141787073653,302.7141787073653 0 0,1 226.8389088479528,636.1457404037747"></path><path class="link action" marker-end="url(#action)" d="M437.0687291633132,418.34010080588456A275.5804468021124,275.5804468021124 0 0,1 388.47602361725285,689.6025781730386"></path><path class="link action" marker-end="url(#action)" d="M437.0687291633132,418.34010080588456A314.31660052895046,314.31660052895046 0 0,1 636.8016900804677,175.6434389183706"></path><path class="link action" marker-end="url(#action)" d="M437.0687291633132,418.34010080588456A332.2030383619212,332.2030383619212 0 0,1 107.65498583986701,461.2987368006038"></path><path class="link action" marker-end="url(#action)" d="M1041.0101559949453,216.27565796556547A309.2642266588368,309.2642266588368 0 0,1 731.7470739453167,215.4342472138564"></path><path class="link action" marker-end="url(#action)" d="M-159.21570388906633,312.3596722939541A305.6187330196115,305.6187330196115 0 0,1 107.65498583986701,461.2987368006038"></path><path class="link action" marker-end="url(#action)" d="M917.6102047914712,351.2401542750847A320.5960696778382,320.5960696778382 0 0,1 612.710506845155,450.3260467377478"></path></g><g><g class="node person" transform="translate(442.00942557864846,365.34277098344296)"><circle r="30"></circle><text text-anchor="middle" dy="0.3" transform="translate(0, 0)"><tspan x="0" dy="0.3em">You</tspan></text></g><g class="node person" transform="translate(612.710506845155,450.3260467377478)"><circle r="30"></circle><text text-anchor="middle" dy="0.3" transform="translate(0, -7)"><tspan x="0" dy="0.3em">Donald</tspan><tspan x="0" dy="1.4000000000000001em">Trump</tspan></text></g><g class="node person" transform="translate(300.35590050249345,530.9092112776409)"><circle r="30"></circle><text text-anchor="middle" dy="0.3" transform="translate(0, 0)"><tspan x="0" dy="0.3em">Peter Thiel</tspan></text></g><g class="node person" transform="translate(457.03207820152545,126.3241364111911)"><circle r="30"></circle><text text-anchor="middle" dy="0.3" transform="translate(0, -7)"><tspan x="0" dy="0.3em">Jared</tspan><tspan x="0" dy="1.4000000000000001em">Kushner</tspan></text></g><g class="node person" transform="translate(322.6860915616741,368.9641732944106)"><circle r="30"></circle><text text-anchor="middle" dy="0.3" transform="translate(0, -7)"><tspan x="0" dy="0.3em">Joshua</tspan><tspan x="0" dy="1.4000000000000001em">Kushner</tspan></text></g><g class="node person" transform="translate(423.314483804529,149.61195921375113)"><circle r="30"></circle><text text-anchor="middle" dy="0.3" transform="translate(0, -7)"><tspan x="0" dy="0.3em">Stephen</tspan><tspan x="0" dy="1.4000000000000001em">Bannon</tspan></text></g><g class="node organization" transform="translate(86.11301362162322,252.9455736969198)"><circle r="30"></circle><text text-anchor="middle" dy="0.3" transform="translate(0, -7)"><tspan x="0" dy="0.3em">Thrive</tspan><tspan x="0" dy="1.4000000000000001em">Capital</tspan></text></g><g class="node organization" transform="translate(120.16454989088301,299.71799067145145)"><circle r="30"></circle><text text-anchor="middle" dy="0.3" transform="translate(0, 0)"><tspan x="0" dy="0.3em">Facebook</tspan></text></g><g class="node organization" transform="translate(-14.52331779947263,467.14311244096723)"><circle r="30"></circle><text text-anchor="middle" dy="0.3" transform="translate(0, -7)"><tspan x="0" dy="0.3em">Y</tspan><tspan x="0" dy="1.4000000000000001em">Combinator</tspan></text></g><g class="node organization" transform="translate(666.3592525189222,365.1377269771677)"><circle r="30"></circle><text text-anchor="middle" dy="0.3" transform="translate(0, 0)"><tspan x="0" dy="0.3em">Kickstarter</tspan></text></g><g class="node organization" transform="translate(626.7112778511744,97.04254797978933)"><circle r="30"></circle><text text-anchor="middle" dy="0.3" transform="translate(0, 0)"><tspan x="0" dy="0.3em">Etsy</tspan></text></g><g class="node organization" transform="translate(547.9579980738653,-180.05226919182545)"><circle r="30"></circle><text text-anchor="middle" dy="0.3" transform="translate(0, -7)"><tspan x="0" dy="0.3em">Kushner</tspan><tspan x="0" dy="1.4000000000000001em">Properties</tspan></text></g><g class="node person" transform="translate(574.8983158964961,748.4633729524019)"><circle r="30"></circle><text text-anchor="middle" dy="0.3" transform="translate(0, 0)"><tspan x="0" dy="0.3em">Elon Musk</tspan></text></g><g class="node organization" transform="translate(377.9491393779621,549.4671163305292)"><circle r="30"></circle><text text-anchor="middle" dy="0.3" transform="translate(0, 0)"><tspan x="0" dy="0.3em">SpaceX</tspan></text></g><g class="node organization" transform="translate(282.5307589200951,225.41534916803425)"><circle r="30"></circle><text text-anchor="middle" dy="0.3" transform="translate(0, 0)"><tspan x="0" dy="0.3em">IRS</tspan></text></g><g class="node organization" transform="translate(135.32041275817502,243.25171027899856)"><circle r="30"></circle><text text-anchor="middle" dy="0.3" transform="translate(0, 0)"><tspan x="0" dy="0.3em">Palantir</tspan></text></g><g class="node organization" transform="translate(195.81746471977343,-70.24391717796755)"><circle r="30"></circle><text text-anchor="middle" dy="0.3" transform="translate(0, 0)"><tspan x="0" dy="0.3em">FBI</tspan></text></g><g class="node organization" transform="translate(439.93278618258654,259.0409358801921)"><circle r="30"></circle><text text-anchor="middle" dy="0.3" transform="translate(0, -7)"><tspan x="0" dy="0.3em">Founders</tspan><tspan x="0" dy="1.4000000000000001em">Fund</tspan></text></g><g class="node organization" transform="translate(152.05192286016648,186.09694299207192)"><circle r="30"></circle><text text-anchor="middle" dy="0.3" transform="translate(0, 0)"><tspan x="0" dy="0.3em">Airbnb</tspan></text></g><g class="node organization" transform="translate(222.2257706655771,550.8994927535256)"><circle r="30"></circle><text text-anchor="middle" dy="0.3" transform="translate(0, 0)"><tspan x="0" dy="0.3em">Spotify</tspan></text></g><g class="node organization" transform="translate(293.38868098638545,473.8515223731599)"><circle r="30"></circle><text text-anchor="middle" dy="0.3" transform="translate(0, 0)"><tspan x="0" dy="0.3em">Stripe</tspan></text></g><g class="node organization" transform="translate(251.48589718995805,150.90802731173858)"><circle r="30"></circle><text text-anchor="middle" dy="0.3" transform="translate(0, 0)"><tspan x="0" dy="0.3em">Shopify</tspan></text></g><g class="node organization" transform="translate(518.6334944370647,377.58168102374515)"><circle r="30"></circle><text text-anchor="middle" dy="0.3" transform="translate(0, 0)"><tspan x="0" dy="0.3em">Breitbart</tspan></text></g><g class="node organization" transform="translate(172.0733512739914,454.47612692374463)"><circle r="30"></circle><text text-anchor="middle" dy="0.3" transform="translate(0, 0)"><tspan x="0" dy="0.3em">Google</tspan></text></g><g class="node organization" transform="translate(302.7248607350504,696.8594972369094)"><circle r="30"></circle><text text-anchor="middle" dy="0.3" transform="translate(0, 0)"><tspan x="0" dy="0.3em">Tesla</tspan></text></g><g class="node organization" transform="translate(277.23801729051746,47.058366831466984)"><circle r="30"></circle><text text-anchor="middle" dy="0.3" transform="translate(0, -7)"><tspan x="0" dy="0.3em">Oscar</tspan><tspan x="0" dy="1.4000000000000001em">Health</tspan></text></g><g class="node organization" transform="translate(329.23327518352625,66.38616134532721)"><circle r="30"></circle><text text-anchor="middle" dy="0.3" transform="translate(0, 0)"><tspan x="0" dy="0.3em">Instagram</tspan></text></g><g class="node organization" transform="translate(361.8933402988713,430.50900619996867)"><circle r="30"></circle><text text-anchor="middle" dy="0.3" transform="translate(0, 0)"><tspan x="0" dy="0.3em">Hot Potato</tspan></text></g><g class="node organization" transform="translate(758.5314150700142,431.0615361460361)"><circle r="30"></circle><text text-anchor="middle" dy="0.3" transform="translate(0, 0)"><tspan x="0" dy="0.3em">News Corp</tspan></text></g><g class="node organization" transform="translate(732.502246013189,122.26593640652517)"><circle r="30"></circle><text text-anchor="middle" dy="0.3" transform="translate(0, 0)"><tspan x="0" dy="0.3em">AppNexus</tspan></text></g><g class="node person" transform="translate(814.8609193165183,167.99091677700633)"><circle r="30"></circle><text text-anchor="middle" dy="0.3" transform="translate(0, -7)"><tspan x="0" dy="0.3em">Rupert</tspan><tspan x="0" dy="1.4000000000000001em">Murdoch</tspan></text></g><g class="node person" transform="translate(828.5826203112345,704.7010005369101)"><circle r="30"></circle><text text-anchor="middle" dy="0.3" transform="translate(0, -7)"><tspan x="0" dy="0.3em">Elaine</tspan><tspan x="0" dy="1.4000000000000001em">Chao</tspan></text></g><g class="node person" transform="translate(905.2689961436214,582.4574306343418)"><circle r="30"></circle><text text-anchor="middle" dy="0.3" transform="translate(0, -7)"><tspan x="0" dy="0.3em">Travis</tspan><tspan x="0" dy="1.4000000000000001em">Kalanick</tspan></text></g><g class="node organization" transform="translate(764.5037489069285,310.03572553342997)"><circle r="30"></circle><text text-anchor="middle" dy="0.3" transform="translate(0, 0)"><tspan x="0" dy="0.3em">Uber</tspan></text></g><g class="node organization" transform="translate(531.3719263791263,33.60567013680223)"><circle r="30"></circle><text text-anchor="middle" dy="0.3" transform="translate(0, -14)"><tspan x="0" dy="0.3em">21st</tspan><tspan x="0" dy="1.4000000000000001em">Century</tspan><tspan x="0" dy="1.4000000000000001em">Fox</tspan></text></g><g class="node organization" transform="translate(528.3545131004809,79.85181027989927)"><circle r="30"></circle><text text-anchor="middle" dy="0.3" transform="translate(0, 0)"><tspan x="0" dy="0.3em">Amazon</tspan></text></g><g class="node person" transform="translate(460.6106119828114,744.785412333666)"><circle r="30"></circle><text text-anchor="middle" dy="0.3" transform="translate(0, -7)"><tspan x="0" dy="0.3em">Indra</tspan><tspan x="0" dy="1.4000000000000001em">Nooyi</tspan></text></g><g class="node organization" transform="translate(176.59774372250726,596.5613392350975)"><circle r="30"></circle><text text-anchor="middle" dy="0.3" transform="translate(0, 0)"><tspan x="0" dy="0.3em">PepsiCo</tspan></text></g><g class="node person" transform="translate(553.8596599688034,790.7827169356146)"><circle r="30"></circle><text text-anchor="middle" dy="0.3" transform="translate(0, -7)"><tspan x="0" dy="0.3em">Doug</tspan><tspan x="0" dy="1.4000000000000001em">McMillon</tspan></text></g><g class="node organization" transform="translate(286.02984900757156,656.1258365205207)"><circle r="30"></circle><text text-anchor="middle" dy="0.3" transform="translate(0, 0)"><tspan x="0" dy="0.3em">Walmart</tspan></text></g><g class="node person" transform="translate(662.9509789591585,796.239343238122)"><circle r="30"></circle><text text-anchor="middle" dy="0.3" transform="translate(0, -7)"><tspan x="0" dy="0.3em">Ginni</tspan><tspan x="0" dy="1.4000000000000001em">Rometty</tspan></text></g><g class="node organization" transform="translate(706.884429845813,536.1020929628468)"><circle r="30"></circle><text text-anchor="middle" dy="0.3" transform="translate(0, 0)"><tspan x="0" dy="0.3em">IBM</tspan></text></g><g class="node person" transform="translate(743.1186799046136,767.6859427746585)"><circle r="30"></circle><text text-anchor="middle" dy="0.3" transform="translate(0, 0)"><tspan x="0" dy="0.3em">Mary Barra</tspan></text></g><g class="node organization" transform="translate(747.1727557236463,498.5004985785462)"><circle r="30"></circle><text text-anchor="middle" dy="0.3" transform="translate(0, -7)"><tspan x="0" dy="0.3em">General</tspan><tspan x="0" dy="1.4000000000000001em">Motors</tspan></text></g><g class="node person" transform="translate(362.4352559560648,361.58362639569754)"><circle r="30"></circle><text text-anchor="middle" dy="0.3" transform="translate(0, -7)"><tspan x="0" dy="0.3em">Ivanka</tspan><tspan x="0" dy="1.4000000000000001em">Trump</tspan></text></g><g class="node organization" transform="translate(576.508642947155,639.1689419849117)"><circle r="30"></circle><text text-anchor="middle" dy="0.3" transform="translate(0, 0)"><tspan x="0" dy="0.3em">Nordstrom</tspan></text></g><g class="node action" transform="translate(862.4379553333171,3.9878235744749038)"><circle r="30"></circle><text text-anchor="middle" dy="0.3" transform="translate(0, 0)"><tspan x="0" dy="0.3em">#DeleteUber</tspan></text></g><g class="node action" transform="translate(68.90526736281802,-94.99271426295161)"><circle r="30"></circle><text text-anchor="middle" dy="0.3" transform="translate(0, 0)"><tspan x="0" dy="0.3em">#DeleteShopify</tspan></text></g><g class="node action" transform="translate(426.66229869155956,-210.03911913723783)"><circle r="30"></circle><text text-anchor="middle" dy="0.3" transform="translate(0, 0)"><tspan x="0" dy="0.3em">#DeleteAmazon</tspan></text></g><g class="node action" transform="translate(437.0687291633132,418.34010080588456)"><circle r="30"></circle><text text-anchor="middle" dy="0.3" transform="translate(0, 0)"><tspan x="0" dy="0.3em">#GrabYourWallet</tspan></text></g><g class="node action" transform="translate(1041.0101559949453,216.27565796556547)"><circle r="30"></circle><text text-anchor="middle" dy="0.3" transform="translate(0, 0)"><tspan x="0" dy="0.3em">#DeleteLyft</tspan></text></g><g class="node action" transform="translate(-159.21570388906633,312.3596722939541)"><circle r="30"></circle><text text-anchor="middle" dy="0.3" transform="translate(0, 0)"><tspan x="0" dy="0.3em">#Baycott</tspan></text></g><g class="node action" transform="translate(917.6102047914712,351.2401542750847)"><circle r="30"></circle><text text-anchor="middle" dy="0.3" transform="translate(0, 0)"><tspan x="0" dy="0.3em">#Resist</tspan></text></g><g class="node person" transform="translate(940.7467440042802,426.1815639410487)"><circle r="30"></circle><text text-anchor="middle" dy="0.3" transform="translate(0, 0)"><tspan x="0" dy="0.3em">Carl Icahn</tspan></text></g><g class="node organization" transform="translate(1012.8401250362558,112.73586199905232)"><circle r="30"></circle><text text-anchor="middle" dy="0.3" transform="translate(0, -7)"><tspan x="0" dy="0.3em">Icahn</tspan><tspan x="0" dy="1.4000000000000001em">Enterprises</tspan></text></g><g class="node organization" transform="translate(731.7470739453167,215.4342472138564)"><circle r="30"></circle><text text-anchor="middle" dy="0.3" transform="translate(0, 0)"><tspan x="0" dy="0.3em">Lyft</tspan></text></g><g class="node organization" transform="translate(636.8016900804677,175.6434389183706)"><circle r="30"></circle><text text-anchor="middle" dy="0.3" transform="translate(0, 0)"><tspan x="0" dy="0.3em">Bloomingdale's</tspan></text></g><g class="node organization" transform="translate(107.65498583986701,461.2987368006038)"><circle r="30"></circle><text text-anchor="middle" dy="0.3" transform="translate(0, -7)"><tspan x="0" dy="0.3em">Hudson's</tspan><tspan x="0" dy="1.4000000000000001em">Bay</tspan></text></g><g class="node organization" transform="translate(388.47602361725285,689.6025781730386)"><circle r="30"></circle><text text-anchor="middle" dy="0.3" transform="translate(0, 0)"><tspan x="0" dy="0.3em">Zappos</tspan></text></g><g class="node organization" transform="translate(226.8389088479528,636.1457404037747)"><circle r="30"></circle><text text-anchor="middle" dy="0.3" transform="translate(0, 0)"><tspan x="0" dy="0.3em">Macy's</tspan></text></g></g></svg>