<?xml version="1.0" encoding="UTF-8" standalone="no"?>
<!DOCTYPE svg PUBLIC "-//W3C//DTD SVG 1.1//EN"
 "http://www.w3.org/Graphics/SVG/1.1/DTD/svg11.dtd">
<!-- Generated by graphviz version 2.40.1 (20161225.0304)
 -->
<!-- Title: trump Pages: 1 -->
<svg width="3466pt" height="620pt"
 viewBox="0.00 0.00 3466.27 620.00" xmlns="http://www.w3.org/2000/svg" xmlns:xlink="http://www.w3.org/1999/xlink">
<g id="graph0" class="graph" transform="scale(1 1) rotate(0) translate(4 616)">
<title>trump</title>
<polygon fill="#ffffff" stroke="transparent" points="-4,4 -4,-616 3462.2742,-616 3462.2742,4 -4,4"/>
<!-- Donald Trump -->
<g id="node1" class="node">
<title>Donald Trump</title>
<ellipse fill="none" stroke="#000000" cx="1847.1613" cy="-450" rx="61.9171" ry="18"/>
<text text-anchor="middle" x="1847.1613" y="-445.8" font-family="Times,serif" font-size="14.00" fill="#000000">Donald Trump</text>
</g>
<!-- Peter Thiel -->
<g id="node2" class="node">
<title>Peter Thiel</title>
<ellipse fill="none" stroke="#000000" cx="1507.1613" cy="-378" rx="48.9912" ry="18"/>
<text text-anchor="middle" x="1507.1613" y="-373.8" font-family="Times,serif" font-size="14.00" fill="#000000">Peter Thiel</text>
</g>
<!-- Donald Trump&#45;&gt;Peter Thiel -->
<g id="edge1" class="edge">
<title>Donald Trump&#45;&gt;Peter Thiel</title>
<path fill="none" stroke="#000000" d="M1791.8281,-441.7914C1733.8018,-432.147 1640.4888,-415.0277 1561.1613,-396 1557.9535,-395.2306 1554.664,-394.4045 1551.3656,-393.5444"/>
<polygon fill="#000000" stroke="#000000" points="1552.0829,-390.1128 1541.5162,-390.8851 1550.2582,-396.8708 1552.0829,-390.1128"/>
</g>
<!-- Jared Kushner -->
<g id="node3" class="node">
<title>Jared Kushner</title>
<ellipse fill="none" stroke="#000000" cx="1847.1613" cy="-378" rx="60.879" ry="18"/>
<text text-anchor="middle" x="1847.1613" y="-373.8" font-family="Times,serif" font-size="14.00" fill="#000000">Jared Kushner</text>
</g>
<!-- Donald Trump&#45;&gt;Jared Kushner -->
<g id="edge3" class="edge">
<title>Donald Trump&#45;&gt;Jared Kushner</title>
<path fill="none" stroke="#000000" d="M1841.2089,-431.8314C1840.4585,-424.131 1840.2376,-414.9743 1840.5462,-406.4166"/>
<polygon fill="#000000" stroke="#000000" points="1844.0405,-406.6161 1841.1853,-396.4133 1837.0548,-406.1697 1844.0405,-406.6161"/>
</g>
<!-- Stephen Bannon -->
<g id="node4" class="node">
<title>Stephen Bannon</title>
<ellipse fill="none" stroke="#000000" cx="1994.1613" cy="-378" rx="68.1387" ry="18"/>
<text text-anchor="middle" x="1994.1613" y="-373.8" font-family="Times,serif" font-size="14.00" fill="#000000">Stephen Bannon</text>
</g>
<!-- Donald Trump&#45;&gt;Stephen Bannon -->
<g id="edge5" class="edge">
<title>Donald Trump&#45;&gt;Stephen Bannon</title>
<path fill="none" stroke="#000000" d="M1874.7571,-433.6621C1895.3942,-422.9667 1923.9411,-408.9312 1947.9959,-397.6303"/>
<polygon fill="#000000" stroke="#000000" points="1949.7242,-400.6863 1957.3087,-393.2886 1946.7664,-394.3418 1949.7242,-400.6863"/>
</g>
<!-- Elon Musk -->
<g id="node5" class="node">
<title>Elon Musk</title>
<ellipse fill="none" stroke="#000000" cx="1771.1613" cy="-306" rx="49.3373" ry="18"/>
<text text-anchor="middle" x="1771.1613" y="-301.8" font-family="Times,serif" font-size="14.00" fill="#000000">Elon Musk</text>
</g>
<!-- Donald Trump&#45;&gt;Elon Musk -->
<g id="edge7" class="edge">
<title>Donald Trump&#45;&gt;Elon Musk</title>
<path fill="none" stroke="#000000" d="M1787.7809,-444.8316C1725.2787,-437.7651 1633.3105,-422.7979 1612.1613,-396 1602.249,-383.4403 1602.9611,-373.0903 1612.1613,-360 1618.5791,-350.8686 1676.4598,-331.8061 1720.6552,-318.9525"/>
<polygon fill="#000000" stroke="#000000" points="1721.7735,-322.2729 1730.4197,-316.1497 1719.8421,-315.5446 1721.7735,-322.2729"/>
</g>
<!-- Rupert Murdoch -->
<g id="node30" class="node">
<title>Rupert Murdoch</title>
<ellipse fill="none" stroke="#000000" cx="1699.1613" cy="-378" rx="68.6146" ry="18"/>
<text text-anchor="middle" x="1699.1613" y="-373.8" font-family="Times,serif" font-size="14.00" fill="#000000">Rupert Murdoch</text>
</g>
<!-- Donald Trump&#45;&gt;Rupert Murdoch -->
<g id="edge58" class="edge">
<title>Donald Trump&#45;&gt;Rupert Murdoch</title>
<path fill="none" stroke="#000000" d="M1811.2834,-435.256C1788.5583,-424.842 1759.3391,-410.7307 1736.3723,-399.1233"/>
<polygon fill="#000000" stroke="#000000" points="1737.7678,-395.9062 1727.2687,-394.4844 1734.5895,-402.1432 1737.7678,-395.9062"/>
</g>
<!-- Elaine Chao -->
<g id="node31" class="node">
<title>Elaine Chao</title>
<ellipse fill="none" stroke="#000000" cx="2134.1613" cy="-378" rx="53.6457" ry="18"/>
<text text-anchor="middle" x="2134.1613" y="-373.8" font-family="Times,serif" font-size="14.00" fill="#000000">Elaine Chao</text>
</g>
<!-- Donald Trump&#45;&gt;Elaine Chao -->
<g id="edge56" class="edge">
<title>Donald Trump&#45;&gt;Elaine Chao</title>
<path fill="none" stroke="#000000" d="M1893.0994,-437.8553C1936.757,-427.2966 2003.9407,-411.3277 2062.1613,-396 2068.0809,-394.4416 2074.2955,-392.7429 2080.5032,-391.032"/>
<polygon fill="#000000" stroke="#000000" points="2081.5017,-394.3873 2090.2091,-388.3514 2079.6381,-387.6399 2081.5017,-394.3873"/>
</g>
<!-- Travis Kalanick -->
<g id="node32" class="node">
<title>Travis Kalanick</title>
<ellipse fill="none" stroke="#000000" cx="2606.1613" cy="-378" rx="66.5456" ry="18"/>
<text text-anchor="middle" x="2606.1613" y="-373.8" font-family="Times,serif" font-size="14.00" fill="#000000">Travis Kalanick</text>
</g>
<!-- Donald Trump&#45;&gt;Travis Kalanick -->
<g id="edge60" class="edge">
<title>Donald Trump&#45;&gt;Travis Kalanick</title>
<path fill="none" stroke="#000000" d="M1909.2721,-448.1791C2028.7102,-444.0772 2298.0355,-431.5175 2522.1613,-396 2529.4261,-394.8487 2537.0262,-393.3628 2544.5723,-391.7388"/>
<polygon fill="#000000" stroke="#000000" points="2545.43,-395.1336 2554.4285,-389.541 2543.9064,-388.3014 2545.43,-395.1336"/>
</g>
<!-- Indra Nooyi -->
<g id="node36" class="node">
<title>Indra Nooyi</title>
<ellipse fill="none" stroke="#000000" cx="2315.1613" cy="-378" rx="53.1698" ry="18"/>
<text text-anchor="middle" x="2315.1613" y="-373.8" font-family="Times,serif" font-size="14.00" fill="#000000">Indra Nooyi</text>
</g>
<!-- Donald Trump&#45;&gt;Indra Nooyi -->
<g id="edge65" class="edge">
<title>Donald Trump&#45;&gt;Indra Nooyi</title>
<path fill="none" stroke="#000000" d="M1905.4979,-443.8791C1982.4425,-435.7501 2121.5627,-419.6131 2239.1613,-396 2246.3868,-394.5492 2253.9858,-392.7636 2261.4899,-390.8861"/>
<polygon fill="#000000" stroke="#000000" points="2262.4409,-394.2557 2271.2609,-388.3856 2260.7053,-387.4742 2262.4409,-394.2557"/>
</g>
<!-- Doug McMillon -->
<g id="node38" class="node">
<title>Doug McMillon</title>
<ellipse fill="none" stroke="#000000" cx="2454.1613" cy="-378" rx="67.6714" ry="18"/>
<text text-anchor="middle" x="2454.1613" y="-373.8" font-family="Times,serif" font-size="14.00" fill="#000000">Doug McMillon</text>
</g>
<!-- Donald Trump&#45;&gt;Doug McMillon -->
<g id="edge68" class="edge">
<title>Donald Trump&#45;&gt;Doug McMillon</title>
<path fill="none" stroke="#000000" d="M1907.8337,-445.9723C2005.3831,-439.2487 2202.5877,-423.6706 2368.1613,-396 2375.6827,-394.743 2383.5653,-393.1841 2391.3902,-391.5134"/>
<polygon fill="#000000" stroke="#000000" points="2392.2222,-394.9142 2401.2393,-389.3517 2390.7215,-388.0769 2392.2222,-394.9142"/>
</g>
<!-- Ginni Rometty -->
<g id="node40" class="node">
<title>Ginni Rometty</title>
<ellipse fill="none" stroke="#000000" cx="1265.1613" cy="-378" rx="62.8431" ry="18"/>
<text text-anchor="middle" x="1265.1613" y="-373.8" font-family="Times,serif" font-size="14.00" fill="#000000">Ginni Rometty</text>
</g>
<!-- Donald Trump&#45;&gt;Ginni Rometty -->
<g id="edge71" class="edge">
<title>Donald Trump&#45;&gt;Ginni Rometty</title>
<path fill="none" stroke="#000000" d="M1786.2226,-446.6721C1688.668,-440.461 1492.11,-425.0271 1328.1613,-396 1324.4542,-395.3437 1320.6554,-394.6027 1316.8475,-393.8049"/>
<polygon fill="#000000" stroke="#000000" points="1317.3235,-390.3255 1306.8032,-391.5796 1315.8094,-397.1598 1317.3235,-390.3255"/>
</g>
<!-- Mary Barra -->
<g id="node42" class="node">
<title>Mary Barra</title>
<ellipse fill="none" stroke="#000000" cx="1133.1613" cy="-378" rx="51.2232" ry="18"/>
<text text-anchor="middle" x="1133.1613" y="-373.8" font-family="Times,serif" font-size="14.00" fill="#000000">Mary Barra</text>
</g>
<!-- Donald Trump&#45;&gt;Mary Barra -->
<g id="edge74" class="edge">
<title>Donald Trump&#45;&gt;Mary Barra</title>
<path fill="none" stroke="#000000" d="M1786.0797,-446.8507C1644.5675,-438.9846 1298.1339,-417.5553 1184.1613,-396 1181.4982,-395.4963 1178.7849,-394.9201 1176.0649,-394.2903"/>
<polygon fill="#000000" stroke="#000000" points="1176.8159,-390.8701 1166.2627,-391.8088 1175.0979,-397.656 1176.8159,-390.8701"/>
</g>
<!-- Ivanka Trump -->
<g id="node44" class="node">
<title>Ivanka Trump</title>
<ellipse fill="none" stroke="#000000" cx="2749.1613" cy="-234" rx="59.9704" ry="18"/>
<text text-anchor="middle" x="2749.1613" y="-229.8" font-family="Times,serif" font-size="14.00" fill="#000000">Ivanka Trump</text>
</g>
<!-- Donald Trump&#45;&gt;Ivanka Trump -->
<g id="edge77" class="edge">
<title>Donald Trump&#45;&gt;Ivanka Trump</title>
<path fill="none" stroke="#000000" d="M1904.963,-443.3756C1988.1882,-433.8702 2137.0638,-415.3622 2188.1613,-396 2215.8297,-385.5157 2216.5187,-370.5518 2244.1613,-360 2339.1844,-323.7275 2372.0635,-350.8684 2470.1613,-324 2512.1106,-312.5103 2520.0828,-302.2935 2561.1613,-288 2604.3593,-272.969 2654.2338,-258.1247 2691.8483,-247.8154"/>
<polygon fill="#000000" stroke="#000000" points="2692.89,-251.1594 2701.6249,-245.1634 2691.0574,-244.4035 2692.89,-251.1594"/>
</g>
<!-- Carl Icahn -->
<g id="node50" class="node">
<title>Carl Icahn</title>
<ellipse fill="none" stroke="#000000" cx="1393.1613" cy="-378" rx="47.3647" ry="18"/>
<text text-anchor="middle" x="1393.1613" y="-373.8" font-family="Times,serif" font-size="14.00" fill="#000000">Carl Icahn</text>
</g>
<!-- Donald Trump&#45;&gt;Carl Icahn -->
<g id="edge89" class="edge">
<title>Donald Trump&#45;&gt;Carl Icahn</title>
<path fill="none" stroke="#000000" d="M1786.9077,-445.6868C1706.7499,-438.8719 1561.3799,-423.4796 1440.1613,-396 1438.0994,-395.5326 1436.0047,-395.023 1433.9009,-394.4812"/>
<polygon fill="#000000" stroke="#000000" points="1434.6492,-391.0565 1424.0769,-391.7476 1432.7726,-397.8003 1434.6492,-391.0565"/>
</g>
<!-- Peter Thiel&#45;&gt;Donald Trump -->
<g id="edge2" class="edge">
<title>Peter Thiel&#45;&gt;Donald Trump</title>
<path fill="none" stroke="#000000" d="M1548.3278,-387.8779C1558.464,-390.6785 1569.206,-393.6121 1579.1613,-396 1649.5797,-412.8908 1731.0187,-428.2777 1785.5483,-438.267"/>
<polygon fill="#000000" stroke="#000000" points="1784.942,-441.7141 1795.4083,-440.0686 1786.2002,-434.8281 1784.942,-441.7141"/>
</g>
<!-- Peter Thiel&#45;&gt;Elon Musk -->
<g id="edge20" class="edge">
<title>Peter Thiel&#45;&gt;Elon Musk</title>
<path fill="none" stroke="#000000" d="M1542.279,-365.2817C1548.5454,-363.4849 1555.0165,-361.6791 1561.1613,-360 1622.3056,-343.2922 1638.017,-340.7078 1699.1613,-324 1705.649,-322.2272 1712.5005,-320.3132 1719.3124,-318.4177"/>
<polygon fill="#000000" stroke="#000000" points="1720.5157,-321.7162 1729.2176,-315.6724 1718.646,-314.9705 1720.5157,-321.7162"/>
</g>
<!-- Thrive Capital -->
<g id="node7" class="node">
<title>Thrive Capital</title>
<ellipse fill="none" stroke="#000000" cx="1755.1613" cy="-234" rx="61.3636" ry="18"/>
<text text-anchor="middle" x="1755.1613" y="-229.8" font-family="Times,serif" font-size="14.00" fill="#000000">Thrive Capital</text>
</g>
<!-- Peter Thiel&#45;&gt;Thrive Capital -->
<g id="edge19" class="edge">
<title>Peter Thiel&#45;&gt;Thrive Capital</title>
<path fill="none" stroke="#000000" d="M1551.7129,-370.4181C1587.2987,-362.8406 1637.3028,-348.6727 1675.1613,-324 1688.9485,-315.0148 1716.0347,-283.042 1734.848,-259.7543"/>
<polygon fill="#000000" stroke="#000000" points="1737.5959,-261.9221 1741.1221,-251.9313 1732.1352,-257.5426 1737.5959,-261.9221"/>
</g>
<!-- Facebook -->
<g id="node15" class="node">
<title>Facebook</title>
<ellipse fill="none" stroke="#000000" cx="846.1613" cy="-162" rx="44.475" ry="18"/>
<text text-anchor="middle" x="846.1613" y="-157.8" font-family="Times,serif" font-size="14.00" fill="#000000">Facebook</text>
</g>
<!-- Peter Thiel&#45;&gt;Facebook -->
<g id="edge25" class="edge">
<title>Peter Thiel&#45;&gt;Facebook</title>
<path fill="none" stroke="#000000" d="M1470.0514,-366.1021C1436.0376,-354.642 1388.808,-337.1557 1374.1613,-324 1333.6275,-287.5925 1361.2461,-246.5917 1316.1613,-216 1282.3085,-193.0296 1016.4688,-173.1056 900.2432,-165.3993"/>
<polygon fill="#000000" stroke="#000000" points="900.3472,-161.8987 890.1391,-164.7352 899.888,-168.8836 900.3472,-161.8987"/>
</g>
<!-- Y Combinator -->
<g id="node16" class="node">
<title>Y Combinator</title>
<ellipse fill="none" stroke="#000000" cx="1605.1613" cy="-306" rx="60.7574" ry="18"/>
<text text-anchor="middle" x="1605.1613" y="-301.8" font-family="Times,serif" font-size="14.00" fill="#000000">Y Combinator</text>
</g>
<!-- Peter Thiel&#45;&gt;Y Combinator -->
<g id="edge26" class="edge">
<title>Peter Thiel&#45;&gt;Y Combinator</title>
<path fill="none" stroke="#000000" d="M1529.399,-361.6621C1542.6172,-351.9508 1559.5834,-339.4858 1574.1083,-328.8144"/>
<polygon fill="#000000" stroke="#000000" points="1576.345,-331.5143 1582.3315,-322.7729 1572.2004,-325.8731 1576.345,-331.5143"/>
</g>
<!-- Palantir -->
<g id="node17" class="node">
<title>Palantir</title>
<ellipse fill="none" stroke="#000000" cx="994.1613" cy="-234" rx="37.7266" ry="18"/>
<text text-anchor="middle" x="994.1613" y="-229.8" font-family="Times,serif" font-size="14.00" fill="#000000">Palantir</text>
</g>
<!-- Peter Thiel&#45;&gt;Palantir -->
<g id="edge27" class="edge">
<title>Peter Thiel&#45;&gt;Palantir</title>
<path fill="none" stroke="#000000" d="M1470.8949,-365.7599C1463.7466,-363.6275 1456.2607,-361.5879 1449.1613,-360 1336.605,-334.8248 1296.0779,-374.0405 1192.1613,-324 1171.2005,-313.9064 1174.194,-299.8291 1154.1613,-288 1108.7741,-261.1993 1090.9043,-269.4328 1041.1613,-252 1038.4556,-251.0518 1035.6714,-250.0509 1032.8732,-249.0265"/>
<polygon fill="#000000" stroke="#000000" points="1033.9922,-245.7084 1023.3995,-245.4949 1031.5471,-252.2675 1033.9922,-245.7084"/>
</g>
<!-- Founders Fund -->
<g id="node19" class="node">
<title>Founders Fund</title>
<ellipse fill="none" stroke="#000000" cx="1264.1613" cy="-306" rx="63.3362" ry="18"/>
<text text-anchor="middle" x="1264.1613" y="-301.8" font-family="Times,serif" font-size="14.00" fill="#000000">Founders Fund</text>
</g>
<!-- Peter Thiel&#45;&gt;Founders Fund -->
<g id="edge30" class="edge">
<title>Peter Thiel&#45;&gt;Founders Fund</title>
<path fill="none" stroke="#000000" d="M1469.7497,-366.2876C1462.9069,-364.1744 1455.8244,-362.0062 1449.1613,-360 1405.5276,-346.8621 1355.9593,-332.4192 1319.121,-321.7784"/>
<polygon fill="#000000" stroke="#000000" points="1319.6621,-318.2919 1309.0837,-318.8822 1317.7214,-325.0175 1319.6621,-318.2919"/>
</g>
<!-- Jared Kushner&#45;&gt;Donald Trump -->
<g id="edge4" class="edge">
<title>Jared Kushner&#45;&gt;Donald Trump</title>
<path fill="none" stroke="#000000" d="M1853.1373,-396.4133C1853.8684,-404.0593 1854.0816,-413.1084 1853.7768,-421.5726"/>
<polygon fill="#000000" stroke="#000000" points="1850.2661,-421.6264 1853.1137,-431.8314 1857.2515,-422.078 1850.2661,-421.6264"/>
</g>
<!-- Joshua Kushner -->
<g id="node6" class="node">
<title>Joshua Kushner</title>
<ellipse fill="none" stroke="#000000" cx="1942.1613" cy="-306" rx="66.2091" ry="18"/>
<text text-anchor="middle" x="1942.1613" y="-301.8" font-family="Times,serif" font-size="14.00" fill="#000000">Joshua Kushner</text>
</g>
<!-- Jared Kushner&#45;&gt;Joshua Kushner -->
<g id="edge9" class="edge">
<title>Jared Kushner&#45;&gt;Joshua Kushner</title>
<path fill="none" stroke="#000000" d="M1864.2799,-360.5708C1876.0434,-350.8991 1891.9127,-338.7648 1906.3093,-328.3958"/>
<polygon fill="#000000" stroke="#000000" points="1908.4469,-331.1706 1914.5734,-322.5267 1904.3937,-325.4634 1908.4469,-331.1706"/>
</g>
<!-- Jared Kushner&#45;&gt;Thrive Capital -->
<g id="edge14" class="edge">
<title>Jared Kushner&#45;&gt;Thrive Capital</title>
<path fill="none" stroke="#000000" d="M1847.3003,-359.6607C1846.6246,-340.3858 1843.1531,-309.8823 1829.1613,-288 1820.7383,-274.8269 1807.8711,-263.8076 1795.2154,-255.2307"/>
<polygon fill="#000000" stroke="#000000" points="1796.8552,-252.1249 1786.5447,-249.6865 1793.0842,-258.0224 1796.8552,-252.1249"/>
</g>
<!-- Kickstarter -->
<g id="node9" class="node">
<title>Kickstarter</title>
<ellipse fill="none" stroke="#000000" cx="1908.1613" cy="-90" rx="49.286" ry="18"/>
<text text-anchor="middle" x="1908.1613" y="-85.8" font-family="Times,serif" font-size="14.00" fill="#000000">Kickstarter</text>
</g>
<!-- Jared Kushner&#45;&gt;Kickstarter -->
<g id="edge16" class="edge">
<title>Jared Kushner&#45;&gt;Kickstarter</title>
<path fill="none" stroke="#000000" d="M1893.1262,-366.1381C1952.6325,-350.7302 2048.9336,-325.597 2050.1613,-324 2098.9197,-260.5758 2095.5768,-209.8592 2050.1613,-144 2039.3492,-128.3208 1995.543,-113.1462 1959.4109,-102.8969"/>
<polygon fill="#000000" stroke="#000000" points="1960.0285,-99.4363 1949.4571,-100.1404 1958.1603,-106.1824 1960.0285,-99.4363"/>
</g>
<!-- Kushner Properties -->
<g id="node11" class="node">
<title>Kushner Properties</title>
<ellipse fill="none" stroke="#000000" cx="2392.1613" cy="-306" rx="78.2772" ry="18"/>
<text text-anchor="middle" x="2392.1613" y="-301.8" font-family="Times,serif" font-size="14.00" fill="#000000">Kushner Properties</text>
</g>
<!-- Jared Kushner&#45;&gt;Kushner Properties -->
<g id="edge18" class="edge">
<title>Jared Kushner&#45;&gt;Kushner Properties</title>
<path fill="none" stroke="#000000" d="M1891.3669,-365.4996C1899.875,-363.4163 1908.7546,-361.4613 1917.1613,-360 2087.7879,-330.341 2133.8763,-349.5839 2305.1613,-324 2311.8234,-323.0049 2318.7443,-321.8255 2325.6419,-320.5536"/>
<polygon fill="#000000" stroke="#000000" points="2326.5315,-323.9471 2335.6982,-318.6347 2325.2193,-317.0712 2326.5315,-323.9471"/>
</g>
<!-- Hot Potato -->
<g id="node27" class="node">
<title>Hot Potato</title>
<ellipse fill="none" stroke="#000000" cx="1755.1613" cy="-90" rx="48.3683" ry="18"/>
<text text-anchor="middle" x="1755.1613" y="-85.8" font-family="Times,serif" font-size="14.00" fill="#000000">Hot Potato</text>
</g>
<!-- Jared Kushner&#45;&gt;Hot Potato -->
<g id="edge50" class="edge">
<title>Jared Kushner&#45;&gt;Hot Potato</title>
<path fill="none" stroke="#000000" d="M1893.4732,-366.289C1941.1777,-353.7621 2009.619,-334.3095 2017.1613,-324 2026.6085,-311.0868 2021.9787,-303.2576 2017.1613,-288 1993.6247,-213.4544 1978.7992,-190.7708 1916.1613,-144 1884.9053,-120.6616 1842.9505,-107.0229 1809.7056,-99.2918"/>
<polygon fill="#000000" stroke="#000000" points="1810.209,-95.8187 1799.6893,-97.0779 1808.6982,-102.6537 1810.209,-95.8187"/>
</g>
<!-- Jared Kushner&#45;&gt;Ivanka Trump -->
<g id="edge79" class="edge">
<title>Jared Kushner&#45;&gt;Ivanka Trump</title>
<path fill="none" stroke="#000000" d="M1888.6413,-364.7552C1895.1468,-363.1094 1901.8075,-361.485 1908.1613,-360 1983.7892,-342.3247 2004.4801,-345.3241 2079.1613,-324 2124.1808,-311.1454 2132.4944,-298.3214 2178.1613,-288 2271.4804,-266.9084 2549.2732,-246.5835 2679.925,-238.1204"/>
<polygon fill="#000000" stroke="#000000" points="2680.4546,-241.5937 2690.2094,-237.4592 2680.0054,-234.6081 2680.4546,-241.5937"/>
</g>
<!-- Stephen Bannon&#45;&gt;Donald Trump -->
<g id="edge6" class="edge">
<title>Stephen Bannon&#45;&gt;Donald Trump</title>
<path fill="none" stroke="#000000" d="M1966.2828,-394.4844C1945.3382,-405.3322 1916.3607,-419.568 1892.1802,-430.9079"/>
<polygon fill="#000000" stroke="#000000" points="1890.4248,-427.8643 1882.8345,-435.256 1893.3777,-434.211 1890.4248,-427.8643"/>
</g>
<!-- Breitbart -->
<g id="node24" class="node">
<title>Breitbart</title>
<ellipse fill="none" stroke="#000000" cx="773.1613" cy="-18" rx="41.5766" ry="18"/>
<text text-anchor="middle" x="773.1613" y="-13.8" font-family="Times,serif" font-size="14.00" fill="#000000">Breitbart</text>
</g>
<!-- Stephen Bannon&#45;&gt;Breitbart -->
<g id="edge45" class="edge">
<title>Stephen Bannon&#45;&gt;Breitbart</title>
<path fill="none" stroke="#000000" d="M2037.1726,-363.7968C2088.6989,-343.7493 2168.1613,-301.8359 2168.1613,-234 2168.1613,-234 2168.1613,-234 2168.1613,-162 2168.1613,-63.7144 2061.8094,-94.6162 1966.1613,-72 1854.1862,-45.5232 1039.3411,-24.36 824.8071,-19.2041"/>
<polygon fill="#000000" stroke="#000000" points="824.8363,-15.7039 814.7554,-18.9637 824.6689,-22.7019 824.8363,-15.7039"/>
</g>
<!-- Elon Musk&#45;&gt;Donald Trump -->
<g id="edge8" class="edge">
<title>Elon Musk&#45;&gt;Donald Trump</title>
<path fill="none" stroke="#000000" d="M1735.4009,-318.5484C1695.685,-331.4034 1636.6467,-350.7724 1630.1613,-360 1620.9611,-373.0903 1620.249,-383.4403 1630.1613,-396 1648.8454,-419.6744 1722.8015,-434.1153 1779.2967,-442.0324"/>
<polygon fill="#000000" stroke="#000000" points="1778.8879,-445.5089 1789.2683,-443.3885 1779.8312,-438.5728 1778.8879,-445.5089"/>
</g>
<!-- Elon Musk&#45;&gt;Peter Thiel -->
<g id="edge21" class="edge">
<title>Elon Musk&#45;&gt;Peter Thiel</title>
<path fill="none" stroke="#000000" d="M1736.0436,-318.7183C1729.7772,-320.5151 1723.3061,-322.3209 1717.1613,-324 1656.017,-340.7078 1640.3056,-343.2922 1579.1613,-360 1572.5999,-361.7929 1565.6664,-363.7304 1558.778,-365.647"/>
<polygon fill="#000000" stroke="#000000" points="1557.4688,-362.3777 1548.7665,-368.4208 1559.338,-369.1236 1557.4688,-362.3777"/>
</g>
<!-- Tesla -->
<g id="node12" class="node">
<title>Tesla</title>
<ellipse fill="none" stroke="#000000" cx="1167.1613" cy="-234" rx="28.7809" ry="18"/>
<text text-anchor="middle" x="1167.1613" y="-229.8" font-family="Times,serif" font-size="14.00" fill="#000000">Tesla</text>
</g>
<!-- Elon Musk&#45;&gt;Tesla -->
<g id="edge22" class="edge">
<title>Elon Musk&#45;&gt;Tesla</title>
<path fill="none" stroke="#000000" d="M1728.3116,-296.9314C1711.7682,-293.7025 1692.646,-290.3004 1675.1613,-288 1467.0112,-260.6142 1406.8023,-306.8914 1204.1613,-252 1202.1963,-251.4677 1200.2102,-250.8308 1198.2321,-250.1193"/>
<polygon fill="#000000" stroke="#000000" points="1199.1193,-246.6971 1188.5426,-246.0774 1196.4243,-253.1576 1199.1193,-246.6971"/>
</g>
<!-- SpaceX -->
<g id="node13" class="node">
<title>SpaceX</title>
<ellipse fill="none" stroke="#000000" cx="1251.1613" cy="-234" rx="37.7179" ry="18"/>
<text text-anchor="middle" x="1251.1613" y="-229.8" font-family="Times,serif" font-size="14.00" fill="#000000">SpaceX</text>
</g>
<!-- Elon Musk&#45;&gt;SpaceX -->
<g id="edge23" class="edge">
<title>Elon Musk&#45;&gt;SpaceX</title>
<path fill="none" stroke="#000000" d="M1727.7663,-297.3049C1711.3254,-294.1577 1692.415,-290.7138 1675.1613,-288 1538.7105,-266.5376 1376.5218,-247.7367 1298.1662,-239.0741"/>
<polygon fill="#000000" stroke="#000000" points="1298.452,-235.5845 1288.1291,-237.9693 1297.6861,-242.5425 1298.452,-235.5845"/>
</g>
<!-- Joshua Kushner&#45;&gt;Jared Kushner -->
<g id="edge10" class="edge">
<title>Joshua Kushner&#45;&gt;Jared Kushner</title>
<path fill="none" stroke="#000000" d="M1924.8144,-323.6168C1912.9339,-333.3729 1896.9392,-345.5908 1882.5004,-355.9733"/>
<polygon fill="#000000" stroke="#000000" points="1880.3558,-353.2033 1874.2217,-361.8418 1884.404,-358.9141 1880.3558,-353.2033"/>
</g>
<!-- Joshua Kushner&#45;&gt;Thrive Capital -->
<g id="edge11" class="edge">
<title>Joshua Kushner&#45;&gt;Thrive Capital</title>
<path fill="none" stroke="#000000" d="M1903.8678,-291.256C1874.3327,-279.8842 1833.3473,-264.1037 1801.8825,-251.9889"/>
<polygon fill="#000000" stroke="#000000" points="1803.0362,-248.6827 1792.4464,-248.3558 1800.521,-255.2152 1803.0362,-248.6827"/>
</g>
<!-- Oscar Health -->
<g id="node8" class="node">
<title>Oscar Health</title>
<ellipse fill="none" stroke="#000000" cx="1850.1613" cy="-162" rx="56.5269" ry="18"/>
<text text-anchor="middle" x="1850.1613" y="-157.8" font-family="Times,serif" font-size="14.00" fill="#000000">Oscar Health</text>
</g>
<!-- Joshua Kushner&#45;&gt;Oscar Health -->
<g id="edge12" class="edge">
<title>Joshua Kushner&#45;&gt;Oscar Health</title>
<path fill="none" stroke="#000000" d="M1930.6955,-288.0535C1914.7005,-263.0179 1885.5779,-217.4347 1867.0837,-188.4872"/>
<polygon fill="#000000" stroke="#000000" points="1869.816,-186.263 1861.4827,-179.7204 1863.9171,-190.0317 1869.816,-186.263"/>
</g>
<!-- Joshua Kushner&#45;&gt;Kickstarter -->
<g id="edge15" class="edge">
<title>Joshua Kushner&#45;&gt;Kickstarter</title>
<path fill="none" stroke="#000000" d="M1939.321,-287.9555C1933.396,-250.3144 1919.6814,-163.1867 1912.5883,-118.1246"/>
<polygon fill="#000000" stroke="#000000" points="1916.0299,-117.4792 1911.0175,-108.1451 1909.1151,-118.5677 1916.0299,-117.4792"/>
</g>
<!-- Thrive Capital&#45;&gt;Oscar Health -->
<g id="edge13" class="edge">
<title>Thrive Capital&#45;&gt;Oscar Health</title>
<path fill="none" stroke="#000000" d="M1777.675,-216.937C1790.3068,-207.3634 1806.2343,-195.292 1819.9398,-184.9047"/>
<polygon fill="#000000" stroke="#000000" points="1822.2813,-187.5218 1828.137,-178.6921 1818.0532,-181.943 1822.2813,-187.5218"/>
</g>
<!-- Stripe -->
<g id="node21" class="node">
<title>Stripe</title>
<ellipse fill="none" stroke="#000000" cx="1605.1613" cy="-162" rx="31.4636" ry="18"/>
<text text-anchor="middle" x="1605.1613" y="-157.8" font-family="Times,serif" font-size="14.00" fill="#000000">Stripe</text>
</g>
<!-- Thrive Capital&#45;&gt;Stripe -->
<g id="edge46" class="edge">
<title>Thrive Capital&#45;&gt;Stripe</title>
<path fill="none" stroke="#000000" d="M1722.9826,-218.5542C1698.0983,-206.6097 1663.7559,-190.1254 1638.5674,-178.0349"/>
<polygon fill="#000000" stroke="#000000" points="1639.9306,-174.807 1629.4007,-173.6349 1636.9014,-181.1176 1639.9306,-174.807"/>
</g>
<!-- Instagram -->
<g id="node26" class="node">
<title>Instagram</title>
<ellipse fill="none" stroke="#000000" cx="846.1613" cy="-90" rx="45.4355" ry="18"/>
<text text-anchor="middle" x="846.1613" y="-85.8" font-family="Times,serif" font-size="14.00" fill="#000000">Instagram</text>
</g>
<!-- Thrive Capital&#45;&gt;Instagram -->
<g id="edge47" class="edge">
<title>Thrive Capital&#45;&gt;Instagram</title>
<path fill="none" stroke="#000000" d="M1740.1512,-216.3306C1720.7168,-194.8703 1684.6276,-159.6082 1645.1613,-144 1576.5005,-116.8459 1071.6299,-97.5743 901.7555,-91.8006"/>
<polygon fill="#000000" stroke="#000000" points="901.6454,-88.295 891.533,-91.4558 901.4093,-95.291 901.6454,-88.295"/>
</g>
<!-- Thrive Capital&#45;&gt;Hot Potato -->
<g id="edge49" class="edge">
<title>Thrive Capital&#45;&gt;Hot Potato</title>
<path fill="none" stroke="#000000" d="M1755.1613,-215.7623C1755.1613,-191.201 1755.1613,-147.2474 1755.1613,-118.3541"/>
<polygon fill="#000000" stroke="#000000" points="1758.6614,-118.0896 1755.1613,-108.0896 1751.6614,-118.0897 1758.6614,-118.0896"/>
</g>
<!-- Etsy -->
<g id="node10" class="node">
<title>Etsy</title>
<ellipse fill="none" stroke="#000000" cx="2722.1613" cy="-450" rx="27" ry="18"/>
<text text-anchor="middle" x="2722.1613" y="-445.8" font-family="Times,serif" font-size="14.00" fill="#000000">Etsy</text>
</g>
<!-- Etsy&#45;&gt;Kushner Properties -->
<g id="edge17" class="edge">
<title>Etsy&#45;&gt;Kushner Properties</title>
<path fill="none" stroke="#000000" d="M2726.6201,-431.9292C2730.4295,-411.7215 2732.8359,-379.3032 2715.1613,-360 2698.9707,-342.3175 2563.8884,-324.4932 2473.6174,-314.3906"/>
<polygon fill="#000000" stroke="#000000" points="2473.9875,-310.9103 2463.6628,-313.2874 2473.2164,-317.8677 2473.9875,-310.9103"/>
</g>
<!-- IRS -->
<g id="node14" class="node">
<title>IRS</title>
<ellipse fill="none" stroke="#000000" cx="689.1613" cy="-522" rx="27" ry="18"/>
<text text-anchor="middle" x="689.1613" y="-517.8" font-family="Times,serif" font-size="14.00" fill="#000000">IRS</text>
</g>
<!-- IRS&#45;&gt;Donald Trump -->
<g id="edge88" class="edge">
<title>IRS&#45;&gt;Donald Trump</title>
<path fill="none" stroke="#000000" d="M716.0811,-520.3262C861.1473,-511.3066 1551.5231,-468.3817 1776.2711,-454.4077"/>
<polygon fill="#000000" stroke="#000000" points="1776.5366,-457.898 1786.3001,-453.7841 1776.1022,-450.9115 1776.5366,-457.898"/>
</g>
<!-- IRS&#45;&gt;SpaceX -->
<g id="edge24" class="edge">
<title>IRS&#45;&gt;SpaceX</title>
<path fill="none" stroke="#000000" d="M685.3754,-503.9695C681.4464,-485.7271 674.9372,-456.7612 668.1613,-432 650.8042,-368.5723 589.1488,-335.9398 634.1613,-288 677.6752,-241.6563 1143.0952,-265.7473 1205.1613,-252 1207.9871,-251.3741 1210.8674,-250.6004 1213.7386,-249.7287"/>
<polygon fill="#000000" stroke="#000000" points="1215.0281,-252.9872 1223.3735,-246.46 1212.7791,-246.3583 1215.0281,-252.9872"/>
</g>
<!-- FBI -->
<g id="node18" class="node">
<title>FBI</title>
<ellipse fill="none" stroke="#000000" cx="632.1613" cy="-450" rx="27" ry="18"/>
<text text-anchor="middle" x="632.1613" y="-445.8" font-family="Times,serif" font-size="14.00" fill="#000000">FBI</text>
</g>
<!-- IRS&#45;&gt;FBI -->
<g id="edge29" class="edge">
<title>IRS&#45;&gt;FBI</title>
<path fill="none" stroke="#000000" d="M676.5112,-506.0209C669.0578,-496.6061 659.4838,-484.5126 651.1399,-473.973"/>
<polygon fill="#000000" stroke="#000000" points="653.7273,-471.6025 644.7761,-465.9345 648.239,-475.9474 653.7273,-471.6025"/>
</g>
<!-- Facebook&#45;&gt;Instagram -->
<g id="edge48" class="edge">
<title>Facebook&#45;&gt;Instagram</title>
<path fill="none" stroke="#000000" d="M846.1613,-143.8314C846.1613,-136.131 846.1613,-126.9743 846.1613,-118.4166"/>
<polygon fill="#000000" stroke="#000000" points="849.6614,-118.4132 846.1613,-108.4133 842.6614,-118.4133 849.6614,-118.4132"/>
</g>
<!-- Facebook&#45;&gt;Hot Potato -->
<g id="edge51" class="edge">
<title>Facebook&#45;&gt;Hot Potato</title>
<path fill="none" stroke="#000000" d="M879.8659,-150.0626C887.749,-147.6849 896.1773,-145.4705 904.1613,-144 1056.9274,-115.8626 1531.0979,-97.569 1697.0723,-91.8883"/>
<polygon fill="#000000" stroke="#000000" points="1697.2109,-95.3857 1707.0863,-91.5481 1696.9732,-88.3898 1697.2109,-95.3857"/>
</g>
<!-- Airbnb -->
<g id="node20" class="node">
<title>Airbnb</title>
<ellipse fill="none" stroke="#000000" cx="1085.1613" cy="-234" rx="35.3216" ry="18"/>
<text text-anchor="middle" x="1085.1613" y="-229.8" font-family="Times,serif" font-size="14.00" fill="#000000">Airbnb</text>
</g>
<!-- Y Combinator&#45;&gt;Airbnb -->
<g id="edge32" class="edge">
<title>Y Combinator&#45;&gt;Airbnb</title>
<path fill="none" stroke="#000000" d="M1561.6003,-293.4625C1553.2125,-291.3826 1544.456,-289.4384 1536.1613,-288 1357.2365,-256.9727 1305.6259,-294.8605 1129.1613,-252 1126.3793,-251.3243 1123.5434,-250.5012 1120.7192,-249.5831"/>
<polygon fill="#000000" stroke="#000000" points="1121.8525,-246.2712 1111.2581,-246.1717 1119.478,-252.8562 1121.8525,-246.2712"/>
</g>
<!-- Y Combinator&#45;&gt;Stripe -->
<g id="edge33" class="edge">
<title>Y Combinator&#45;&gt;Stripe</title>
<path fill="none" stroke="#000000" d="M1605.1613,-287.7623C1605.1613,-263.201 1605.1613,-219.2474 1605.1613,-190.3541"/>
<polygon fill="#000000" stroke="#000000" points="1608.6614,-190.0896 1605.1613,-180.0896 1601.6614,-190.0897 1608.6614,-190.0896"/>
</g>
<!-- FBI&#45;&gt;Palantir -->
<g id="edge28" class="edge">
<title>FBI&#45;&gt;Palantir</title>
<path fill="none" stroke="#000000" d="M621.1148,-433.4219C601.1475,-401.1983 564.3789,-329.6309 601.1613,-288 644.1588,-239.3348 826.9346,-261.5925 891.1613,-252 910.1601,-249.1625 931.0515,-245.5952 949.0245,-242.3863"/>
<polygon fill="#000000" stroke="#000000" points="949.7341,-245.8149 958.9551,-240.5971 948.4929,-238.9258 949.7341,-245.8149"/>
</g>
<!-- Founders Fund&#45;&gt;Oscar Health -->
<g id="edge34" class="edge">
<title>Founders Fund&#45;&gt;Oscar Health</title>
<path fill="none" stroke="#000000" d="M1312.1162,-294.2159C1419.9766,-267.7109 1681.1591,-203.5296 1795.2733,-175.4878"/>
<polygon fill="#000000" stroke="#000000" points="1796.3196,-178.8349 1805.1954,-173.0496 1794.6491,-172.0372 1796.3196,-178.8349"/>
</g>
<!-- Founders Fund&#45;&gt;SpaceX -->
<g id="edge36" class="edge">
<title>Founders Fund&#45;&gt;SpaceX</title>
<path fill="none" stroke="#000000" d="M1260.8809,-287.8314C1259.4905,-280.131 1257.8372,-270.9743 1256.2921,-262.4166"/>
<polygon fill="#000000" stroke="#000000" points="1259.7071,-261.6322 1254.4859,-252.4133 1252.8185,-262.8761 1259.7071,-261.6322"/>
</g>
<!-- Founders Fund&#45;&gt;Facebook -->
<g id="edge35" class="edge">
<title>Founders Fund&#45;&gt;Facebook</title>
<path fill="none" stroke="#000000" d="M1280.3464,-288.494C1296.5676,-268.8046 1316.6783,-236.8609 1298.1613,-216 1272.1513,-186.6976 1015.2046,-170.3891 900.717,-164.5268"/>
<polygon fill="#000000" stroke="#000000" points="900.5859,-161.0158 890.4225,-164.0082 900.2337,-168.007 900.5859,-161.0158"/>
</g>
<!-- Founders Fund&#45;&gt;Palantir -->
<g id="edge37" class="edge">
<title>Founders Fund&#45;&gt;Palantir</title>
<path fill="none" stroke="#000000" d="M1215.2719,-294.5127C1154.7812,-280.2448 1057.7067,-257.1483 1041.1613,-252 1038.3846,-251.136 1035.5355,-250.1924 1032.6798,-249.2046"/>
<polygon fill="#000000" stroke="#000000" points="1033.6348,-245.8284 1023.0405,-245.7266 1031.259,-252.4129 1033.6348,-245.8284"/>
</g>
<!-- Founders Fund&#45;&gt;Airbnb -->
<g id="edge31" class="edge">
<title>Founders Fund&#45;&gt;Airbnb</title>
<path fill="none" stroke="#000000" d="M1227.1722,-291.2946C1200.0256,-280.4801 1162.2733,-265.3951 1129.1613,-252 1126.8182,-251.0521 1124.406,-250.0734 1121.9748,-249.0848"/>
<polygon fill="#000000" stroke="#000000" points="1123.1907,-245.8009 1112.6093,-245.2673 1120.5484,-252.2831 1123.1907,-245.8009"/>
</g>
<!-- Founders Fund&#45;&gt;Stripe -->
<g id="edge40" class="edge">
<title>Founders Fund&#45;&gt;Stripe</title>
<path fill="none" stroke="#000000" d="M1299.6893,-290.997C1365.4021,-263.2473 1505.1571,-204.2305 1570.3372,-176.7058"/>
<polygon fill="#000000" stroke="#000000" points="1571.9148,-179.8389 1579.7655,-172.7243 1569.1916,-173.3903 1571.9148,-179.8389"/>
</g>
<!-- Spotify -->
<g id="node22" class="node">
<title>Spotify</title>
<ellipse fill="none" stroke="#000000" cx="846.1613" cy="-234" rx="36.2992" ry="18"/>
<text text-anchor="middle" x="846.1613" y="-229.8" font-family="Times,serif" font-size="14.00" fill="#000000">Spotify</text>
</g>
<!-- Founders Fund&#45;&gt;Spotify -->
<g id="edge38" class="edge">
<title>Founders Fund&#45;&gt;Spotify</title>
<path fill="none" stroke="#000000" d="M1209.4463,-296.8099C1146.2443,-286.164 1039.1463,-268.0311 947.1613,-252 928.5332,-248.7535 907.9855,-245.104 890.314,-241.9442"/>
<polygon fill="#000000" stroke="#000000" points="890.7383,-238.4646 880.2779,-240.147 889.5043,-245.355 890.7383,-238.4646"/>
</g>
<!-- Lyft -->
<g id="node52" class="node">
<title>Lyft</title>
<ellipse fill="none" stroke="#000000" cx="709.1613" cy="-234" rx="27" ry="18"/>
<text text-anchor="middle" x="709.1613" y="-229.8" font-family="Times,serif" font-size="14.00" fill="#000000">Lyft</text>
</g>
<!-- Founders Fund&#45;&gt;Lyft -->
<g id="edge93" class="edge">
<title>Founders Fund&#45;&gt;Lyft</title>
<path fill="none" stroke="#000000" d="M1210.2672,-296.5123C1192.4407,-293.5529 1172.4812,-290.4308 1154.1613,-288 997.8288,-267.2569 957.1534,-275.1646 801.1613,-252 782.4971,-249.2284 761.8689,-245.2754 744.8837,-241.7795"/>
<polygon fill="#000000" stroke="#000000" points="745.3337,-238.2979 734.8289,-239.6765 743.9006,-245.1497 745.3337,-238.2979"/>
</g>
<!-- Stripe&#45;&gt;Kickstarter -->
<g id="edge41" class="edge">
<title>Stripe&#45;&gt;Kickstarter</title>
<path fill="none" stroke="#000000" d="M1634.2142,-155.0963C1685.5333,-142.9017 1792.8409,-117.4029 1856.8639,-102.1895"/>
<polygon fill="#000000" stroke="#000000" points="1857.8324,-105.5569 1866.7524,-99.8398 1856.2141,-98.7465 1857.8324,-105.5569"/>
</g>
<!-- Shopify -->
<g id="node23" class="node">
<title>Shopify</title>
<ellipse fill="none" stroke="#000000" cx="109.1613" cy="-90" rx="38.2284" ry="18"/>
<text text-anchor="middle" x="109.1613" y="-85.8" font-family="Times,serif" font-size="14.00" fill="#000000">Shopify</text>
</g>
<!-- Stripe&#45;&gt;Shopify -->
<g id="edge42" class="edge">
<title>Stripe&#45;&gt;Shopify</title>
<path fill="none" stroke="#000000" d="M1573.9152,-160.4962C1384.3415,-151.3723 388.7523,-103.4562 157.2769,-92.3157"/>
<polygon fill="#000000" stroke="#000000" points="157.308,-88.8133 147.1513,-91.8284 156.9714,-95.8052 157.308,-88.8133"/>
</g>
<!-- Spotify&#45;&gt;Facebook -->
<g id="edge39" class="edge">
<title>Spotify&#45;&gt;Facebook</title>
<path fill="none" stroke="#000000" d="M846.1613,-215.8314C846.1613,-208.131 846.1613,-198.9743 846.1613,-190.4166"/>
<polygon fill="#000000" stroke="#000000" points="849.6614,-190.4132 846.1613,-180.4133 842.6614,-190.4133 849.6614,-190.4132"/>
</g>
<!-- Shopify&#45;&gt;Breitbart -->
<g id="edge43" class="edge">
<title>Shopify&#45;&gt;Breitbart</title>
<path fill="none" stroke="#000000" d="M141.1285,-80.0631C151.8534,-77.0569 163.94,-74.0205 175.1613,-72 375.0203,-36.0127 616.9954,-23.5258 721.2532,-19.6125"/>
<polygon fill="#000000" stroke="#000000" points="721.6344,-23.101 731.5003,-19.239 721.3794,-16.1057 721.6344,-23.101"/>
</g>
<!-- Google -->
<g id="node25" class="node">
<title>Google</title>
<ellipse fill="none" stroke="#000000" cx="163.1613" cy="-450" rx="36.2818" ry="18"/>
<text text-anchor="middle" x="163.1613" y="-445.8" font-family="Times,serif" font-size="14.00" fill="#000000">Google</text>
</g>
<!-- Google&#45;&gt;Breitbart -->
<g id="edge44" class="edge">
<title>Google&#45;&gt;Breitbart</title>
<path fill="none" stroke="#000000" d="M168.5485,-432.003C176.1641,-404.927 189.1613,-351.9817 189.1613,-306 189.1613,-306 189.1613,-306 189.1613,-162 189.1613,-52.8652 578.4804,-25.947 721.3748,-19.7426"/>
<polygon fill="#000000" stroke="#000000" points="721.7843,-23.2287 731.6296,-19.3148 721.4924,-16.2348 721.7843,-23.2287"/>
</g>
<!-- News Corp -->
<g id="node28" class="node">
<title>News Corp</title>
<ellipse fill="none" stroke="#000000" cx="2246.1613" cy="-306" rx="50.2889" ry="18"/>
<text text-anchor="middle" x="2246.1613" y="-301.8" font-family="Times,serif" font-size="14.00" fill="#000000">News Corp</text>
</g>
<!-- AppNexus -->
<g id="node29" class="node">
<title>AppNexus</title>
<ellipse fill="none" stroke="#000000" cx="2245.1613" cy="-162" rx="47.8668" ry="18"/>
<text text-anchor="middle" x="2245.1613" y="-157.8" font-family="Times,serif" font-size="14.00" fill="#000000">AppNexus</text>
</g>
<!-- News Corp&#45;&gt;AppNexus -->
<g id="edge52" class="edge">
<title>News Corp&#45;&gt;AppNexus</title>
<path fill="none" stroke="#000000" d="M2246.0347,-287.7623C2245.8641,-263.201 2245.5589,-219.2474 2245.3582,-190.3541"/>
<polygon fill="#000000" stroke="#000000" points="2248.8564,-190.065 2245.2869,-180.0896 2241.8566,-190.1137 2248.8564,-190.065"/>
</g>
<!-- AppNexus&#45;&gt;Breitbart -->
<g id="edge53" class="edge">
<title>AppNexus&#45;&gt;Breitbart</title>
<path fill="none" stroke="#000000" d="M2238.4077,-143.9865C2229.2859,-122.5244 2210.7958,-87.6129 2182.1613,-72 2121.5101,-38.93 1072.0729,-22.1915 824.9679,-18.6982"/>
<polygon fill="#000000" stroke="#000000" points="824.87,-15.1966 814.8219,-18.5559 824.7718,-22.1959 824.87,-15.1966"/>
</g>
<!-- Rupert Murdoch&#45;&gt;Donald Trump -->
<g id="edge59" class="edge">
<title>Rupert Murdoch&#45;&gt;Donald Trump</title>
<path fill="none" stroke="#000000" d="M1736.1251,-393.2422C1758.9369,-403.7186 1787.9773,-417.7576 1810.6921,-429.2518"/>
<polygon fill="#000000" stroke="#000000" points="1809.1895,-432.4144 1819.6878,-433.8418 1812.371,-426.1791 1809.1895,-432.4144"/>
</g>
<!-- Rupert Murdoch&#45;&gt;News Corp -->
<g id="edge54" class="edge">
<title>Rupert Murdoch&#45;&gt;News Corp</title>
<path fill="none" stroke="#000000" d="M1749.3439,-365.5474C1758.5595,-363.5095 1768.1223,-361.5583 1777.1613,-360 1923.4201,-334.7858 2097.4261,-318.2237 2186.7469,-310.6892"/>
<polygon fill="#000000" stroke="#000000" points="2187.2774,-314.1572 2196.9513,-309.8368 2186.6946,-307.1815 2187.2774,-314.1572"/>
</g>
<!-- 21st Century Fox -->
<g id="node34" class="node">
<title>21st Century Fox</title>
<ellipse fill="none" stroke="#000000" cx="1455.1613" cy="-306" rx="71.5463" ry="18"/>
<text text-anchor="middle" x="1455.1613" y="-301.8" font-family="Times,serif" font-size="14.00" fill="#000000">21st Century Fox</text>
</g>
<!-- Rupert Murdoch&#45;&gt;21st Century Fox -->
<g id="edge63" class="edge">
<title>Rupert Murdoch&#45;&gt;21st Century Fox</title>
<path fill="none" stroke="#000000" d="M1653.2668,-364.4574C1613.0521,-352.5907 1554.4684,-335.3037 1511.4364,-322.6058"/>
<polygon fill="#000000" stroke="#000000" points="1512.2614,-319.2001 1501.6796,-319.7267 1510.2802,-325.9139 1512.2614,-319.2001"/>
</g>
<!-- Elaine Chao&#45;&gt;Donald Trump -->
<g id="edge57" class="edge">
<title>Elaine Chao&#45;&gt;Donald Trump</title>
<path fill="none" stroke="#000000" d="M2097.7251,-391.2048C2091.8772,-392.8572 2085.8815,-394.494 2080.1613,-396 2022.3759,-411.2132 1955.7609,-427.0579 1908.5064,-437.6177"/>
<polygon fill="#000000" stroke="#000000" points="1907.7306,-434.2046 1898.7268,-439.7886 1909.2477,-441.0382 1907.7306,-434.2046"/>
</g>
<!-- Elaine Chao&#45;&gt;News Corp -->
<g id="edge55" class="edge">
<title>Elaine Chao&#45;&gt;News Corp</title>
<path fill="none" stroke="#000000" d="M2159.0177,-362.0209C2174.823,-351.8603 2195.4813,-338.58 2212.717,-327.4999"/>
<polygon fill="#000000" stroke="#000000" points="2214.8552,-330.2862 2221.3744,-321.9345 2211.0699,-324.398 2214.8552,-330.2862"/>
</g>
<!-- Travis Kalanick&#45;&gt;Donald Trump -->
<g id="edge61" class="edge">
<title>Travis Kalanick&#45;&gt;Donald Trump</title>
<path fill="none" stroke="#000000" d="M2562.4228,-391.7326C2555.0457,-393.359 2547.4354,-394.8473 2540.1613,-396 2315.87,-431.5438 2046.3125,-444.0958 1919.5742,-448.1882"/>
<polygon fill="#000000" stroke="#000000" points="1919.1133,-444.7009 1909.2283,-448.5136 1919.3334,-451.6974 1919.1133,-444.7009"/>
</g>
<!-- Uber -->
<g id="node33" class="node">
<title>Uber</title>
<ellipse fill="none" stroke="#000000" cx="2898.1613" cy="-306" rx="27.5719" ry="18"/>
<text text-anchor="middle" x="2898.1613" y="-301.8" font-family="Times,serif" font-size="14.00" fill="#000000">Uber</text>
</g>
<!-- Travis Kalanick&#45;&gt;Uber -->
<g id="edge62" class="edge">
<title>Travis Kalanick&#45;&gt;Uber</title>
<path fill="none" stroke="#000000" d="M2655.3649,-365.8676C2713.8774,-351.4399 2810.1416,-327.7035 2862.1414,-314.8816"/>
<polygon fill="#000000" stroke="#000000" points="2863.0556,-318.2611 2871.9269,-312.4688 2861.3797,-311.4647 2863.0556,-318.2611"/>
</g>
<!-- Amazon -->
<g id="node35" class="node">
<title>Amazon</title>
<ellipse fill="none" stroke="#000000" cx="871.1613" cy="-306" rx="40.1317" ry="18"/>
<text text-anchor="middle" x="871.1613" y="-301.8" font-family="Times,serif" font-size="14.00" fill="#000000">Amazon</text>
</g>
<!-- Amazon&#45;&gt;Breitbart -->
<g id="edge64" class="edge">
<title>Amazon&#45;&gt;Breitbart</title>
<path fill="none" stroke="#000000" d="M844.4925,-292.4551C829.1864,-283.2152 811.0892,-269.4848 801.1613,-252 763.6625,-185.9577 765.822,-92.665 769.8438,-46.3597"/>
<polygon fill="#000000" stroke="#000000" points="773.3505,-46.4572 770.8274,-36.1672 766.3829,-45.7847 773.3505,-46.4572"/>
</g>
<!-- Amazon&#45;&gt;Ivanka Trump -->
<g id="edge82" class="edge">
<title>Amazon&#45;&gt;Ivanka Trump</title>
<path fill="none" stroke="#000000" d="M900.261,-293.5709C906.7043,-291.3122 913.5765,-289.2717 920.1613,-288 1007.8836,-271.0583 2354.1981,-242.1846 2679.0316,-235.439"/>
<polygon fill="#000000" stroke="#000000" points="2679.324,-238.9337 2689.2492,-235.2271 2679.1788,-231.9352 2679.324,-238.9337"/>
</g>
<!-- Indra Nooyi&#45;&gt;Donald Trump -->
<g id="edge66" class="edge">
<title>Indra Nooyi&#45;&gt;Donald Trump</title>
<path fill="none" stroke="#000000" d="M2278.4644,-391.0871C2271.4429,-392.8908 2264.1285,-394.601 2257.1613,-396 2138.9821,-419.7296 1999.0683,-435.9093 1916.9421,-443.9989"/>
<polygon fill="#000000" stroke="#000000" points="1916.5873,-440.5168 1906.9732,-444.9689 1917.2652,-447.4839 1916.5873,-440.5168"/>
</g>
<!-- PepsiCo -->
<g id="node37" class="node">
<title>PepsiCo</title>
<ellipse fill="none" stroke="#000000" cx="2619.1613" cy="-306" rx="39.6818" ry="18"/>
<text text-anchor="middle" x="2619.1613" y="-301.8" font-family="Times,serif" font-size="14.00" fill="#000000">PepsiCo</text>
</g>
<!-- Indra Nooyi&#45;&gt;PepsiCo -->
<g id="edge67" class="edge">
<title>Indra Nooyi&#45;&gt;PepsiCo</title>
<path fill="none" stroke="#000000" d="M2355.0819,-366.0092C2362.4039,-363.9242 2369.9957,-361.8377 2377.1613,-360 2444.8973,-342.6284 2524.1121,-325.5597 2572.9636,-315.4043"/>
<polygon fill="#000000" stroke="#000000" points="2573.8293,-318.7994 2582.912,-313.3446 2572.4101,-311.9448 2573.8293,-318.7994"/>
</g>
<!-- Doug McMillon&#45;&gt;Donald Trump -->
<g id="edge69" class="edge">
<title>Doug McMillon&#45;&gt;Donald Trump</title>
<path fill="none" stroke="#000000" d="M2408.9806,-391.5627C2401.4102,-393.2147 2393.6087,-394.7554 2386.1613,-396 2219.9644,-423.7748 2021.8977,-439.3659 1918.2486,-446.0478"/>
<polygon fill="#000000" stroke="#000000" points="1917.9707,-442.5583 1908.2129,-446.6858 1918.4149,-449.5442 1917.9707,-442.5583"/>
</g>
<!-- Walmart -->
<g id="node39" class="node">
<title>Walmart</title>
<ellipse fill="none" stroke="#000000" cx="2749.1613" cy="-306" rx="40.1763" ry="18"/>
<text text-anchor="middle" x="2749.1613" y="-301.8" font-family="Times,serif" font-size="14.00" fill="#000000">Walmart</text>
</g>
<!-- Doug McMillon&#45;&gt;Walmart -->
<g id="edge70" class="edge">
<title>Doug McMillon&#45;&gt;Walmart</title>
<path fill="none" stroke="#000000" d="M2504.204,-365.7862C2560.1082,-352.1418 2649.8199,-330.246 2703.7632,-317.0802"/>
<polygon fill="#000000" stroke="#000000" points="2704.8437,-320.4193 2713.7286,-314.648 2703.1839,-313.6189 2704.8437,-320.4193"/>
</g>
<!-- Walmart&#45;&gt;Ivanka Trump -->
<g id="edge83" class="edge">
<title>Walmart&#45;&gt;Ivanka Trump</title>
<path fill="none" stroke="#000000" d="M2749.1613,-287.8314C2749.1613,-280.131 2749.1613,-270.9743 2749.1613,-262.4166"/>
<polygon fill="#000000" stroke="#000000" points="2752.6614,-262.4132 2749.1613,-252.4133 2745.6614,-262.4133 2752.6614,-262.4132"/>
</g>
<!-- Ginni Rometty&#45;&gt;Donald Trump -->
<g id="edge72" class="edge">
<title>Ginni Rometty&#45;&gt;Donald Trump</title>
<path fill="none" stroke="#000000" d="M1314.7952,-389.277C1325.1739,-391.7713 1336.0114,-394.203 1346.1613,-396 1498.5789,-422.9855 1679.1802,-438.2227 1776.578,-445.2232"/>
<polygon fill="#000000" stroke="#000000" points="1776.3779,-448.7177 1786.601,-445.9356 1776.8743,-441.7353 1776.3779,-448.7177"/>
</g>
<!-- IBM -->
<g id="node41" class="node">
<title>IBM</title>
<ellipse fill="none" stroke="#000000" cx="956.1613" cy="-306" rx="27" ry="18"/>
<text text-anchor="middle" x="956.1613" y="-301.8" font-family="Times,serif" font-size="14.00" fill="#000000">IBM</text>
</g>
<!-- Ginni Rometty&#45;&gt;IBM -->
<g id="edge73" class="edge">
<title>Ginni Rometty&#45;&gt;IBM</title>
<path fill="none" stroke="#000000" d="M1218.405,-365.8226C1210.0228,-363.7791 1201.3505,-361.7549 1193.1613,-360 1104.4212,-340.9834 1078.2966,-352.586 992.1613,-324 990.2712,-323.3727 988.3557,-322.662 986.444,-321.8942"/>
<polygon fill="#000000" stroke="#000000" points="987.6093,-318.5816 977.051,-317.7017 984.7561,-324.9737 987.6093,-318.5816"/>
</g>
<!-- Mary Barra&#45;&gt;Donald Trump -->
<g id="edge75" class="edge">
<title>Mary Barra&#45;&gt;Donald Trump</title>
<path fill="none" stroke="#000000" d="M1173.8982,-388.9714C1183.1848,-391.6603 1192.9715,-394.2619 1202.1613,-396 1311.1396,-416.6107 1632.6524,-437.1063 1776.414,-445.7397"/>
<polygon fill="#000000" stroke="#000000" points="1776.2609,-449.2367 1786.4523,-446.3406 1776.6793,-442.2492 1776.2609,-449.2367"/>
</g>
<!-- General Motors -->
<g id="node43" class="node">
<title>General Motors</title>
<ellipse fill="none" stroke="#000000" cx="709.1613" cy="-306" rx="65.7073" ry="18"/>
<text text-anchor="middle" x="709.1613" y="-301.8" font-family="Times,serif" font-size="14.00" fill="#000000">General Motors</text>
</g>
<!-- Mary Barra&#45;&gt;General Motors -->
<g id="edge76" class="edge">
<title>Mary Barra&#45;&gt;General Motors</title>
<path fill="none" stroke="#000000" d="M1086.9787,-370.1577C1011.6218,-357.3612 861.951,-331.9454 775.3219,-317.2348"/>
<polygon fill="#000000" stroke="#000000" points="775.7818,-313.7629 765.337,-315.5393 774.6099,-320.6641 775.7818,-313.7629"/>
</g>
<!-- General Motors&#45;&gt;Lyft -->
<g id="edge94" class="edge">
<title>General Motors&#45;&gt;Lyft</title>
<path fill="none" stroke="#000000" d="M709.1613,-287.8314C709.1613,-280.131 709.1613,-270.9743 709.1613,-262.4166"/>
<polygon fill="#000000" stroke="#000000" points="712.6614,-262.4132 709.1613,-252.4133 705.6614,-262.4133 712.6614,-262.4132"/>
</g>
<!-- Ivanka Trump&#45;&gt;Donald Trump -->
<g id="edge78" class="edge">
<title>Ivanka Trump&#45;&gt;Donald Trump</title>
<path fill="none" stroke="#000000" d="M2708.3779,-247.3593C2673.716,-257.684 2623.0006,-272.7459 2579.1613,-288 2538.0828,-302.2935 2530.1106,-312.5103 2488.1613,-324 2390.0635,-350.8684 2357.1844,-323.7275 2262.1613,-360 2234.5187,-370.5518 2233.8297,-385.5157 2206.1613,-396 2154.9532,-415.4041 2005.5432,-433.9503 1916.3589,-443.4372"/>
<polygon fill="#000000" stroke="#000000" points="1915.9037,-439.9657 1906.325,-444.4932 1916.6364,-446.9272 1915.9037,-439.9657"/>
</g>
<!-- Ivanka Trump&#45;&gt;Jared Kushner -->
<g id="edge80" class="edge">
<title>Ivanka Trump&#45;&gt;Jared Kushner</title>
<path fill="none" stroke="#000000" d="M2690.4829,-238.0832C2568.0894,-246.5238 2289.6174,-266.8774 2196.1613,-288 2150.4944,-298.3214 2142.1808,-311.1454 2097.1613,-324 2022.4801,-345.3241 2001.7892,-342.3247 1926.1613,-360 1919.7579,-361.4966 1913.0427,-363.1347 1906.3345,-364.7938"/>
<polygon fill="#000000" stroke="#000000" points="1905.4092,-361.4172 1896.5483,-367.2254 1907.0973,-368.2106 1905.4092,-361.4172"/>
</g>
<!-- Nordstrom -->
<g id="node45" class="node">
<title>Nordstrom</title>
<ellipse fill="none" stroke="#000000" cx="3057.1613" cy="-522" rx="48.3514" ry="18"/>
<text text-anchor="middle" x="3057.1613" y="-517.8" font-family="Times,serif" font-size="14.00" fill="#000000">Nordstrom</text>
</g>
<!-- Nordstrom&#45;&gt;Ivanka Trump -->
<g id="edge81" class="edge">
<title>Nordstrom&#45;&gt;Ivanka Trump</title>
<path fill="none" stroke="#000000" d="M3056.6054,-503.8818C3054.1454,-458.801 3040.9144,-341.3858 2970.1613,-288 2945.5863,-269.4572 2868.9908,-253.4735 2812.843,-243.8082"/>
<polygon fill="#000000" stroke="#000000" points="2813.4102,-240.3545 2802.9663,-242.1364 2812.2419,-247.2563 2813.4102,-240.3545"/>
</g>
<!-- Macy&#39;s -->
<g id="node46" class="node">
<title>Macy&#39;s</title>
<ellipse fill="none" stroke="#000000" cx="3159.1613" cy="-522" rx="35.0554" ry="18"/>
<text text-anchor="middle" x="3159.1613" y="-517.8" font-family="Times,serif" font-size="14.00" fill="#000000">Macy&#39;s</text>
</g>
<!-- Macy&#39;s&#45;&gt;Ivanka Trump -->
<g id="edge84" class="edge">
<title>Macy&#39;s&#45;&gt;Ivanka Trump</title>
<path fill="none" stroke="#000000" d="M3152.5591,-504.2146C3135.1374,-459.904 3083.4582,-344.1273 3000.1613,-288 2970.3368,-267.9036 2878.3818,-251.6865 2814.4733,-242.4431"/>
<polygon fill="#000000" stroke="#000000" points="2814.8643,-238.9636 2804.471,-241.02 2813.8782,-245.8938 2814.8643,-238.9636"/>
</g>
<!-- Zappos -->
<g id="node47" class="node">
<title>Zappos</title>
<ellipse fill="none" stroke="#000000" cx="3286.1613" cy="-522" rx="36.2818" ry="18"/>
<text text-anchor="middle" x="3286.1613" y="-517.8" font-family="Times,serif" font-size="14.00" fill="#000000">Zappos</text>
</g>
<!-- Zappos&#45;&gt;Ivanka Trump -->
<g id="edge85" class="edge">
<title>Zappos&#45;&gt;Ivanka Trump</title>
<path fill="none" stroke="#000000" d="M3279.1391,-504.3133C3270.8855,-485.0386 3255.7877,-454.0142 3236.1613,-432 3163.0314,-349.9728 3136.2014,-331.2127 3035.1613,-288 2964.7816,-257.9001 2877.5495,-244.5144 2818.0538,-238.6016"/>
<polygon fill="#000000" stroke="#000000" points="2818.3012,-235.1095 2808.0152,-237.6487 2817.6396,-242.0781 2818.3012,-235.1095"/>
</g>
<!-- Bloomingdale&#39;s -->
<g id="node48" class="node">
<title>Bloomingdale&#39;s</title>
<ellipse fill="none" stroke="#000000" cx="2925.1613" cy="-522" rx="65.4988" ry="18"/>
<text text-anchor="middle" x="2925.1613" y="-517.8" font-family="Times,serif" font-size="14.00" fill="#000000">Bloomingdale&#39;s</text>
</g>
<!-- Bloomingdale&#39;s&#45;&gt;Ivanka Trump -->
<g id="edge86" class="edge">
<title>Bloomingdale&#39;s&#45;&gt;Ivanka Trump</title>
<path fill="none" stroke="#000000" d="M2942.3519,-504.3057C2968.8181,-474.8221 3014.5612,-413.5835 2995.1613,-360 2980.981,-320.8333 2970.0197,-310.8036 2935.1613,-288 2898.8693,-264.2586 2851.9349,-250.733 2814.2931,-243.1557"/>
<polygon fill="#000000" stroke="#000000" points="2814.9193,-239.7121 2804.4388,-241.2638 2813.5995,-246.5865 2814.9193,-239.7121"/>
</g>
<!-- Hudson&#39;s Bay -->
<g id="node49" class="node">
<title>Hudson&#39;s Bay</title>
<ellipse fill="none" stroke="#000000" cx="3399.1613" cy="-522" rx="59.2261" ry="18"/>
<text text-anchor="middle" x="3399.1613" y="-517.8" font-family="Times,serif" font-size="14.00" fill="#000000">Hudson&#39;s Bay</text>
</g>
<!-- Hudson&#39;s Bay&#45;&gt;Ivanka Trump -->
<g id="edge87" class="edge">
<title>Hudson&#39;s Bay&#45;&gt;Ivanka Trump</title>
<path fill="none" stroke="#000000" d="M3383.0045,-504.4341C3340.0455,-459.0661 3217.3561,-338.0377 3087.1613,-288 3038.7894,-269.4093 2899.4435,-251.0855 2815.5349,-241.2939"/>
<polygon fill="#000000" stroke="#000000" points="2815.9229,-237.8155 2805.5868,-240.1427 2815.1182,-244.7691 2815.9229,-237.8155"/>
</g>
<!-- Carl Icahn&#45;&gt;Donald Trump -->
<g id="edge90" class="edge">
<title>Carl Icahn&#45;&gt;Donald Trump</title>
<path fill="none" stroke="#000000" d="M1431.4727,-388.6083C1440.2536,-391.3277 1449.4966,-394.0358 1458.1613,-396 1568.6392,-421.0447 1699.1783,-436.0493 1777.5266,-443.6708"/>
<polygon fill="#000000" stroke="#000000" points="1777.4688,-447.1813 1787.7575,-444.653 1778.1378,-440.2133 1777.4688,-447.1813"/>
</g>
<!-- Icahn Enterprises -->
<g id="node51" class="node">
<title>Icahn Enterprises</title>
<ellipse fill="none" stroke="#000000" cx="1073.1613" cy="-306" rx="71.9789" ry="18"/>
<text text-anchor="middle" x="1073.1613" y="-301.8" font-family="Times,serif" font-size="14.00" fill="#000000">Icahn Enterprises</text>
</g>
<!-- Carl Icahn&#45;&gt;Icahn Enterprises -->
<g id="edge91" class="edge">
<title>Carl Icahn&#45;&gt;Icahn Enterprises</title>
<path fill="none" stroke="#000000" d="M1357.7869,-365.9724C1350.9813,-363.8455 1343.8805,-361.7535 1337.1613,-360 1259.0641,-339.6189 1238.2178,-340.2676 1159.1613,-324 1152.4355,-322.616 1145.4159,-321.1622 1138.4138,-319.7059"/>
<polygon fill="#000000" stroke="#000000" points="1138.7074,-316.1919 1128.2036,-317.5783 1137.2793,-323.0447 1138.7074,-316.1919"/>
</g>
<!-- Icahn Enterprises&#45;&gt;Lyft -->
<g id="edge92" class="edge">
<title>Icahn Enterprises&#45;&gt;Lyft</title>
<path fill="none" stroke="#000000" d="M1019.6222,-293.8458C1010.4714,-291.842 1001.0514,-289.8251 992.1613,-288 907.5425,-270.6281 885.9944,-268.2934 801.1613,-252 782.7635,-248.4664 762.3099,-244.4713 745.3691,-241.1441"/>
<polygon fill="#000000" stroke="#000000" points="745.8122,-237.6643 735.3248,-239.1689 744.4615,-244.5327 745.8122,-237.6643"/>
</g>
<!-- You -->
<g id="node53" class="node">
<title>You</title>
<ellipse fill="none" stroke="#000000" cx="1016.1613" cy="-594" rx="27" ry="18"/>
<text text-anchor="middle" x="1016.1613" y="-589.8" font-family="Times,serif" font-size="14.00" fill="#000000">You</text>
</g>
<!-- You&#45;&gt;Oscar Health -->
<g id="edge104" class="edge">
<title>You&#45;&gt;Oscar Health</title>
<path fill="none" stroke="#000000" d="M1043.236,-593.7971C1291.1847,-591.884 3159.5405,-576.275 3203.1613,-540 3234.5943,-513.8604 3222.1613,-490.8816 3222.1613,-450 3222.1613,-450 3222.1613,-450 3222.1613,-306 3222.1613,-122.0429 3000.3831,-241.2072 2818.1613,-216 2795.7977,-212.9064 2130.6361,-177.0494 1916.1359,-165.5356"/>
<polygon fill="#000000" stroke="#000000" points="1916.1379,-162.0308 1905.9646,-164.9898 1915.7627,-169.0207 1916.1379,-162.0308"/>
</g>
<!-- You&#45;&gt;Kickstarter -->
<g id="edge96" class="edge">
<title>You&#45;&gt;Kickstarter</title>
<path fill="none" stroke="#000000" d="M991.914,-585.4821C969.0772,-576.624 934.7887,-561.0927 910.1613,-540 820.0589,-462.8299 760.6647,-389.4487 822.1613,-288 840.0919,-258.4206 861.2494,-269.3701 891.1613,-252 916.7481,-237.1416 919.3445,-226.0838 947.1613,-216 1311.3966,-83.9614 1429.3635,-167.7273 1812.1613,-108 1826.0478,-105.8333 1841.0053,-103.1828 1854.8848,-100.5889"/>
<polygon fill="#000000" stroke="#000000" points="1855.5953,-104.0167 1864.7699,-98.7179 1854.2934,-97.1388 1855.5953,-104.0167"/>
</g>
<!-- You&#45;&gt;Etsy -->
<g id="edge97" class="edge">
<title>You&#45;&gt;Etsy</title>
<path fill="none" stroke="#000000" d="M1043.4258,-593.9301C1253.6264,-593.2917 2610.1287,-587.3422 2681.1613,-540 2701.9395,-526.1516 2712.3417,-498.9925 2717.4512,-478.1151"/>
<polygon fill="#000000" stroke="#000000" points="2720.9099,-478.6809 2719.6123,-468.1658 2714.0694,-477.195 2720.9099,-478.6809"/>
</g>
<!-- You&#45;&gt;Tesla -->
<g id="edge103" class="edge">
<title>You&#45;&gt;Tesla</title>
<path fill="none" stroke="#000000" d="M989.0331,-592.4366C914.9907,-587.7859 711.1065,-572.3062 653.1613,-540 607.4341,-514.5057 577.1613,-502.354 577.1613,-450 577.1613,-450 577.1613,-450 577.1613,-378 577.1613,-334.7517 579.0953,-313.3139 614.1613,-288 707.18,-220.8505 1018.1788,-281.0586 1129.1613,-252 1131.4851,-251.3916 1133.8394,-250.6421 1136.1778,-249.798"/>
<polygon fill="#000000" stroke="#000000" points="1137.6771,-252.9657 1145.5838,-245.9134 1135.005,-246.4957 1137.6771,-252.9657"/>
</g>
<!-- You&#45;&gt;IRS -->
<g id="edge98" class="edge">
<title>You&#45;&gt;IRS</title>
<path fill="none" stroke="#000000" d="M989.3698,-590.9016C938.3097,-584.5651 823.8854,-568.2844 731.1613,-540 727.7965,-538.9736 724.3373,-537.7627 720.9172,-536.4621"/>
<polygon fill="#000000" stroke="#000000" points="722.0755,-533.1549 711.4933,-532.6373 719.443,-539.6411 722.0755,-533.1549"/>
</g>
<!-- You&#45;&gt;Facebook -->
<g id="edge95" class="edge">
<title>You&#45;&gt;Facebook</title>
<path fill="none" stroke="#000000" d="M989.1495,-593.2903C868.4939,-589.9335 382.2417,-574.3589 324.1613,-540 282.9961,-515.6477 265.1613,-497.8289 265.1613,-450 265.1613,-450 265.1613,-450 265.1613,-306 265.1613,-198.1729 646.9422,-170.5362 791.5431,-163.9358"/>
<polygon fill="#000000" stroke="#000000" points="791.6995,-167.4324 801.5359,-163.4962 791.3917,-160.4392 791.6995,-167.4324"/>
</g>
<!-- You&#45;&gt;Airbnb -->
<g id="edge99" class="edge">
<title>You&#45;&gt;Airbnb</title>
<path fill="none" stroke="#000000" d="M989.1678,-592.8295C895.9364,-588.5139 591.6234,-572.0564 563.1613,-540 488.8,-456.248 486.9972,-370.116 563.1613,-288 599.3811,-248.9498 989.3236,-264.2329 1041.1613,-252 1043.9477,-251.3425 1046.7868,-250.5326 1049.6131,-249.6239"/>
<polygon fill="#000000" stroke="#000000" points="1050.8464,-252.8999 1059.0786,-246.2304 1048.484,-246.3106 1050.8464,-252.8999"/>
</g>
<!-- You&#45;&gt;Spotify -->
<g id="edge100" class="edge">
<title>You&#45;&gt;Spotify</title>
<path fill="none" stroke="#000000" d="M989.0524,-593.699C899.1882,-592.2855 612.2993,-584.3233 533.1613,-540 488.949,-515.2377 463.1613,-500.6745 463.1613,-450 463.1613,-450 463.1613,-450 463.1613,-378 463.1613,-311.6884 521.7391,-315.3201 582.1613,-288 601.9528,-279.0512 731.9676,-254.667 801.8658,-241.9523"/>
<polygon fill="#000000" stroke="#000000" points="802.9174,-245.3188 812.1321,-240.0901 801.668,-238.4311 802.9174,-245.3188"/>
</g>
<!-- You&#45;&gt;Shopify -->
<g id="edge101" class="edge">
<title>You&#45;&gt;Shopify</title>
<path fill="none" stroke="#000000" d="M988.8467,-593.7074C862.8297,-592.1336 337.0287,-583.0594 179.1613,-540 93.637,-516.6727 1.1613,-538.6486 1.1613,-450 1.1613,-450 1.1613,-450 1.1613,-234 1.1613,-193.1184 -3.4839,-177.3498 20.1613,-144 32.2445,-126.9576 51.5616,-114.2959 69.1162,-105.5335"/>
<polygon fill="#000000" stroke="#000000" points="71.0677,-108.4837 78.6303,-101.0636 68.0911,-102.1481 71.0677,-108.4837"/>
</g>
<!-- You&#45;&gt;Google -->
<g id="edge102" class="edge">
<title>You&#45;&gt;Google</title>
<path fill="none" stroke="#000000" d="M988.8519,-593.6972C855.8809,-592.0199 279.8927,-582.343 213.1613,-540 191.1122,-526.0092 177.9453,-498.6762 170.7037,-477.7857"/>
<polygon fill="#000000" stroke="#000000" points="173.9959,-476.5899 167.6117,-468.1346 167.3296,-478.7257 173.9959,-476.5899"/>
</g>
<!-- You&#45;&gt;Instagram -->
<g id="edge105" class="edge">
<title>You&#45;&gt;Instagram</title>
<path fill="none" stroke="#000000" d="M988.9592,-593.5295C862.7912,-591.1458 338.1471,-578.9456 277.1613,-540 238.5959,-515.3721 227.1613,-495.7584 227.1613,-450 227.1613,-450 227.1613,-450 227.1613,-234 227.1613,-118.863 638.5712,-95.7498 790.5853,-91.1394"/>
<polygon fill="#000000" stroke="#000000" points="790.7496,-94.6362 800.6448,-90.85 790.5482,-87.6391 790.7496,-94.6362"/>
</g>
<!-- You&#45;&gt;News Corp -->
<g id="edge114" class="edge">
<title>You&#45;&gt;News Corp</title>
<path fill="none" stroke="#000000" d="M1043.3905,-592.9668C1250.506,-584.8299 2572.1364,-527.893 2682.1613,-396 2692.4105,-383.7137 2692.9239,-371.8392 2682.1613,-360 2625.551,-297.7265 2387.7144,-340.3615 2305.1613,-324 2301.025,-323.1802 2296.7654,-322.1868 2292.5182,-321.0925"/>
<polygon fill="#000000" stroke="#000000" points="2293.2646,-317.6679 2282.6944,-318.3905 2291.4081,-324.4173 2293.2646,-317.6679"/>
</g>
<!-- You&#45;&gt;Uber -->
<g id="edge106" class="edge">
<title>You&#45;&gt;Uber</title>
<path fill="none" stroke="#000000" d="M1043.32,-593.6311C1258.7403,-590.6474 2685.122,-569.8081 2770.1613,-540 2820.4922,-522.3579 2938.3099,-443.7028 2962.1613,-396 2969.3167,-381.6892 2968.9035,-374.5101 2962.1613,-360 2955.0255,-344.6426 2941.1329,-332.0808 2928.1099,-322.9501"/>
<polygon fill="#000000" stroke="#000000" points="2930.0341,-320.0265 2919.7572,-317.4504 2926.1846,-325.873 2930.0341,-320.0265"/>
</g>
<!-- You&#45;&gt;21st Century Fox -->
<g id="edge107" class="edge">
<title>You&#45;&gt;21st Century Fox</title>
<path fill="none" stroke="#000000" d="M1023.0872,-576.187C1026.9791,-565.7494 1031.7291,-552.2494 1035.1613,-540 1057.2214,-461.2689 1013.302,-415.6964 1073.1613,-360 1116.3478,-319.8169 1277.7747,-332.4114 1336.1613,-324 1351.5995,-321.7759 1368.1526,-319.3184 1383.8578,-316.9527"/>
<polygon fill="#000000" stroke="#000000" points="1384.6708,-320.3696 1394.0356,-315.4147 1383.6248,-313.4482 1384.6708,-320.3696"/>
</g>
<!-- You&#45;&gt;Amazon -->
<g id="edge108" class="edge">
<title>You&#45;&gt;Amazon</title>
<path fill="none" stroke="#000000" d="M997.865,-580.7125C960.1735,-552.0583 874.7607,-480.1915 843.1613,-396 835.2289,-374.8653 843.9767,-350.3736 853.7309,-332.2801"/>
<polygon fill="#000000" stroke="#000000" points="856.8597,-333.8614 858.8405,-323.4533 850.8015,-330.3544 856.8597,-333.8614"/>
</g>
<!-- You&#45;&gt;PepsiCo -->
<g id="edge109" class="edge">
<title>You&#45;&gt;PepsiCo</title>
<path fill="none" stroke="#000000" d="M1043.4576,-593.8254C1255.3949,-592.3845 2631.905,-581.447 2708.1613,-540 2779.2363,-501.3691 2788.6332,-420.7022 2735.1613,-360 2716.6419,-338.9765 2688.2146,-325.5612 2664.1371,-317.3604"/>
<polygon fill="#000000" stroke="#000000" points="2665.0612,-313.9812 2654.47,-314.2614 2662.9242,-320.6471 2665.0612,-313.9812"/>
</g>
<!-- You&#45;&gt;Walmart -->
<g id="edge110" class="edge">
<title>You&#45;&gt;Walmart</title>
<path fill="none" stroke="#000000" d="M1043.3663,-593.9178C1257.6013,-593.1765 2666.7348,-586.5381 2742.1613,-540 2809.1238,-498.6843 2778.8119,-386.0373 2760.0541,-333.5716"/>
<polygon fill="#000000" stroke="#000000" points="2763.2371,-332.0876 2756.4888,-323.9199 2756.6708,-334.5132 2763.2371,-332.0876"/>
</g>
<!-- You&#45;&gt;IBM -->
<g id="edge111" class="edge">
<title>You&#45;&gt;IBM</title>
<path fill="none" stroke="#000000" d="M1018.0371,-575.9355C1021.5189,-535.6342 1026.2021,-435.9509 997.1613,-360 992.8483,-348.7201 985.4074,-337.8085 978.0383,-328.7816"/>
<polygon fill="#000000" stroke="#000000" points="980.5644,-326.3515 971.3828,-321.0649 975.2636,-330.9234 980.5644,-326.3515"/>
</g>
<!-- You&#45;&gt;General Motors -->
<g id="edge112" class="edge">
<title>You&#45;&gt;General Motors</title>
<path fill="none" stroke="#000000" d="M989.0441,-591.5106C932.1931,-585.7509 803.2116,-569.6778 772.1613,-540 714.6212,-485.0033 707.7204,-383.4926 708.0374,-334.2555"/>
<polygon fill="#000000" stroke="#000000" points="711.5408,-334.0828 708.2144,-324.0238 704.5418,-333.9617 711.5408,-334.0828"/>
</g>
<!-- You&#45;&gt;Nordstrom -->
<g id="edge113" class="edge">
<title>You&#45;&gt;Nordstrom</title>
<path fill="none" stroke="#000000" d="M1043.2727,-593.7104C1266.4815,-591.267 2797.6333,-573.3651 2999.1613,-540 3003.5511,-539.2732 3008.0699,-538.2969 3012.5557,-537.173"/>
<polygon fill="#000000" stroke="#000000" points="3013.5395,-540.5325 3022.2606,-534.5166 3011.6914,-533.7809 3013.5395,-540.5325"/>
</g>
<!-- You&#45;&gt;Macy&#39;s -->
<g id="edge116" class="edge">
<title>You&#45;&gt;Macy&#39;s</title>
<path fill="none" stroke="#000000" d="M1043.3941,-593.8819C1274.3853,-592.804 2902.0489,-583.6867 3114.1613,-540 3117.1952,-539.3751 3120.287,-538.5578 3123.3574,-537.6162"/>
<polygon fill="#000000" stroke="#000000" points="3124.696,-540.8565 3132.9943,-534.2694 3122.3995,-534.2439 3124.696,-540.8565"/>
</g>
<!-- You&#45;&gt;Zappos -->
<g id="edge117" class="edge">
<title>You&#45;&gt;Zappos</title>
<path fill="none" stroke="#000000" d="M1043.4437,-593.8662C1282.0398,-592.6269 3010.4453,-582.2259 3236.1613,-540 3240.3442,-539.2175 3244.643,-538.1326 3248.88,-536.8797"/>
<polygon fill="#000000" stroke="#000000" points="3250.1518,-540.1464 3258.571,-533.7147 3247.9785,-533.4923 3250.1518,-540.1464"/>
</g>
<!-- You&#45;&gt;Bloomingdale&#39;s -->
<g id="edge118" class="edge">
<title>You&#45;&gt;Bloomingdale&#39;s</title>
<path fill="none" stroke="#000000" d="M1043.2872,-593.9237C1241.9893,-593.2566 2475.491,-587.2401 2846.1613,-540 2853.0053,-539.1278 2860.1266,-537.929 2867.1678,-536.5609"/>
<polygon fill="#000000" stroke="#000000" points="2868.2981,-539.9016 2877.3849,-534.4536 2866.884,-533.0459 2868.2981,-539.9016"/>
</g>
<!-- You&#45;&gt;Hudson&#39;s Bay -->
<g id="edge119" class="edge">
<title>You&#45;&gt;Hudson&#39;s Bay</title>
<path fill="none" stroke="#000000" d="M1043.4244,-593.7534C1287.5088,-591.4952 3093.7135,-573.715 3331.1613,-540 3336.3188,-539.2677 3341.6456,-538.2797 3346.9419,-537.1415"/>
<polygon fill="#000000" stroke="#000000" points="3348.0891,-540.4682 3357.0372,-534.7953 3346.5045,-533.6499 3348.0891,-540.4682"/>
</g>
<!-- You&#45;&gt;Lyft -->
<g id="edge115" class="edge">
<title>You&#45;&gt;Lyft</title>
<path fill="none" stroke="#000000" d="M988.9788,-592.6156C893.7506,-587.5572 575.7189,-568.8495 478.1613,-540 394.2909,-515.198 303.1613,-537.4607 303.1613,-450 303.1613,-450 303.1613,-450 303.1613,-378 303.1613,-337.1184 292.2679,-315.8871 322.1613,-288 347.5698,-264.2968 580.1995,-243.9453 672.0791,-236.7636"/>
<polygon fill="#000000" stroke="#000000" points="672.6086,-240.2332 682.3092,-235.9731 672.0692,-233.254 672.6086,-240.2332"/>
</g>
<!-- #DeleteUber -->
<g id="node54" class="node">
<title>#DeleteUber</title>
<ellipse fill="none" stroke="#000000" cx="2898.1613" cy="-378" rx="55.0664" ry="18"/>
<text text-anchor="middle" x="2898.1613" y="-373.8" font-family="Times,serif" font-size="14.00" fill="#000000">#DeleteUber</text>
</g>
<!-- #DeleteUber&#45;&gt;Uber -->
<g id="edge120" class="edge">
<title>#DeleteUber&#45;&gt;Uber</title>
<path fill="none" stroke="#000000" d="M2898.1613,-359.8314C2898.1613,-352.131 2898.1613,-342.9743 2898.1613,-334.4166"/>
<polygon fill="#000000" stroke="#000000" points="2901.6614,-334.4132 2898.1613,-324.4133 2894.6614,-334.4133 2901.6614,-334.4132"/>
</g>
<!-- #DeleteShopify -->
<g id="node55" class="node">
<title>#DeleteShopify</title>
<ellipse fill="none" stroke="#000000" cx="95.1613" cy="-162" rx="65.7235" ry="18"/>
<text text-anchor="middle" x="95.1613" y="-157.8" font-family="Times,serif" font-size="14.00" fill="#000000">#DeleteShopify</text>
</g>
<!-- #DeleteShopify&#45;&gt;Shopify -->
<g id="edge121" class="edge">
<title>#DeleteShopify&#45;&gt;Shopify</title>
<path fill="none" stroke="#000000" d="M98.6941,-143.8314C100.1914,-136.131 101.9719,-126.9743 103.6359,-118.4166"/>
<polygon fill="#000000" stroke="#000000" points="107.1078,-118.8975 105.581,-108.4133 100.2365,-117.5614 107.1078,-118.8975"/>
</g>
<!-- #DeleteAmazon -->
<g id="node56" class="node">
<title>#DeleteAmazon</title>
<ellipse fill="none" stroke="#000000" cx="920.1613" cy="-378" rx="67.6269" ry="18"/>
<text text-anchor="middle" x="920.1613" y="-373.8" font-family="Times,serif" font-size="14.00" fill="#000000">#DeleteAmazon</text>
</g>
<!-- #DeleteAmazon&#45;&gt;Amazon -->
<g id="edge122" class="edge">
<title>#DeleteAmazon&#45;&gt;Amazon</title>
<path fill="none" stroke="#000000" d="M908.049,-360.2022C902.1905,-351.5938 895.0495,-341.1011 888.6167,-331.6488"/>
<polygon fill="#000000" stroke="#000000" points="891.4851,-329.6425 882.9653,-323.3446 885.698,-333.5809 891.4851,-329.6425"/>
</g>
<!-- #GrabYourWallet -->
<g id="node57" class="node">
<title>#GrabYourWallet</title>
<ellipse fill="none" stroke="#000000" cx="3159.1613" cy="-594" rx="72.2306" ry="18"/>
<text text-anchor="middle" x="3159.1613" y="-589.8" font-family="Times,serif" font-size="14.00" fill="#000000">#GrabYourWallet</text>
</g>
<!-- #GrabYourWallet&#45;&gt;Nordstrom -->
<g id="edge123" class="edge">
<title>#GrabYourWallet&#45;&gt;Nordstrom</title>
<path fill="none" stroke="#000000" d="M3134.9887,-576.937C3121.0027,-567.0645 3103.2538,-554.5359 3088.2386,-543.9369"/>
<polygon fill="#000000" stroke="#000000" points="3089.9509,-540.8615 3079.7628,-537.954 3085.9141,-546.5803 3089.9509,-540.8615"/>
</g>
<!-- #GrabYourWallet&#45;&gt;Macy&#39;s -->
<g id="edge124" class="edge">
<title>#GrabYourWallet&#45;&gt;Macy&#39;s</title>
<path fill="none" stroke="#000000" d="M3159.1613,-575.8314C3159.1613,-568.131 3159.1613,-558.9743 3159.1613,-550.4166"/>
<polygon fill="#000000" stroke="#000000" points="3162.6614,-550.4132 3159.1613,-540.4133 3155.6614,-550.4133 3162.6614,-550.4132"/>
</g>
<!-- #GrabYourWallet&#45;&gt;Zappos -->
<g id="edge125" class="edge">
<title>#GrabYourWallet&#45;&gt;Zappos</title>
<path fill="none" stroke="#000000" d="M3188.2977,-577.4817C3207.7305,-566.4647 3233.3076,-551.9643 3253.4401,-540.5506"/>
<polygon fill="#000000" stroke="#000000" points="3255.2923,-543.5239 3262.2654,-535.5473 3251.84,-537.4344 3255.2923,-543.5239"/>
</g>
<!-- #GrabYourWallet&#45;&gt;Bloomingdale&#39;s -->
<g id="edge126" class="edge">
<title>#GrabYourWallet&#45;&gt;Bloomingdale&#39;s</title>
<path fill="none" stroke="#000000" d="M3113.4883,-579.9468C3074.7832,-568.0375 3019.2376,-550.9466 2978.4984,-538.4114"/>
<polygon fill="#000000" stroke="#000000" points="2979.328,-535.0048 2968.7409,-535.4091 2977.2694,-541.6953 2979.328,-535.0048"/>
</g>
<!-- #GrabYourWallet&#45;&gt;Hudson&#39;s Bay -->
<g id="edge127" class="edge">
<title>#GrabYourWallet&#45;&gt;Hudson&#39;s Bay</title>
<path fill="none" stroke="#000000" d="M3205.4357,-580.1177C3246.0411,-567.9361 3305.0345,-550.238 3347.2389,-537.5767"/>
<polygon fill="#000000" stroke="#000000" points="3348.475,-540.8601 3357.0475,-534.6341 3346.4635,-534.1553 3348.475,-540.8601"/>
</g>
<!-- #DeleteLyft -->
<g id="node58" class="node">
<title>#DeleteLyft</title>
<ellipse fill="none" stroke="#000000" cx="383.1613" cy="-306" rx="52.1934" ry="18"/>
<text text-anchor="middle" x="383.1613" y="-301.8" font-family="Times,serif" font-size="14.00" fill="#000000">#DeleteLyft</text>
</g>
<!-- #DeleteLyft&#45;&gt;Lyft -->
<g id="edge128" class="edge">
<title>#DeleteLyft&#45;&gt;Lyft</title>
<path fill="none" stroke="#000000" d="M423.9007,-294.4684C432.2334,-292.2285 440.9616,-289.9677 449.1613,-288 528.4718,-268.9679 622.336,-250.4513 672.7605,-240.8273"/>
<polygon fill="#000000" stroke="#000000" points="673.6697,-244.2172 682.8403,-238.9116 672.3627,-237.3403 673.6697,-244.2172"/>
</g>
<!-- #Baycott -->
<g id="node59" class="node">
<title>#Baycott</title>
<ellipse fill="none" stroke="#000000" cx="3399.1613" cy="-594" rx="42.0697" ry="18"/>
<text text-anchor="middle" x="3399.1613" y="-589.8" font-family="Times,serif" font-size="14.00" fill="#000000">#Baycott</text>
</g>
<!-- #Baycott&#45;&gt;Hudson&#39;s Bay -->
<g id="edge129" class="edge">
<title>#Baycott&#45;&gt;Hudson&#39;s Bay</title>
<path fill="none" stroke="#000000" d="M3399.1613,-575.8314C3399.1613,-568.131 3399.1613,-558.9743 3399.1613,-550.4166"/>
<polygon fill="#000000" stroke="#000000" points="3402.6614,-550.4132 3399.1613,-540.4133 3395.6614,-550.4133 3402.6614,-550.4132"/>
</g>
<!-- #Resist -->
<g id="node60" class="node">
<title>#Resist</title>
<ellipse fill="none" stroke="#000000" cx="1847.1613" cy="-522" rx="36.2992" ry="18"/>
<text text-anchor="middle" x="1847.1613" y="-517.8" font-family="Times,serif" font-size="14.00" fill="#000000">#Resist</text>
</g>
<!-- #Resist&#45;&gt;Donald Trump -->
<g id="edge130" class="edge">
<title>#Resist&#45;&gt;Donald Trump</title>
<path fill="none" stroke="#000000" d="M1847.1613,-503.8314C1847.1613,-496.131 1847.1613,-486.9743 1847.1613,-478.4166"/>
<polygon fill="#000000" stroke="#000000" points="1850.6614,-478.4132 1847.1613,-468.4133 1843.6614,-478.4133 1850.6614,-478.4132"/>
</g>
</g>
</svg>
