<svg width="1440" height="778" xmlns="http://www.w3.org/2000/svg" style="animation-delay: 0s; animation-direction: normal; animation-duration: 0s; animation-fill-mode: none; animation-iteration-count: 1; animation-name: none; animation-play-state: running; animation-timing-function: ease; background-attachment: scroll; background-blend-mode: normal; background-clip: border-box; background-color: rgba(0, 0, 0, 0); background-image: none; background-origin: padding-box; background-position: 0% 0%; background-repeat: repeat; background-size: auto; border-bottom-color: rgb(0, 0, 0); border-bottom-left-radius: 0px; border-bottom-right-radius: 0px; border-bottom-style: none; border-bottom-width: 0px; border-collapse: separate; border-image-outset: 0px; border-image-repeat: stretch; border-image-slice: 100%; border-image-source: none; border-image-width: 1; border-left-color: rgb(0, 0, 0); border-left-style: none; border-left-width: 0px; border-right-color: rgb(0, 0, 0); border-right-style: none; border-right-width: 0px; border-top-color: rgb(0, 0, 0); border-top-left-radius: 0px; border-top-right-radius: 0px; border-top-style: none; border-top-width: 0px; bottom: auto; box-shadow: none; box-sizing: content-box; break-after: auto; break-before: auto; break-inside: auto; caption-side: top; clear: none; clip: auto; color: rgb(0, 0, 0); content: ; cursor: auto; direction: ltr; display: inline; empty-cells: show; float: none; font-family: Times; font-kerning: auto; font-size: 16px; font-stretch: normal; font-style: normal; font-variant: normal; font-variant-ligatures: normal; font-variant-caps: normal; font-variant-numeric: normal; font-weight: normal; height: 778px; image-rendering: auto; isolation: auto; left: auto; letter-spacing: normal; line-height: normal; list-style-image: none; list-style-position: outside; list-style-type: disc; margin-bottom: 0px; margin-left: 0px; margin-right: 0px; margin-top: 0px; max-height: none; max-width: none; min-height: 0px; min-width: 0px; mix-blend-mode: normal; object-fit: fill; object-position: 50% 50%; offset-distance: 0px; offset-path: none; offset-rotate: auto 0deg; offset-rotation: auto 0deg; opacity: 1; orphans: 2; outline-color: rgb(0, 0, 0); outline-offset: 0px; outline-style: none; outline-width: 0px; overflow-anchor: auto; overflow-wrap: normal; overflow-x: hidden; overflow-y: hidden; padding-bottom: 0px; padding-left: 0px; padding-right: 0px; padding-top: 0px; pointer-events: auto; position: static; resize: none; right: auto; speak: normal; table-layout: auto; tab-size: 8; text-align: start; text-align-last: auto; text-decoration: none; text-indent: 0px; text-rendering: auto; text-shadow: none; text-size-adjust: auto; text-overflow: clip; text-transform: none; top: auto; touch-action: auto; transition-delay: 0s; transition-duration: 0s; transition-property: all; transition-timing-function: ease; unicode-bidi: normal; vertical-align: baseline; visibility: visible; white-space: normal; widows: 2; width: 1440px; will-change: auto; word-break: normal; word-spacing: 0px; word-wrap: normal; z-index: auto; zoom: 1; -webkit-appearance: none; backface-visibility: visible; -webkit-background-clip: border-box; -webkit-background-origin: padding-box; -webkit-border-horizontal-spacing: 0px; -webkit-border-image: none; -webkit-border-vertical-spacing: 0px; -webkit-box-align: stretch; -webkit-box-decoration-break: slice; -webkit-box-direction: normal; -webkit-box-flex: 0; -webkit-box-flex-group: 1; -webkit-box-lines: single; -webkit-box-ordinal-group: 1; -webkit-box-orient: horizontal; -webkit-box-pack: start; -webkit-box-reflect: none; column-count: auto; column-gap: normal; column-rule-color: rgb(0, 0, 0); column-rule-style: none; column-rule-width: 0px; column-span: none; column-width: auto; align-content: stretch; align-items: stretch; align-self: stretch; flex-basis: auto; flex-grow: 0; flex-shrink: 1; flex-direction: row; flex-wrap: nowrap; justify-content: flex-start; -webkit-font-smoothing: auto; -webkit-highlight: none; hyphens: manual; -webkit-hyphenate-character: auto; -webkit-line-break: auto; -webkit-line-clamp: none; -webkit-locale: auto; -webkit-margin-before-collapse: collapse; -webkit-margin-after-collapse: collapse; -webkit-mask-box-image: none; -webkit-mask-box-image-outset: 0px; -webkit-mask-box-image-repeat: stretch; -webkit-mask-box-image-slice: 0 fill; -webkit-mask-box-image-source: none; -webkit-mask-box-image-width: auto; -webkit-mask-clip: border-box; -webkit-mask-composite: source-over; -webkit-mask-image: none; -webkit-mask-origin: border-box; -webkit-mask-position: 0% 0%; -webkit-mask-repeat: repeat; -webkit-mask-size: auto; order: 0; perspective: none; perspective-origin: 720px 389px; -webkit-print-color-adjust: economy; -webkit-rtl-ordering: logical; shape-outside: none; shape-image-threshold: 0; shape-margin: 0px; -webkit-tap-highlight-color: rgba(0, 0, 0, 0.4); -webkit-text-combine: none; -webkit-text-decorations-in-effect: none; -webkit-text-emphasis-color: rgb(0, 0, 0); -webkit-text-emphasis-position: over; -webkit-text-emphasis-style: none; -webkit-text-fill-color: rgb(0, 0, 0); -webkit-text-orientation: vertical-right; -webkit-text-security: none; -webkit-text-stroke-color: rgb(0, 0, 0); -webkit-text-stroke-width: 0px; transform: none; transform-origin: 720px 389px; transform-style: flat; -webkit-user-drag: auto; -webkit-user-modify: read-only; user-select: text; -webkit-writing-mode: horizontal-tb; -webkit-app-region: no-drag; buffered-rendering: auto; clip-path: none; clip-rule: nonzero; mask: none; filter: none; flood-color: rgb(0, 0, 0); flood-opacity: 1; lighting-color: rgb(255, 255, 255); stop-color: rgb(0, 0, 0); stop-opacity: 1; color-interpolation: sRGB; color-interpolation-filters: linearRGB; color-rendering: auto; fill: rgb(0, 0, 0); fill-opacity: 1; fill-rule: nonzero; marker-end: none; marker-mid: none; marker-start: none; mask-type: luminance; shape-rendering: auto; stroke: none; stroke-dasharray: none; stroke-dashoffset: 0px; stroke-linecap: butt; stroke-linejoin: miter; stroke-miterlimit: 4; stroke-opacity: 1; stroke-width: 1px; alignment-baseline: auto; baseline-shift: 0px; dominant-baseline: auto; text-anchor: start; writing-mode: horizontal-tb; vector-effect: none; paint-order: fill stroke markers; d: none; cx: 0px; cy: 0px; x: 0px; y: 0px; r: 0px; rx: auto; ry: auto;" version="1.1" xmlns:xlink="http://www.w3.org/1999/xlink"><style type="text/css">text { font-family: "Coming Soon", sans-serif; font-size: 10px; pointer-events: none; display: block; max-width: 30px; }
.node circle { fill: white; }
.node.person circle { stroke-width: 0; }
.node.organization circle { stroke: rgb(153, 153, 153); stroke-width: 1px; }
.node.action circle { stroke-width: 0; }
.node.action tspan { fill: red; }
.link { fill: none; stroke: rgb(153, 153, 153); stroke-width: 1px; opacity: 0.5; }
.link.association { stroke-dasharray: 0, 2, 1; }
.link.financial-transaction { }
.link.action { stroke: red; }
marker { fill: rgb(153, 153, 153); }</style><svg xmlns="http://www.w3.org/2000/svg"><defs><marker id="markerend" viewBox="0 -5 10 10" refX="45" refY="-4" markerWidth="8" markerHeight="8" markerUnits="userSpaceOnUse" orient="auto"><path d="M0,-5L10,0L0,5"/></marker></defs><defs><marker id="markerstart" viewBox="0 -5 10 10" refX="-35" refY="-6" markerWidth="8" markerHeight="8" markerUnits="userSpaceOnUse" orient="auto"><path d="M0,0L10,5L10,-5Z"/></marker></defs><g><path class="link association" marker-end="url(#markerend)" marker-start="url(#markerstart)" d="M1401.8101046652114,391.7227652735033A301.74031820561635,301.74031820561635 0 0,1 1109.698080682141,316.10672811642473"/><path class="link association" marker-end="url(#markerend)" marker-start="url(#markerstart)" d="M1401.8101046652114,391.7227652735033A180.16759869766994,180.16759869766994 0 0,1 1281.6952868308333,257.4365256318378"/><path class="link association" marker-end="url(#markerend)" marker-start="url(#markerstart)" d="M1401.8101046652114,391.7227652735033A361.55965156721555,361.55965156721555 0 0,1 1205.729565685982,695.4953839787138"/><path class="link association" marker-end="url(#markerend)" marker-start="url(#markerstart)" d="M1401.8101046652114,391.7227652735033A214.80176454784254,214.80176454784254 0 0,1 1200.1683107782228,317.6931427504619"/><path class="link association" marker-end="url(#markerend)" marker-start="url(#markerstart)" d="M1281.6952868308333,257.4365256318378A123.2703981963191,123.2703981963191 0 0,1 1283.1871976334392,134.17515587782225"/><path class="link influence-control" marker-end="url(#markerend)" d="M1283.1871976334392,134.17515587782225A425.5990806218858,425.5990806218858 0 0,1 858.9794188424975,99.79001607223307"/><path class="link influence-control" marker-end="url(#markerend)" d="M1283.1871976334392,134.17515587782225A552.7403727105212,552.7403727105212 0 0,1 733.1318521607803,188.5905630812952"/><path class="link financial-transaction" marker-end="url(#markerend)" d="M858.9794188424975,99.79001607223307A154.02320341045336,154.02320341045336 0 0,1 733.1318521607803,188.5905630812952"/><path class="link financial-transaction" marker-end="url(#markerend)" d="M1281.6952868308333,257.4365256318378A451.1553247224937,451.1553247224937 0 0,1 858.9794188424975,99.79001607223307"/><path class="link financial-transaction" marker-end="url(#markerend)" d="M1283.1871976334392,134.17515587782225A648.3371175755235,648.3371175755235 0 0,1 667.2984644425331,336.71425421352427"/><path class="link financial-transaction" marker-end="url(#markerend)" d="M1281.6952868308333,257.4365256318378A619.4904467462852,619.4904467462852 0 0,1 667.2984644425331,336.71425421352427"/><path class="link financial-transaction" marker-end="url(#markerend)" d="M663.7067886962632,264.53876798599595A416.3627937764946,416.3627937764946 0 0,1 1043.9746100732405,434.10987421159996"/><path class="link influence-control" marker-end="url(#markerend)" d="M1281.6952868308333,257.4365256318378A296.18337606367123,296.18337606367123 0 0,1 1043.9746100732405,434.10987421159996"/><path class="link financial-transaction" marker-end="url(#markerend)" d="M1109.698080682141,316.10672811642473A331.1385922907072,331.1385922907072 0 0,1 858.9794188424975,99.79001607223307"/><path class="link association" marker-end="url(#markerend)" marker-start="url(#markerstart)" d="M1109.698080682141,316.10672811642473A90.4841380852417,90.4841380852417 0 0,1 1200.1683107782228,317.6931427504619"/><path class="link influence-control" marker-end="url(#markerend)" d="M1200.1683107782228,317.6931427504619A784.5671876188946,784.5671876188946 0 0,1 419.72997444246346,398.0776876934667"/><path class="link influence-control" marker-end="url(#markerend)" d="M1200.1683107782228,317.6931427504619A354.1610606345233,354.1610606345233 0 0,1 846.0326187915691,313.45421235418837"/><path class="link financial-transaction" marker-end="url(#markerend)" d="M739.3039249140948,477.2003780632516A195.4579772769882,195.4579772769882 0 0,1 846.0326187915691,313.45421235418837"/><path class="link financial-transaction" marker-end="url(#markerend)" d="M1109.698080682141,316.10672811642473A944.1011297174472,944.1011297174472 0 0,1 200.94691663505284,572.0330162871056"/><path class="link influence-control" marker-end="url(#markerend)" d="M1109.698080682141,316.10672811642473A270.5859713615234,270.5859713615234 0 0,1 948.403665194781,98.84909434893189"/><path class="link influence-control" marker-end="url(#markerend)" d="M1109.698080682141,316.10672811642473A269.9693739253306,269.9693739253306 0 0,1 851.397281494335,394.61889275717135"/><path class="link financial-transaction" marker-end="url(#markerend)" d="M852.670360874295,478.27973214399833A83.67052514485695,83.67052514485695 0 0,1 851.397281494335,394.61889275717135"/><path class="link financial-transaction" marker-end="url(#markerend)" d="M739.3039249140948,477.2003780632516A113.37157407194196,113.37157407194196 0 0,1 852.670360874295,478.27973214399833"/><path class="link influence-control" marker-end="url(#markerend)" d="M1109.698080682141,316.10672811642473A222.95423797993118,222.95423797993118 0 0,1 1040.6697613507613,104.10747490194552"/><path class="link financial-transaction" marker-end="url(#markerend)" d="M1040.6697613507613,104.10747490194552A896.361434920013,896.361434920013 0 0,1 197.43714519329785,408.1182922425537"/><path class="link financial-transaction" marker-end="url(#markerend)" d="M948.403665194781,98.84909434893189A812.1564817994757,812.1564817994757 0 0,1 197.43714519329785,408.1182922425537"/><path class="link financial-transaction" marker-end="url(#markerend)" d="M948.403665194781,98.84909434893189A780.6509784843,780.6509784843 0 0,1 476.5185672790128,720.7336532290515"/><path class="link financial-transaction" marker-end="url(#markerend)" d="M1040.6697613507613,104.10747490194552A318.93096083206586,318.93096083206586 0 0,1 733.1318521607803,188.5905630812952"/><path class="link financial-transaction" marker-end="url(#markerend)" d="M1040.6697613507613,104.10747490194552A961.2953595113403,961.2953595113403 0 0,1 200.94691663505284,572.0330162871056"/><path class="link financial-transaction" marker-end="url(#markerend)" d="M1040.6697613507613,104.10747490194552A285.8490401339588,285.8490401339588 0 0,1 846.0326187915691,313.45421235418837"/><path class="link financial-transaction" marker-end="url(#markerend)" d="M1040.6697613507613,104.10747490194552A346.72893668578473,346.72893668578473 0 0,1 851.397281494335,394.61889275717135"/><path class="link financial-transaction" marker-end="url(#markerend)" d="M1040.6697613507613,104.10747490194552A928.4647713902823,928.4647713902823 0 0,1 197.40820285892937,492.6390382050263"/><path class="link financial-bidirectional" marker-end="url(#markerend)" marker-start="url(#markerstart)" d="M197.40820285892937,492.6390382050263A79.4728019569401,79.4728019569401 0 0,1 200.94691663505284,572.0330162871056"/><path class="link financial-transaction" marker-end="url(#markerend)" d="M1040.6697613507613,104.10747490194552A835.7597822166794,835.7597822166794 0 0,1 476.5185672790128,720.7336532290515"/><path class="link financial-bidirectional" marker-end="url(#markerend)" marker-start="url(#markerstart)" d="M476.5185672790128,720.7336532290515A428.7981669526703,428.7981669526703 0 0,1 667.2984644425331,336.71425421352427"/><path class="link financial-bidirectional" marker-end="url(#markerend)" marker-start="url(#markerstart)" d="M476.5185672790128,720.7336532290515A104.76568746657753,104.76568746657753 0 0,1 408.68502113393083,640.893442259092"/><path class="link financial-bidirectional" marker-end="url(#markerend)" marker-start="url(#markerstart)" d="M408.68502113393083,640.893442259092A253.00786403548744,253.00786403548744 0 0,1 661.1632823966838,657.2551919679937"/><path class="link financial-bidirectional" marker-end="url(#markerend)" marker-start="url(#markerstart)" d="M300.13961332601923,638.2498875696728A361.52356939004346,361.52356939004346 0 0,1 661.1632823966838,657.2551919679937"/><path class="link influence-control" marker-end="url(#markerend)" d="M1205.729565685982,695.4953839787138A545.9072715952195,545.9072715952195 0 0,1 661.1632823966838,657.2551919679937"/><path class="link financial-transaction" marker-end="url(#markerend)" d="M858.9794188424975,99.79001607223307A729.2786185705737,729.2786185705737 0 0,1 476.5185672790128,720.7336532290515"/><path class="link financial-transaction" marker-end="url(#markerend)" d="M858.9794188424975,99.79001607223307A876.846585649006,876.846585649006 0 0,1 119.94182553410496,571.6834049232093"/><path class="link financial-transaction" marker-end="url(#markerend)" d="M200.94691663505284,572.0330162871056A81.00584554449532,81.00584554449532 0 0,1 119.94182553410496,571.6834049232093"/><path class="link financial-transaction" marker-end="url(#markerend)" d="M858.9794188424975,99.79001607223307A841.5726143155775,841.5726143155775 0 0,1 116.69332587321969,496.3449572220825"/><path class="link financial-transaction" marker-end="url(#markerend)" d="M1281.6952868308333,257.4365256318378A1189.2463191954791,1189.2463191954791 0 0,1 116.69332587321969,496.3449572220825"/><path class="link financial-transaction" marker-end="url(#markerend)" d="M200.94691663505284,572.0330162871056A113.25789085663254,113.25789085663254 0 0,1 116.69332587321969,496.3449572220825"/><path class="link financial-transaction" marker-end="url(#markerend)" d="M660.7161844144061,727.7402908269804A78.84162027738813,78.84162027738813 0 0,1 581.9190004298641,725.0936166743703"/><path class="link financial-bidirectional" marker-end="url(#markerend)" marker-start="url(#markerstart)" d="M581.9190004298641,725.0936166743703A104.31542594975852,104.31542594975852 0 0,1 661.1632823966838,657.2551919679937"/><path class="link influence-control" marker-end="url(#markerend)" d="M1202.8991448843642,642.6512349135623A548.8191961476975,548.8191961476975 0 0,1 660.7161844144061,727.7402908269804"/><path class="link influence-control" marker-end="url(#markerend)" d="M1203.0969339189032,590.3812053329855A559.503704903557,559.503704903557 0 0,1 660.7161844144061,727.7402908269804"/><path class="link association" marker-end="url(#markerend)" marker-start="url(#markerstart)" d="M1401.8101046652114,391.7227652735033A280.9841633169355,280.9841633169355 0 0,1 1203.0969339189032,590.3812053329855"/><path class="link association" marker-end="url(#markerend)" marker-start="url(#markerstart)" d="M1401.8101046652114,391.7227652735033A320.20410178016124,320.20410178016124 0 0,1 1202.8991448843642,642.6512349135623"/><path class="link association" marker-end="url(#markerend)" marker-start="url(#markerstart)" d="M1401.8101046652114,391.7227652735033A199.28950931904774,199.28950931904774 0 0,1 1202.5712846978327,396.2173333988367"/><path class="link influence-control" marker-end="url(#markerend)" d="M1202.5712846978327,396.2173333988367A1015.1243720862576,1015.1243720862576 0 0,1 196.48508701992898,261.05796951480266"/><path class="link influence-control" marker-end="url(#markerend)" d="M1202.8991448843642,642.6512349135623A545.6201586913326,545.6201586913326 0 0,1 659.9137312696928,589.0956733717472"/><path class="link financial-bidirectional" marker-end="url(#markerend)" marker-start="url(#markerstart)" d="M298.71193360783445,190.73208620613997A590.774735790675,590.774735790675 0 0,1 661.1632823966838,657.2551919679937"/><path class="link association" marker-end="url(#markerend)" marker-start="url(#markerstart)" d="M1401.8101046652114,391.7227652735033A124.95647258953855,124.95647258953855 0 0,1 1277.1698215975016,400.6064513790157"/><path class="link influence-control" marker-end="url(#markerend)" d="M1277.1698215975016,400.6064513790157A783.8402921968532,783.8402921968532 0 0,1 496.5479724811123,329.6477848656338"/><path class="link association" marker-end="url(#markerend)" marker-start="url(#markerstart)" d="M1401.8101046652114,391.7227652735033A242.10277562717377,242.10277562717377 0 0,1 1201.0773775468351,527.0746261029767"/><path class="link influence-control" marker-end="url(#markerend)" d="M1201.0773775468351,527.0746261029767A744.0093244137895,744.0093244137895 0 0,1 540.3700226217192,184.99909940964488"/><path class="link association" marker-end="url(#markerend)" marker-start="url(#markerstart)" d="M1401.8101046652114,391.7227652735033A208.8179283258474,208.8179283258474 0 0,1 1203.849741715531,458.180435193006"/><path class="link influence-control" marker-end="url(#markerend)" d="M1203.849741715531,458.180435193006A707.4714136540704,707.4714136540704 0 0,1 498.843159845655,399.17602300338694"/><path class="link association" marker-end="url(#markerend)" marker-start="url(#markerstart)" d="M1401.8101046652114,391.7227652735033A184.10048059359846,184.10048059359846 0 0,1 1278.5314901923161,528.4537791965968"/><path class="link influence-control" marker-end="url(#markerend)" d="M1278.5314901923161,528.4537791965968A879.2952415717148,879.2952415717148 0 0,1 421.6323093648858,331.2637293767869"/><path class="link association" marker-end="url(#markerend)" marker-start="url(#markerstart)" d="M1401.8101046652114,391.7227652735033A138.58998531564313,138.58998531564313 0 0,1 1369.0834578989848,257.05223909487427"/><path class="link association" marker-end="url(#markerend)" marker-start="url(#markerstart)" d="M1281.6952868308333,257.4365256318378A87.38901600761388,87.38901600761388 0 0,1 1369.0834578989848,257.05223909487427"/><path class="link financial-transaction" marker-end="url(#markerend)" d="M595.2419739945551,117.82563629461447A786.2662965806884,786.2662965806884 0 0,1 1369.0834578989848,257.05223909487427"/><path class="link financial-transaction" marker-end="url(#markerend)" d="M298.71193360783445,190.73208620613997A1072.424152419436,1072.424152419436 0 0,1 1369.0834578989848,257.05223909487427"/><path class="link financial-transaction" marker-end="url(#markerend)" d="M540.3700226217192,184.99909940964488A831.8398961023365,831.8398961023365 0 0,1 1369.0834578989848,257.05223909487427"/><path class="link financial-transaction" marker-end="url(#markerend)" d="M458.2805079399743,186.7044046603057A913.5156437979971,913.5156437979971 0 0,1 1369.0834578989848,257.05223909487427"/><path class="link financial-transaction" marker-end="url(#markerend)" d="M378.73411541085864,186.7830769116701A992.8391487650923,992.8391487650923 0 0,1 1369.0834578989848,257.05223909487427"/><path class="link financial-transaction" marker-end="url(#markerend)" d="M298.6640892307598,102.2043724148628A1081.5615963205387,1081.5615963205387 0 0,1 1369.0834578989848,257.05223909487427"/><path class="link financial-transaction" marker-end="url(#markerend)" d="M739.3039249140948,477.2003780632516A667.9976500682117,667.9976500682117 0 0,1 1401.8101046652114,391.7227652735033"/><path class="link association" marker-end="url(#markerend)" marker-start="url(#markerstart)" d="M1401.8101046652114,391.7227652735033A404.711153776494,404.711153776494 0 0,1 1209.1889304381575,747.6556258392171"/><path class="link influence-control" marker-end="url(#markerend)" d="M1209.1889304381575,747.6556258392171A289.5224585275495,289.5224585275495 0 0,1 1044.7160736949668,509.3870098056101"/><path class="link financial-transaction" marker-end="url(#markerend)" d="M1044.7160736949668,509.3870098056101A864.964912958889,864.964912958889 0 0,1 197.339478450201,335.8439129064046"/><path class="link financial-transaction" marker-end="url(#markerend)" d="M1040.6697613507613,104.10747490194552A874.5900426806458,874.5900426806458 0 0,1 197.339478450201,335.8439129064046"/><path class="link financial-transaction" marker-end="url(#markerend)" d="M421.6323093648858,331.2637293767869A224.33959097958697,224.33959097958697 0 0,1 197.339478450201,335.8439129064046"/><path class="link financial-transaction" marker-end="url(#markerend)" d="M26.973923633085292,368.2001629954177A267.98215309063664,267.98215309063664 0 0,1 200.94691663505284,572.0330162871056"/><path class="link financial-transaction" marker-end="url(#markerend)" d="M26.973923633085292,368.2001629954177A641.0981828196458,641.0981828196458 0 0,1 667.2984644425331,336.71425421352427"/><path class="link financial-transaction" marker-end="url(#markerend)" d="M26.973923633085292,368.2001629954177A645.1158239160333,645.1158239160333 0 0,1 663.7067886962632,264.53876798599595"/><path class="link financial-transaction" marker-end="url(#markerend)" d="M26.973923633085292,368.2001629954177A720.6213135967025,720.6213135967025 0 0,1 739.3039249140948,477.2003780632516"/><path class="link financial-transaction" marker-end="url(#markerend)" d="M26.973923633085292,368.2001629954177A175.0747467434329,175.0747467434329 0 0,1 197.43714519329785,408.1182922425537"/><path class="link financial-transaction" marker-end="url(#markerend)" d="M26.973923633085292,368.2001629954177A211.02814314367058,211.02814314367058 0 0,1 197.40820285892937,492.6390382050263"/><path class="link financial-transaction" marker-end="url(#markerend)" d="M26.973923633085292,368.2001629954177A469.11084672055523,469.11084672055523 0 0,1 408.68502113393083,640.893442259092"/><path class="link financial-transaction" marker-end="url(#markerend)" d="M26.973923633085292,368.2001629954177A384.1176223086456,384.1176223086456 0 0,1 300.13961332601923,638.2498875696728"/><path class="link financial-transaction" marker-end="url(#markerend)" d="M26.973923633085292,368.2001629954177A393.89082488611155,393.89082488611155 0 0,1 419.72997444246346,398.0776876934667"/><path class="link financial-transaction" marker-end="url(#markerend)" d="M26.973923633085292,368.2001629954177A728.6416323569745,728.6416323569745 0 0,1 733.1318521607803,188.5905630812952"/><path class="link financial-transaction" marker-end="url(#markerend)" d="M26.973923633085292,368.2001629954177A223.715132544318,223.715132544318 0 0,1 119.94182553410496,571.6834049232093"/><path class="link financial-transaction" marker-end="url(#markerend)" d="M26.973923633085292,368.2001629954177A200.53300011868063,200.53300011868063 0 0,1 196.48508701992898,261.05796951480266"/><path class="link financial-transaction" marker-end="url(#markerend)" d="M26.973923633085292,368.2001629954177A670.378718781768,670.378718781768 0 0,1 659.9137312696928,589.0956733717472"/><path class="link financial-transaction" marker-end="url(#markerend)" d="M26.973923633085292,368.2001629954177A324.55579542556603,324.55579542556603 0 0,1 298.71193360783445,190.73208620613997"/><path class="link financial-transaction" marker-end="url(#markerend)" d="M26.973923633085292,368.2001629954177A471.1539803620374,471.1539803620374 0 0,1 496.5479724811123,329.6477848656338"/><path class="link financial-transaction" marker-end="url(#markerend)" d="M26.973923633085292,368.2001629954177A545.1038287846687,545.1038287846687 0 0,1 540.3700226217192,184.99909940964488"/><path class="link financial-transaction" marker-end="url(#markerend)" d="M26.973923633085292,368.2001629954177A472.8848485488483,472.8848485488483 0 0,1 498.843159845655,399.17602300338694"/><path class="link financial-transaction" marker-end="url(#markerend)" d="M26.973923633085292,368.2001629954177A396.3830742563236,396.3830742563236 0 0,1 421.6323093648858,331.2637293767869"/><path class="link financial-transaction" marker-end="url(#markerend)" d="M26.973923633085292,368.2001629954177A620.9798552950629,620.9798552950629 0 0,1 595.2419739945551,117.82563629461447"/><path class="link financial-transaction" marker-end="url(#markerend)" d="M26.973923633085292,368.2001629954177A728.6277215570076,728.6277215570076 0 0,1 660.7161844144061,727.7402908269804"/><path class="link financial-transaction" marker-end="url(#markerend)" d="M26.973923633085292,368.2001629954177A173.41092580332537,173.41092580332537 0 0,1 197.339478450201,335.8439129064046"/><path class="link financial-transaction" marker-end="url(#markerend)" d="M26.973923633085292,368.2001629954177A467.9381155239579,467.9381155239579 0 0,1 458.2805079399743,186.7044046603057"/><path class="link financial-transaction" marker-end="url(#markerend)" d="M26.973923633085292,368.2001629954177A395.78705340454707,395.78705340454707 0 0,1 378.73411541085864,186.7830769116701"/><path class="link financial-transaction" marker-end="url(#markerend)" d="M26.973923633085292,368.2001629954177A380.22270669841146,380.22270669841146 0 0,1 298.6640892307598,102.2043724148628"/><path class="link financial-transaction" marker-end="url(#markerend)" d="M26.973923633085292,368.2001629954177A600.3530907333299,600.3530907333299 0 0,1 584.6783532070406,590.4378798363064"/><path class="link action" d="M77.39823704003074,164.720389604138A153.17508655515257,153.17508655515257 0 0,1 196.48508701992898,261.05796951480266"/><path class="link action" d="M305.2025254841544,735.4389528844075A140.16947058938206,140.16947058938206 0 0,1 408.68502113393083,640.893442259092"/><path class="link action" d="M139.999836318578,108.2929105060556A178.84559685959223,178.84559685959223 0 0,1 298.71193360783445,190.73208620613997"/><path class="link action" d="M448.10832280688555,10.48559611866915A234.11125196061607,234.11125196061607 0 0,1 298.71193360783445,190.73208620613997"/><path class="link action" d="M448.10832280688555,10.48559611866915A197.40107417035972,197.40107417035972 0 0,1 540.3700226217192,184.99909940964488"/><path class="link action" d="M448.10832280688555,10.48559611866915A182.12686659795247,182.12686659795247 0 0,1 595.2419739945551,117.82563629461447"/><path class="link action" d="M448.10832280688555,10.48559611866915A176.5121577518551,176.5121577518551 0 0,1 458.2805079399743,186.7044046603057"/><path class="link action" d="M448.10832280688555,10.48559611866915A189.45601702185522,189.45601702185522 0 0,1 378.73411541085864,186.7830769116701"/><path class="link action" d="M448.10832280688555,10.48559611866915A175.34512503752944,175.34512503752944 0 0,1 298.6640892307598,102.2043724148628"/><path class="link action" d="M44.466636506433304,242.42707205548356A179.1558314946251,179.1558314946251 0 0,1 197.339478450201,335.8439129064046"/><path class="link action" d="M172.876307390339,48.14558439222216A136.9120835529505,136.9120835529505 0 0,1 298.6640892307598,102.2043724148628"/><path class="link action" d="M1391.0322229231554,190.6101889442773A201.4011695413522,201.4011695413522 0 0,1 1401.8101046652114,391.7227652735033"/><path class="link influence-control" marker-end="url(#markerend)" d="M1276.920675272681,459.3870123326781A704.5379779204832,704.5379779204832 0 0,1 584.6783532070406,590.4378798363064"/><path class="link association" marker-end="url(#markerend)" marker-start="url(#markerstart)" d="M1401.8101046652114,391.7227652735033A142.04161328313936,142.04161328313936 0 0,1 1276.920675272681,459.3870123326781"/></g><g><g class="node person" transform="translate(26.973923633085292,368.2001629954177)"><circle r="30"/><text text-anchor="middle" dy="0.3" transform="translate(0, 0)"><tspan x="0" dy="0.3em">You</tspan></text></g><g class="node person" transform="translate(1401.8101046652114,391.7227652735033)"><circle r="30"/><text text-anchor="middle" dy="0.3" transform="translate(0, -7)"><tspan x="0" dy="0.3em">Donald</tspan><tspan x="0" dy="1.4000000000000001em">Trump</tspan></text></g><g class="node person" transform="translate(1109.698080682141,316.10672811642473)"><circle r="30"/><text text-anchor="middle" dy="0.3" transform="translate(0, 0)"><tspan x="0" dy="0.3em">Peter Thiel</tspan></text></g><g class="node person" transform="translate(1281.6952868308333,257.4365256318378)"><circle r="30"/><text text-anchor="middle" dy="0.3" transform="translate(0, -7)"><tspan x="0" dy="0.3em">Jared</tspan><tspan x="0" dy="1.4000000000000001em">Kushner</tspan></text></g><g class="node person" transform="translate(1283.1871976334392,134.17515587782225)"><circle r="30"/><text text-anchor="middle" dy="0.3" transform="translate(0, -7)"><tspan x="0" dy="0.3em">Joshua</tspan><tspan x="0" dy="1.4000000000000001em">Kushner</tspan></text></g><g class="node person" transform="translate(1205.729565685982,695.4953839787138)"><circle r="30"/><text text-anchor="middle" dy="0.3" transform="translate(0, -7)"><tspan x="0" dy="0.3em">Stephen</tspan><tspan x="0" dy="1.4000000000000001em">Bannon</tspan></text></g><g class="node organization" transform="translate(858.9794188424975,99.79001607223307)"><circle r="30"/><text text-anchor="middle" dy="0.3" transform="translate(0, -7)"><tspan x="0" dy="0.3em">Thrive</tspan><tspan x="0" dy="1.4000000000000001em">Capital</tspan></text></g><g class="node organization" transform="translate(200.94691663505284,572.0330162871056)"><circle r="30"/><text text-anchor="middle" dy="0.3" transform="translate(0, 0)"><tspan x="0" dy="0.3em">Facebook</tspan></text></g><g class="node organization" transform="translate(948.403665194781,98.84909434893189)"><circle r="30"/><text text-anchor="middle" dy="0.3" transform="translate(0, -7)"><tspan x="0" dy="0.3em">Y</tspan><tspan x="0" dy="1.4000000000000001em">Combinator</tspan></text></g><g class="node organization" transform="translate(667.2984644425331,336.71425421352427)"><circle r="30"/><text text-anchor="middle" dy="0.3" transform="translate(0, 0)"><tspan x="0" dy="0.3em">Kickstarter</tspan></text></g><g class="node organization" transform="translate(663.7067886962632,264.53876798599595)"><circle r="30"/><text text-anchor="middle" dy="0.3" transform="translate(0, 0)"><tspan x="0" dy="0.3em">Etsy</tspan></text></g><g class="node organization" transform="translate(1043.9746100732405,434.10987421159996)"><circle r="30"/><text text-anchor="middle" dy="0.3" transform="translate(0, -7)"><tspan x="0" dy="0.3em">Kushner</tspan><tspan x="0" dy="1.4000000000000001em">Properties</tspan></text></g><g class="node person" transform="translate(1200.1683107782228,317.6931427504619)"><circle r="30"/><text text-anchor="middle" dy="0.3" transform="translate(0, 0)"><tspan x="0" dy="0.3em">Elon Musk</tspan></text></g><g class="node organization" transform="translate(846.0326187915691,313.45421235418837)"><circle r="30"/><text text-anchor="middle" dy="0.3" transform="translate(0, 0)"><tspan x="0" dy="0.3em">SpaceX</tspan></text></g><g class="node organization" transform="translate(739.3039249140948,477.2003780632516)"><circle r="30"/><text text-anchor="middle" dy="0.3" transform="translate(0, 0)"><tspan x="0" dy="0.3em">IRS</tspan></text></g><g class="node organization" transform="translate(851.397281494335,394.61889275717135)"><circle r="30"/><text text-anchor="middle" dy="0.3" transform="translate(0, 0)"><tspan x="0" dy="0.3em">Palantir</tspan></text></g><g class="node organization" transform="translate(852.670360874295,478.27973214399833)"><circle r="30"/><text text-anchor="middle" dy="0.3" transform="translate(0, 0)"><tspan x="0" dy="0.3em">FBI</tspan></text></g><g class="node organization" transform="translate(1040.6697613507613,104.10747490194552)"><circle r="30"/><text text-anchor="middle" dy="0.3" transform="translate(0, -7)"><tspan x="0" dy="0.3em">Founders</tspan><tspan x="0" dy="1.4000000000000001em">Fund</tspan></text></g><g class="node organization" transform="translate(197.43714519329785,408.1182922425537)"><circle r="30"/><text text-anchor="middle" dy="0.3" transform="translate(0, 0)"><tspan x="0" dy="0.3em">Airbnb</tspan></text></g><g class="node organization" transform="translate(197.40820285892937,492.6390382050263)"><circle r="30"/><text text-anchor="middle" dy="0.3" transform="translate(0, 0)"><tspan x="0" dy="0.3em">Spotify</tspan></text></g><g class="node organization" transform="translate(476.5185672790128,720.7336532290515)"><circle r="30"/><text text-anchor="middle" dy="0.3" transform="translate(0, 0)"><tspan x="0" dy="0.3em">Stripe</tspan></text></g><g class="node organization" transform="translate(408.68502113393083,640.893442259092)"><circle r="30"/><text text-anchor="middle" dy="0.3" transform="translate(0, 0)"><tspan x="0" dy="0.3em">Shopify</tspan></text></g><g class="node organization" transform="translate(661.1632823966838,657.2551919679937)"><circle r="30"/><text text-anchor="middle" dy="0.3" transform="translate(0, 0)"><tspan x="0" dy="0.3em">Breitbart</tspan></text></g><g class="node organization" transform="translate(300.13961332601923,638.2498875696728)"><circle r="30"/><text text-anchor="middle" dy="0.3" transform="translate(0, 0)"><tspan x="0" dy="0.3em">Google</tspan></text></g><g class="node organization" transform="translate(419.72997444246346,398.0776876934667)"><circle r="30"/><text text-anchor="middle" dy="0.3" transform="translate(0, 0)"><tspan x="0" dy="0.3em">Tesla</tspan></text></g><g class="node organization" transform="translate(733.1318521607803,188.5905630812952)"><circle r="30"/><text text-anchor="middle" dy="0.3" transform="translate(0, -7)"><tspan x="0" dy="0.3em">Oscar</tspan><tspan x="0" dy="1.4000000000000001em">Health</tspan></text></g><g class="node organization" transform="translate(119.94182553410496,571.6834049232093)"><circle r="30"/><text text-anchor="middle" dy="0.3" transform="translate(0, 0)"><tspan x="0" dy="0.3em">Instagram</tspan></text></g><g class="node organization" transform="translate(116.69332587321969,496.3449572220825)"><circle r="30"/><text text-anchor="middle" dy="0.3" transform="translate(0, 0)"><tspan x="0" dy="0.3em">Hot Potato</tspan></text></g><g class="node organization" transform="translate(660.7161844144061,727.7402908269804)"><circle r="30"/><text text-anchor="middle" dy="0.3" transform="translate(0, 0)"><tspan x="0" dy="0.3em">News Corp</tspan></text></g><g class="node organization" transform="translate(581.9190004298641,725.0936166743703)"><circle r="30"/><text text-anchor="middle" dy="0.3" transform="translate(0, 0)"><tspan x="0" dy="0.3em">AppNexus</tspan></text></g><g class="node person" transform="translate(1202.8991448843642,642.6512349135623)"><circle r="30"/><text text-anchor="middle" dy="0.3" transform="translate(0, -7)"><tspan x="0" dy="0.3em">Rupert</tspan><tspan x="0" dy="1.4000000000000001em">Murdoch</tspan></text></g><g class="node person" transform="translate(1203.0969339189032,590.3812053329855)"><circle r="30"/><text text-anchor="middle" dy="0.3" transform="translate(0, -7)"><tspan x="0" dy="0.3em">Elaine</tspan><tspan x="0" dy="1.4000000000000001em">Chao</tspan></text></g><g class="node person" transform="translate(1202.5712846978327,396.2173333988367)"><circle r="30"/><text text-anchor="middle" dy="0.3" transform="translate(0, -7)"><tspan x="0" dy="0.3em">Travis</tspan><tspan x="0" dy="1.4000000000000001em">Kalanick</tspan></text></g><g class="node organization" transform="translate(196.48508701992898,261.05796951480266)"><circle r="30"/><text text-anchor="middle" dy="0.3" transform="translate(0, 0)"><tspan x="0" dy="0.3em">Uber</tspan></text></g><g class="node organization" transform="translate(659.9137312696928,589.0956733717472)"><circle r="30"/><text text-anchor="middle" dy="0.3" transform="translate(0, -14)"><tspan x="0" dy="0.3em">21st</tspan><tspan x="0" dy="1.4000000000000001em">Century</tspan><tspan x="0" dy="1.4000000000000001em">Fox</tspan></text></g><g class="node organization" transform="translate(298.71193360783445,190.73208620613997)"><circle r="30"/><text text-anchor="middle" dy="0.3" transform="translate(0, 0)"><tspan x="0" dy="0.3em">Amazon</tspan></text></g><g class="node person" transform="translate(1277.1698215975016,400.6064513790157)"><circle r="30"/><text text-anchor="middle" dy="0.3" transform="translate(0, -7)"><tspan x="0" dy="0.3em">Indra</tspan><tspan x="0" dy="1.4000000000000001em">Nooyi</tspan></text></g><g class="node organization" transform="translate(496.5479724811123,329.6477848656338)"><circle r="30"/><text text-anchor="middle" dy="0.3" transform="translate(0, 0)"><tspan x="0" dy="0.3em">PepsiCo</tspan></text></g><g class="node person" transform="translate(1201.0773775468351,527.0746261029767)"><circle r="30"/><text text-anchor="middle" dy="0.3" transform="translate(0, -7)"><tspan x="0" dy="0.3em">Doug</tspan><tspan x="0" dy="1.4000000000000001em">McMillon</tspan></text></g><g class="node organization" transform="translate(540.3700226217192,184.99909940964488)"><circle r="30"/><text text-anchor="middle" dy="0.3" transform="translate(0, 0)"><tspan x="0" dy="0.3em">Walmart</tspan></text></g><g class="node person" transform="translate(1203.849741715531,458.180435193006)"><circle r="30"/><text text-anchor="middle" dy="0.3" transform="translate(0, -7)"><tspan x="0" dy="0.3em">Ginni</tspan><tspan x="0" dy="1.4000000000000001em">Rometty</tspan></text></g><g class="node organization" transform="translate(498.843159845655,399.17602300338694)"><circle r="30"/><text text-anchor="middle" dy="0.3" transform="translate(0, 0)"><tspan x="0" dy="0.3em">IBM</tspan></text></g><g class="node person" transform="translate(1278.5314901923161,528.4537791965968)"><circle r="30"/><text text-anchor="middle" dy="0.3" transform="translate(0, -7)"><tspan x="0" dy="0.3em">Mary</tspan><tspan x="0" dy="1.4000000000000001em">Barra</tspan></text></g><g class="node organization" transform="translate(421.6323093648858,331.2637293767869)"><circle r="30"/><text text-anchor="middle" dy="0.3" transform="translate(0, -7)"><tspan x="0" dy="0.3em">General</tspan><tspan x="0" dy="1.4000000000000001em">Motors</tspan></text></g><g class="node person" transform="translate(1369.0834578989848,257.05223909487427)"><circle r="30"/><text text-anchor="middle" dy="0.3" transform="translate(0, -7)"><tspan x="0" dy="0.3em">Ivanka</tspan><tspan x="0" dy="1.4000000000000001em">Trump</tspan></text></g><g class="node organization" transform="translate(595.2419739945551,117.82563629461447)"><circle r="30"/><text text-anchor="middle" dy="0.3" transform="translate(0, 0)"><tspan x="0" dy="0.3em">Nordstrom</tspan></text></g><g class="node action" transform="translate(77.39823704003074,164.720389604138)"><circle r="30"/><text text-anchor="middle" dy="0.3" transform="translate(0, 0)"><tspan x="0" dy="0.3em">#DeleteUber</tspan></text></g><g class="node action" transform="translate(305.2025254841544,735.4389528844075)"><circle r="30"/><text text-anchor="middle" dy="0.3" transform="translate(0, 0)"><tspan x="0" dy="0.3em">#DeleteShopify</tspan></text></g><g class="node action" transform="translate(139.999836318578,108.2929105060556)"><circle r="30"/><text text-anchor="middle" dy="0.3" transform="translate(0, 0)"><tspan x="0" dy="0.3em">#DeleteAmazon</tspan></text></g><g class="node action" transform="translate(448.10832280688555,10.48559611866915)"><circle r="30"/><text text-anchor="middle" dy="0.3" transform="translate(0, 0)"><tspan x="0" dy="0.3em">#GrabYourWallet</tspan></text></g><g class="node action" transform="translate(44.466636506433304,242.42707205548356)"><circle r="30"/><text text-anchor="middle" dy="0.3" transform="translate(0, 0)"><tspan x="0" dy="0.3em">#DeleteLyft</tspan></text></g><g class="node action" transform="translate(172.876307390339,48.14558439222216)"><circle r="30"/><text text-anchor="middle" dy="0.3" transform="translate(0, 0)"><tspan x="0" dy="0.3em">#Baycott</tspan></text></g><g class="node action" transform="translate(1391.0322229231554,190.6101889442773)"><circle r="30"/><text text-anchor="middle" dy="0.3" transform="translate(0, 0)"><tspan x="0" dy="0.3em">#Resist</tspan></text></g><g class="node person" transform="translate(1209.1889304381575,747.6556258392171)"><circle r="30"/><text text-anchor="middle" dy="0.3" transform="translate(0, 0)"><tspan x="0" dy="0.3em">Carl Icahn</tspan></text></g><g class="node organization" transform="translate(1044.7160736949668,509.3870098056101)"><circle r="30"/><text text-anchor="middle" dy="0.3" transform="translate(0, -7)"><tspan x="0" dy="0.3em">Icahn</tspan><tspan x="0" dy="1.4000000000000001em">Enterprises</tspan></text></g><g class="node organization" transform="translate(197.339478450201,335.8439129064046)"><circle r="30"/><text text-anchor="middle" dy="0.3" transform="translate(0, 0)"><tspan x="0" dy="0.3em">Lyft</tspan></text></g><g class="node organization" transform="translate(298.6640892307598,102.2043724148628)"><circle r="30"/><text text-anchor="middle" dy="0.3" transform="translate(0, -7)"><tspan x="0" dy="0.3em">Hudson's</tspan><tspan x="0" dy="1.4000000000000001em">Bay</tspan></text></g><g class="node organization" transform="translate(378.73411541085864,186.7830769116701)"><circle r="30"/><text text-anchor="middle" dy="0.3" transform="translate(0, 0)"><tspan x="0" dy="0.3em">Zappos</tspan></text></g><g class="node organization" transform="translate(458.2805079399743,186.7044046603057)"><circle r="30"/><text text-anchor="middle" dy="0.3" transform="translate(0, 0)"><tspan x="0" dy="0.3em">Macy's</tspan></text></g><g class="node organization" transform="translate(584.6783532070406,590.4378798363064)"><circle r="30"/><text text-anchor="middle" dy="0.3" transform="translate(0, 0)"><tspan x="0" dy="0.3em">Disney</tspan></text></g><g class="node person" transform="translate(1276.920675272681,459.3870123326781)"><circle r="30"/><text text-anchor="middle" dy="0.3" transform="translate(0, 0)"><tspan x="0" dy="0.3em">Bob Iger</tspan></text></g></g></svg></svg>